<?xml version="1.0" encoding="UTF-8"?><svg id="Layer_1" xmlns="http://www.w3.org/2000/svg" viewBox="0 0 275.12 354.97"><defs><style>.cls-1{fill:#001489;}</style></defs><path class="cls-1" d="m69.59,93.57c0-.7.57-1.27,1.27-1.27.05,0,.1,0,.15.02.05,0,.1-.02.15-.02.7,0,1.27.57,1.27,1.27s-.57,1.27-1.27,1.27c-.05,0-.1,0-.15-.02-.05,0-.1.02-.15.02-.7,0-1.27-.57-1.27-1.27Zm199.95,91.4v31.76h5.58v3.65h-2.77v3.38h-1.02v7.42h-1.79v31.76h5.58v3.65h-2.77v3.38h-1.02v7.42h-1.79v31.76h5.58v3.65h-2.77v3.38h-1.02v7.42h-1.79v31.39h-42.72v-28.39c0-1.07-.22-2.08-.61-2.99h-3.05c.57-.16,1.18-.24,1.8-.24.34,0,.68.04,1.02.08-1.12-2.45-3.51-4.17-6.29-4.2-2.83.03-5.27,1.81-6.36,4.36-.39.91-.61,1.93-.61,2.99v28.39h-42.72v-31.39h-.12v2.89h.02v18.52h-.02v9.98h-82.96v-9.98h-.02v-18.52h.02v-6.79h-.11v35.28h-32.98v-23.71h-17.93v23.71H3.65v-35.28h-1.23v-3.71H.95v-3.76h2.7v-5.07h-1.43v-4.35h1.43v-32.35h-1.23v-3.07H.95v-3.76h2.7v-6.98h-1.43v-2.44h0v-1.91h1.43v-29.2h-1.23v-.02H.96v-3.76h2.7s-1.23,0-1.23,0v-3.76h1.23v-7.03h-1.43v-2.44h0v-1.91h1.43v-30.15h-1.23v-.02H.95v-2.64h-.95v-2.44h2.43v-2.44h1.23v-7.03h-1.43v-2.44h1.43v-2.44h14.72s-13.51,0-13.51,0v-5.08h3.55s0,0,0,0c-1.1-1.43-1.75-3.23-1.75-5.18,0-4.71,3.82-8.53,8.53-8.53,1.13,0,2.2.22,3.19.62v-18.68h-1.55v-2.34h-3.48v-2.34h2.81v-2.21h.99v-1.75h.85v-.69h-.38l.75-11.78v-.97l.72-.33v-.49c-.55-.14-.97-.63-.97-1.23,0-.7.57-1.27,1.27-1.27s1.27.57,1.27,1.27c0,.5-.29.93-.71,1.14v.7l.47.22v.97h0l.75,11.78h-.38v.69h.85v1.75h.37c.95-1.56,1.69-3.25,2.23-5.01,1.31-4.22,5.24-7.29,9.88-7.32v-6.76h-.49v-1.65h-1.61v-2.34h-1.61v-2.34h.95v-1.53l5.11-2.66c.05-2.81,1.74-5.24,4.14-6.36v-.21h-.71v-2.73h-.21v-1.39h2.13v-1.4h1.26c-.8-.66-1.3-1.67-1.3-2.77v-5.64h-1.65c-1.05,0-1.89-.91-1.78-1.97.09-.93.93-1.61,1.87-1.61.87,0,1.57-.7,1.57-1.57v-.59c0-1.05.48-1.99,1.23-2.62,0-.05,0-.09,0-.14v-2.36c0-1.32,1.16-2.37,2.51-2.2,1.12.15,1.92,1.15,1.92,2.28v2.27s0,.09,0,.14c.02.01.03.03.05.04.49.43,1.16.51,1.75.26.26-.11.54-.17.83-.17,1.19,0,2.16.97,2.16,2.16v7.24c0,1.19-.97,2.16-2.16,2.16h-.02c-.77,0-1.39.62-1.39,1.39v1.02c0,1.07-.5,2.03-1.28,2.66h1.02v1.4h2.13v1.39h-.26v2.73h-.96v.1c2.52,1.07,4.32,3.55,4.37,6.45l5.14,2.67v1.53h.95v2.34h-1.61v2.34h-1.61v1.65h-.49v6.76c4.65.03,8.57,3.1,9.88,7.32.55,1.76,1.28,3.45,2.23,5.01h.37v-1.75h.85v-.69h-.38l.75-11.78v-.97l1.03-.48,1.03.48v.97h0l.75,11.78h-.38v.69h.85v1.75h.99v2.21h2.81v2.34h-3.48v2.34h-1.55v18.78c1.05-.46,2.21-.72,3.42-.72,4.71,0,8.53,3.82,8.53,8.53,0,1.95-.66,3.75-1.77,5.18h3.56v5.08h-13.75s14.91,0,14.91,0v2.36c.18-2.07,1.92-3.7,4.04-3.7.12,0,.24,0,.35.02h0c.17.01.34.04.51.07,0,0,0,0,.01,0,.02,0,.05.01.07.02.18.04.36.1.53.16,0,0,0,0,0,0,0,0,0,0,0,0,.26.1.51.23.74.38h0c.04-.22.08-.44.12-.65.05-.28.1-.55.15-.83.03-.18.06-.36.09-.53.03-.16.06-.32.09-.47.14-.8.27-1.54.4-2.18,0-.04.02-.09.03-.13.02-.11.04-.21.06-.3.01-.06.02-.12.03-.17.02-.12.05-.23.07-.33,0-.02,0-.04.01-.06,0,0,0,0,0,0,.07-.33.14-.61.21-.82,0-.03.02-.06.03-.09.04-.12.08-.24.12-.36.01-.04.03-.07.04-.11.04-.1.08-.2.12-.3,0-.01,0-.02.01-.04.06-.15.12-.29.19-.43,0-.02.02-.03.03-.05.01-.03.03-.06.05-.09.05-.09.09-.18.14-.27,0-.01.01-.02.02-.04.01-.02.03-.05.04-.07,0,0,.01-.02.02-.02.02-.03.03-.05.05-.08.04-.06.07-.12.11-.18.03-.06.06-.11.1-.17.06-.09.12-.18.19-.27.04-.06.08-.12.12-.17.01-.02.03-.04.04-.06.08-.11.17-.22.25-.33.03-.03.05-.06.08-.1.03-.04.06-.07.09-.11.03-.03.06-.07.09-.1.09-.1.18-.2.27-.3.02-.02.04-.04.07-.07.02-.02.03-.03.05-.05.06-.06.11-.12.17-.17.09-.09.2-.18.3-.27,0,0,0,0,0,0,.03-.02.06-.05.08-.07.07-.06.15-.13.23-.19.01,0,.02-.02.04-.03.05-.04.1-.08.15-.12.05-.04.09-.07.14-.11.03-.02.05-.04.07-.06.13-.09.26-.18.39-.27.02-.01.04-.03.06-.04.03-.02.07-.04.1-.07.08-.05.15-.1.23-.15l.36-.2s.04-.02.06-.03v-4.61h-2.77v-3.53h-.98v-3.52h5.14s.01-.02.02-.02h-4.38s0,0,0,0v-2.05h.91v-1.59h0s.78,0,.78,0v-.63h-.34,0s0,0,0,0l.69-10.77v-.89h0s.45-.21.45-.21v-.37h0s.13-.19.13-.19c-.27-.09-.5-.28-.65-.52-.02-.02-.03-.05-.04-.08v-.02s-.03-.04-.03-.05c0-.02-.01-.03-.02-.05,0-.01,0-.02-.01-.03,0-.03-.01-.06-.02-.09,0-.01,0-.02,0-.04,0-.01,0-.02,0-.03-.01-.06-.02-.12-.02-.19,0-.64.53-1.17,1.17-1.17s1.17.53,1.17,1.17c0,0,0,0,0,0h0s0,0,0,0c0,.06,0,.13-.02.19,0,0,0,0,0,.01,0,.03-.01.06-.02.08,0,.02,0,.04-.01.07,0,.01,0,.02-.01.03,0,0,0,.02-.01.03-.01.03-.03.06-.04.1,0,0,0,0,0,0,0,0,0,0,0,0-.14.28-.38.5-.68.6l.13.19v.38l.15.07.3.14v.89l.08,1.31.6,9.46h0,0s-.34,0-.34,0v.63h.78s0,0,0,0v1.59h.22c.03-.09.05-.18.08-.27,0-.03.02-.06.02-.08.1-.35.2-.73.29-1.12.05-.21.1-.43.15-.65.02-.09.04-.18.06-.27.01-.06.03-.12.04-.18,0-.03.01-.05.02-.08.06-.27.11-.54.17-.81,0-.02.01-.05.02-.08.04-.18.07-.36.11-.54.06-.3.11-.6.17-.91.01-.06.02-.12.03-.19h0c.1-.55.2-1.09.29-1.62.2-1.14.39-2.21.56-3.09,0,0,0-.01,0-.02,0-.02,0-.03,0-.05.14-.73.27-1.33.4-1.72.11-.35.24-.69.39-1.02.04-.09.07-.18.12-.27,0-.02.02-.04.03-.06.03-.07.07-.14.11-.21.03-.06.06-.12.09-.18.03-.07.07-.12.1-.18.01-.02.02-.04.03-.05.01-.02.02-.03.03-.05.04-.07.09-.13.13-.2.05-.09.1-.17.16-.25.01-.02.03-.04.04-.06.08-.12.16-.23.25-.35.04-.05.07-.1.1-.14.03-.03.06-.06.08-.1.1-.12.2-.24.31-.36,0,0,0,0,0-.01.02-.02.04-.05.06-.07.03-.03.06-.06.09-.1.08-.09.17-.18.25-.26.03-.04.07-.07.1-.11.08-.08.17-.15.25-.23.09-.08.18-.15.27-.23.09-.08.18-.16.28-.23.01-.01.03-.02.05-.03.06-.04.11-.08.17-.12,0,0,.02-.01.03-.02.09-.07.18-.13.28-.2.04-.02.08-.05.11-.07.05-.03.09-.06.14-.09.01,0,.02-.01.03-.02.11-.07.23-.14.34-.2.03-.02.06-.03.09-.05.32-.17.64-.33.98-.47.1-.04.21-.08.31-.12.02,0,.03,0,.05-.02.19-.07.39-.13.59-.19.03,0,.07-.02.1-.03.02,0,.04,0,.06-.02.1-.03.2-.05.31-.08,0,0,0,0,.01,0,.01,0,.02,0,.03,0,.24-.05.48-.1.72-.14.11-.02.21-.03.32-.04v-.07h-2.26v-4.02h-1s0,0,0,0v-4.02h0s2.14,0,2.14,0c0,0,0,0,0,0-.19-.22-.37-.45-.52-.7,0,0,0,0,0,0-.07-.12-.14-.24-.2-.36-.01-.02-.02-.05-.04-.07-.05-.1-.1-.21-.14-.32,0-.01-.01-.02-.01-.03-.03-.08-.06-.16-.09-.24,0-.01,0-.03-.01-.04-.06-.19-.11-.39-.15-.59,0,0,0-.02,0-.03-.01-.05-.02-.11-.03-.17-.01-.05-.02-.1-.02-.15,0-.05,0-.09-.01-.14-.02-.16-.02-.31-.02-.47,0-2.76,2.24-5,5-5,.05,0,.1,0,.15,0,.05,0,.09,0,.15,0,.04,0,.09,0,.13.01.05,0,.1,0,.15.01.03,0,.06,0,.09,0,.03,0,.07,0,.09.01.08.01.15.02.23.04.01,0,.03,0,.04,0,.07.02.14.04.21.05.08.02.17.04.24.06.08.02.15.05.23.08.06.02.13.05.19.08.03.01.07.03.1.04.07.03.14.06.21.09.04.02.07.04.1.05.04.02.07.04.11.06.02.01.04.02.06.03.09.05.17.1.26.16,0,0,.02.01.03.02.02.02.05.03.07.05.05.03.09.07.14.1.07.05.12.09.18.14.03.02.06.05.09.08.06.05.12.1.17.15.02.02.04.04.06.06.03.02.05.05.08.08.03.03.05.05.08.08.06.07.12.13.17.2h0s0-5.99,0-5.99h-.44s0,0,0,0v-1.51h-1.47v-2.14h-1.47v-2.14h.87v-1.4l4.81-2.51h0s0,0,0,0h0s.01-.07.02-.09c0-.03.01-.05.02-.08.01-.06.02-.11.04-.17,0-.01,0-.03,0-.04.03-.13.07-.25.11-.38,0-.03.02-.06.03-.09.03-.11.07-.22.11-.32,0,0,0-.02.01-.02.03-.08.07-.16.1-.25.02-.04.03-.08.05-.13,0,0,0,0,0,0,.06-.13.12-.27.18-.4,0-.01.01-.02.02-.03.02-.04.04-.08.06-.11.03-.05.05-.11.08-.16,0,0,.01-.02.02-.03.07-.12.14-.24.21-.35.03-.05.06-.09.09-.14.03-.04.05-.08.08-.12.02-.02.03-.05.05-.07.03-.05.07-.09.11-.13.12-.17.25-.33.38-.48.01-.01.03-.03.04-.04.53-.6,1.14-1.12,1.82-1.53v-.74h-.64s0,0,0,0v-2.5h-.2s0,0,0,0v-1.27h1.95v-1.27h0s1.15,0,1.15,0c0,0,0,0,0,0-.05-.04-.09-.08-.13-.12-.04-.04-.08-.07-.12-.12-.02-.03-.05-.06-.07-.08-.05-.06-.11-.12-.15-.18,0,0-.01-.02-.02-.02-.07-.09-.13-.18-.19-.28,0,0,0,0,0,0-.04-.07-.08-.14-.12-.21-.02-.03-.04-.06-.05-.09-.02-.05-.05-.11-.07-.17,0-.02-.01-.03-.02-.05-.01-.04-.03-.07-.04-.11,0,0,0,0,0,0-.04-.11-.07-.22-.1-.34v-.02s-.02-.08-.03-.12c0-.01,0-.02,0-.04,0,0,0,0,0-.01-.01-.06-.02-.12-.02-.18,0-.05-.01-.1-.02-.15,0-.07,0-.14,0-.21v-5.16h-1.51c-.55,0-1.02-.28-1.32-.69-.22-.31-.35-.7-.31-1.11.03-.32.16-.61.35-.84.32-.39.82-.63,1.35-.63.4,0,.75-.16,1.01-.42.26-.26.42-.62.42-1.01v-.55c0-.95.44-1.82,1.12-2.39,0-.04,0-.08,0-.12v-2.16c0-.89.59-1.65,1.4-1.92,0,0,.01,0,.02-.01.02,0,.03,0,.05-.01.26-.07.54-.1.83-.07.53.07.97.35,1.29.75.29.37.47.84.47,1.33v2.08s0,.08,0,.12c.01.01.02.02.04.04.11.1.23.18.36.23.26.12.54.16.82.12.14-.02.28-.06.42-.12.07-.03.15-.05.23-.07.13-.04.25-.06.39-.07.05,0,.1-.02.14-.02.14,0,.27.01.4.04.9.18,1.58.98,1.58,1.94v6.62c0,1.09-.89,1.98-1.98,1.98h-.01c-.26,0-.51.08-.71.21-.34.23-.56.62-.56,1.05v.94c0,.09,0,.18-.01.27,0,.02,0,.04,0,.05-.04.37-.14.72-.3,1.05,0,0,0,0,0,0,0,0,0,.01,0,.02-.2.4-.48.75-.82,1.03,0,0,0,0,0,0,0,0-.01,0-.02.01,0,0,0,0,0,0h.93v1.28h1.95s0,0,0,0v1.27h-.24v2.5h0s-.88,0-.88,0v.61c.48.27.92.59,1.33.96,0,0,.02.02.02.02.19.17.37.35.55.54.03.03.06.06.09.09.05.06.09.11.14.17.03.04.06.07.09.11,0,0,0,0,0,0,.09.11.17.22.25.33.03.04.05.07.08.11.05.07.1.14.15.21,0,0,0,.01.01.02.08.11.15.23.21.34.01.02.03.05.04.07.06.1.11.2.16.31.03.05.06.1.08.15,0,.01,0,.02.01.03.02.03.03.06.04.09.06.14.12.28.18.42.01.03.02.05.03.08.02.06.05.12.07.19,0,.01,0,.02.01.03,0,.01,0,.02.01.04,0,.01,0,.02.01.03,0,.02.01.04.01.06.03.08.05.16.07.23.02.05.03.1.04.15.03.09.05.19.07.28.02.08.04.16.06.24l.4.21,4.44,2.31v1.4h.87v2.14h-1.47v2.14h-1.47v1.51h0s-.44,0-.44,0v5.74s.02-.02.04-.04c.01-.01.03-.03.04-.04.03-.03.06-.07.1-.1.06-.05.12-.11.18-.16,0,0,.01,0,.02-.01.05-.04.1-.08.16-.12,0,0,.02-.01.02-.02.06-.05.13-.1.2-.15.01,0,.02-.01.03-.02.02-.01.03-.02.05-.03.04-.02.07-.05.11-.07.06-.04.12-.08.19-.11.03-.02.05-.03.08-.05h0s0,0,0,0c.05-.03.11-.06.17-.09.05-.02.11-.05.17-.08.02,0,.03-.01.05-.02.05-.02.1-.04.14-.06.04-.02.09-.04.13-.05.04-.02.08-.03.12-.04.06-.02.13-.04.19-.06,0,0,.01,0,.02,0,.11-.04.23-.07.34-.09.01,0,.02,0,.04,0,.02,0,.04,0,.05,0,.09-.02.17-.03.26-.04.03,0,.07,0,.1-.01.05,0,.1-.01.15-.02.06,0,.11-.01.18-.02.09,0,.18,0,.28,0,2.76,0,5,2.24,5,5,0,.16,0,.31-.02.47,0,.01,0,.03,0,.04,0,0,0,0,0,0,0,.03,0,.06,0,.1,0,.05-.01.1-.02.15,0,.05-.02.11-.03.17,0,.01,0,.02,0,.03,0,.04-.01.07-.02.11,0,.03-.01.06-.02.09-.01.05-.03.11-.04.17-.02.06-.04.11-.05.17-.04.11-.07.22-.11.32,0,.02-.02.04-.03.06-.04.09-.08.18-.12.27-.02.04-.04.08-.06.12-.05.09-.09.18-.15.27-.02.03-.03.06-.05.08,0,.01-.02.02-.03.04-.15.24-.32.47-.51.68h2.38s0,0,0,0v4.02h0s-.99,0-.99,0v4.02h-1.8v.1c.06,0,.11.02.16.02.01,0,.03,0,.04,0,0,0,0,0,0,0,.11.02.21.04.31.06.11.02.22.05.33.07.04.01.09.02.13.03.01,0,.03,0,.04,0,.02,0,.04.01.06.02.09.02.18.06.27.08.15.04.3.09.45.14.06.02.12.04.18.06.09.04.19.08.29.12.09.04.18.08.28.12.02,0,.03.01.05.02.09.04.18.08.26.12.01,0,.03.01.04.02.1.05.21.11.31.16.04.02.08.04.11.06.02.01.04.03.07.04.06.04.12.07.18.11.26.16.51.32.75.5,0,0,0,0,0,0,.17.14.34.27.5.41,0,0,0,0,.01,0,.04.04.09.08.13.11.04.03.07.06.11.1.04.04.08.08.12.11.04.04.08.08.12.12,0,0,.01.01.02.02.08.08.15.16.23.24.07.07.14.15.21.23.02.02.04.05.06.07.08.09.16.19.24.29.03.04.07.08.1.12.02.02.04.05.06.08.01.01.02.03.03.04.07.1.15.2.21.3.01.02.02.03.03.05.05.07.09.14.14.21.02.03.03.06.05.09.06.09.11.18.17.28,0,0,0,.01,0,.02.02.04.04.08.07.12.09.17.18.33.27.51.03.06.06.12.09.19,0,.02.02.04.02.05.03.07.06.13.08.2.12.28.23.57.32.86.11.35.22.85.35,1.47,0,.03.01.06.02.09.01.07.03.14.04.21.01.05.02.11.03.17.03.17.07.35.1.54,0,.03.01.06.02.08.01.06.02.13.03.19.03.14.05.29.08.44.01.05.02.11.03.16.05.32.11.66.18,1,.03.15.05.29.08.43.1.56.2,1.13.31,1.71h0c.1.55.2,1.1.31,1.64,0,.03.01.05.02.08.06.28.11.56.17.84l.09.41c.06.25.12.5.17.74.07.27.13.54.2.79.04.12.07.24.09.35.04.12.07.23.1.34h.37v-1.59h0s.78,0,.78,0v-.63h-.34,0s0,0,0,0l.69-10.77v-.89h0s.51-.24.51-.24v-.33l.02-.03.1-.17h0s0,0,0,0c-.36-.1-.64-.37-.77-.71,0,0-.01-.02-.01-.03-.01-.04-.02-.07-.03-.11,0-.01,0-.03-.01-.04,0-.01,0-.02,0-.03-.01-.07-.02-.13-.02-.2,0-.64.53-1.17,1.17-1.17s1.17.53,1.17,1.17c0,.07,0,.13-.02.2,0,0,0,.01,0,.02,0,.03-.02.07-.03.1,0,.02,0,.05-.02.07,0,.01-.01.02-.02.04,0,.02-.02.04-.03.07,0,0,0,.02-.01.03,0,.02-.03.04-.04.06-.15.26-.4.46-.69.54h0s.12.2.12.2v.33l.51.24v.89l.69,10.77h0,0s-.34,0-.34,0v.63h.78s0,0,0,0v1.59h.91v2.06h-4.52s0,.02.01.02h5.29v3.52h-.99s0,0,0,0v3.52h0s-3.12,0-3.12,0v4.72c.11.06.2.11.3.17h0s.03.02.04.02c0,0,0,0,0,0,.05.03.09.06.14.09.09.06.18.11.26.17.08.06.17.12.25.18.02.01.03.03.05.04.11.08.22.17.33.26.03.03.07.05.1.08.01,0,.02.02.03.03.09.07.17.14.25.22.02.02.04.03.06.05.1.1.2.19.3.29.06.06.12.12.17.18.05.06.11.11.17.17h0s.07.09.1.13c.07.08.15.17.22.25.09.11.17.22.26.33.02.02.03.05.05.07.05.06.09.13.14.19.03.04.06.08.08.11.08.12.16.24.23.36,0,0,0,.01.01.02.02.04.04.08.07.12.05.08.1.16.14.24.02.03.04.06.05.09.02.03.03.07.05.1.03.07.07.13.1.2,0,.02.02.04.03.06.05.1.1.21.14.31.03.06.05.12.08.18.02.05.04.1.06.15.04.09.07.18.11.28.05.12.09.24.12.36.02.07.04.14.07.22.09.34.19.8.3,1.33.02.11.04.23.07.34,0,.04.01.08.02.12.06.33.13.68.2,1.06.02.09.04.18.05.27.05.33.11.66.18,1.01.01.04.02.09.02.14.01.08.03.16.04.23.08.44.16.9.24,1.36.03.14.05.28.08.42h0c.23-.15.47-.27.73-.37,0,0,0,0,.01,0,0,0,0,0,0,0,.16-.06.33-.12.51-.16.03,0,.06-.02.09-.02,0,0,.01,0,.02,0,.16-.04.33-.06.5-.07h0c.11-.01.23-.02.35-.02,2.24,0,4.05,1.81,4.05,4.05,0,.05,0,.1,0,.15,0,.2-.03.4-.06.6,0,0,0,.02,0,.03,0,0,0,0,0,0,0,.04-.02.08-.03.11,0,.03-.01.06-.02.1,0,.03-.02.06-.02.09,0,.02,0,.03-.02.05-.03.11-.07.21-.11.31,0,0,0,0,0,.01,0,.01,0,.02-.01.03-.04.09-.08.19-.12.28-.01.03-.02.06-.04.08,0,.01-.02.03-.02.04-.02.04-.04.07-.06.11-.01.02-.03.05-.04.08-.01.02-.03.04-.04.06-.63,1.02-1.7,1.73-2.94,1.89h4.09v-25.44h-1.46v-3.38h-1.92v-3.65h4.83v-6.49h-1.68v-3.38h-2.65v-3.64h4.34v-3.49h2.64c-.4-1.01-.62-2.1-.62-3.24,0-4.88,3.95-8.83,8.83-8.83.1,0,.21.01.31.02v-14.55h-5.16v-2.25h-1v-2.24h1v-1.9h.93v-1.63h.8v-.64h-.35l.7-11.02v-.91l.52-.24v-.34l.12-.2c-.5-.14-.87-.6-.87-1.14,0-.66.53-1.19,1.19-1.19s1.19.53,1.19,1.19c0,.55-.37,1-.87,1.14l.12.2v.34l.52.24v.91h0l.7,11.02h-.35v.64h.8v1.63h.93v1.9h2.68c-1.12-.5-1.89-1.62-1.89-2.93,0-1.77,1.44-3.21,3.21-3.21.79,0,1.51.28,2.07.75.42-2.24.76-4.49,1.04-5.39.95-3.04,3.76-5.25,7.09-5.3v-10.57h-3.51v-2.24h-1.69v-2.24h3.82v-2h.93v-1.63h.8v-.64h-.35l.7-11.01v-.91l.52-.24v-.34l.12-.2c-.5-.14-.87-.6-.87-1.14,0-.66.53-1.19,1.19-1.19s1.19.53,1.19,1.19c0,.55-.37,1-.87,1.14l.12.2v.34l.52.24v.91h0l.7,11.01h-.35v.64h.8v1.63h.93v2h2.5c-1.22-1.51-1.95-3.44-1.95-5.53,0-4.88,3.95-8.83,8.83-8.83v-6.19h-.35v-1.2h-1.17v-1.7h-1.16v-1.7h.69v-1.11l3.82-1.99c.34-1.72,1.4-3.19,2.85-4.09l.03-.55h0v-.06h-.51v-.62h0v-1.21h0s0,0,0,0v-.14h0s-.57,0-.57,0h-.7v-1.01h.7v-1.01h.45c.13-1.04.3-2.23.42-2.52.22-.54,1.32,0,1.32,0,0,0-.18-.52.09-.84.27-.31.56-1.05.62-1.36.07-.31.38-.13.38-.13v-.74s0-.09-.02-.13l-.16-.49-.31.81c-.04.11-.13.2-.24.24l-.63.25.22-1.2-.38-.29v-.49l.56.07-.16-.13.47-.18.31.16.45-.04-.13-1.14c0-.06-.02-.11-.05-.16l-1.12-1.97c-.11-.19-.05-.44.14-.56l1.03-.66c.09-.06.15-.14.18-.24.07-.23.18-.65.18-.7,0-.07.25-.18.25-.18l.24.87-.22.49h-.18l-.54.71c-.14.18-.12.44.04.6l.81.81.07-.53s-.22-.42-.25-.56c-.02-.13.09-.69.49-.69s.71.38.71.38c0,0,.4-.56.71-.58.31-.02.49.25.49.25,0,0,2.1.04,2.41.13.31.09.22.69.18.96-.03.19-.26.23-.39.24-.07,0-.14.03-.19.06l-.88.56h-.53l1.4,1.18-.18.45h.49l.8.55c.09.06.15.15.17.25l.1.44.99-.95c.12-.11.3-.15.45-.08l.39.16c.1.04.18.13.23.23l.45,1.13c.04.1.12.18.21.22l.89.41c.08.04.14.1.19.17l.74,1.29-.78-.15c-.13-.02-.23-.11-.29-.22l-.23-.43c-.07-.14-.21-.22-.37-.22h-.27c-.13,0-.26-.06-.34-.17l-.23-.32s-.01-.02-.02-.03l-.25-.4c-.14-.23-.46-.27-.65-.07l-.75.77s-.06.08-.08.12l-.52,1.19c-.03.08-.09.14-.15.18l-1.16.76c-.11.07-.18.19-.19.32l-.12,1.67.2.47s-.06,0-.15.01h.89v1.01h.7v1.01h-1.3v1.98h-.7v.48c1.55.88,2.69,2.41,3.05,4.21l3.84,2v1.11h.69v1.7h-1.17v1.7h-1.17v1.2h-.35v6.19c4.88,0,8.83,3.95,8.83,8.83,0,2.09-.73,4.02-1.95,5.53h2.31v-2h.93v-1.63h.8v-.64h-.35l.7-11.01v-.91l.52-.24v-.34l.12-.2c-.5-.14-.87-.6-.87-1.14,0-.66.53-1.19,1.19-1.19s1.19.53,1.19,1.19c0,.55-.37,1-.87,1.14l.12.2v.34l.52.24v.91h0l.7,11.01h-.35v.64h.8v1.63h.93v2h4.3v2.24h-1.69v2.24h-3.51v10.57c3.38,0,6.25,2.24,7.21,5.31.28.89.61,3.09,1.03,5.31.54-.42,1.23-.68,1.97-.68,1.77,0,3.21,1.44,3.21,3.21,0,1.3-.78,2.42-1.89,2.93h2.68v-1.9h.93v-1.63h.8v-.64h-.35l.7-11.02v-.91l.52-.24v-.34l.12-.2c-.5-.14-.87-.6-.87-1.14,0-.66.53-1.19,1.19-1.19s1.19.53,1.19,1.19c0,.55-.37,1-.87,1.14l.12.2v.34l.52.24v.91h0l.7,11.02h-.35v.64h.8v1.63h.93v1.9h.99v2.24h-1v2.25h-5.16v14.56c.18-.01.36-.03.54-.03,4.88,0,8.83,3.95,8.83,8.83,0,1.15-.23,2.24-.62,3.24h2.41v3.49h4.33v3.64h-2.65v3.38h-1.68v6.49h4.83v3.65h-1.92v3.38h-1.79v34.67h5.58v3.65h-2.77v3.38h-1.02v7.42h-1.79Zm-260.12-3.47h7.57v-5.12h-7.57v5.12Zm0,22.67h7.57v-19.89h-7.57v19.89Zm0,25.46h7.57v-6.55h-7.57v6.55Zm0,22.67h7.57v-19.89h-7.57v19.89Zm-.68,37.13h7.58v-7.51h-7.58v7.51Zm0,13.14h7.58v-10.37h-7.58v10.37Zm17.93,28.71H8.74v17.44h17.93v-17.44Zm0-11.57H8.74v8.8h17.93v-8.8Zm0-27.5h-7.58v10.37h7.58v-10.37Zm0-10.28h-7.58v7.51h7.58v-7.51Zm.67-49.51h-7.57v19.89h7.57v-19.89Zm0-9.33h-7.57v6.55h7.57v-6.55Zm0-38.8h-7.57v19.89h7.57v-19.89Zm0-7.89h-7.57v5.12h7.57v-5.12Zm5.1-40.61h-9.11v6.03c.08.25.14.5.2.76h8.9v2.69h-8.77c-.06.53-.17,1.04-.32,1.54v7.77h9.11v-18.79Zm9.57-36.86c0,.86.35,1.64.91,2.21.21.21.46.39.72.53.44.24.94.38,1.48.38,1.72,0,3.12-1.4,3.12-3.12,0-.91-.39-1.72-1-2.28-.06-.05-.12-.11-.18-.15-.06-.05-.12-.1-.18-.14-.05-.04-.11-.07-.16-.1-.04-.04-.09-.06-.14-.08-.08-.05-.17-.09-.25-.13-.37-.15-.78-.24-1.21-.24-1.72,0-3.12,1.4-3.12,3.12Zm-2.95,55.65h12.17v-18.79h-.79c.49-.87.77-1.88.77-2.96,0-3.35-2.72-6.07-6.07-6.07s-6.07,2.72-6.07,6.07c0,1.07.28,2.09.76,2.96h-.76v18.79Zm4.42,137.64h-7.58v10.37h7.58v-10.37Zm0-10.28h-7.58v7.51h7.58v-7.51Zm.67-49.51h-7.57v19.89h7.57v-19.89Zm0-9.33h-7.57v6.55h7.57v-6.55Zm0-38.8h-7.57v19.89h7.57v-19.89Zm0-7.89h-7.57v5.12h7.57v-5.12Zm9.68,115.82h-7.58v10.37h7.58v-10.37Zm0-10.28h-7.58v7.51h7.58v-7.51Zm.67-49.51h-7.57v19.89h7.57v-19.89Zm0-9.33h-7.57v6.55h7.57v-6.55Zm0-38.8h-7.57v19.89h7.57v-19.89Zm0-7.89h-7.57v5.12h7.57v-5.12Zm7.8,0v5.12h7.58v-5.12h-7.58Zm6.91,113.04v-7.51h-7.58v7.51h7.58Zm-7.58,2.77v10.37h7.58v-10.37h-7.58Zm8.25-39.9v-19.89h-7.58v19.89h7.58Zm0-22.67v-6.55h-7.58v6.55h7.58Zm0-25.46v-19.89h-7.58v19.89h7.58Zm-3.12-49.61v-18.79h-9.11v6.79h9.09v2.69h-9.09v9.31h9.11Zm12.81,176.71h-17.93v17.44h17.93v-17.44Zm0-11.57h-17.93v8.8h17.93v-8.8Zm0-27.5h-7.58v10.37h7.58v-10.37Zm0-10.28h-7.58v7.51h7.58v-7.51Zm.67-49.51h-7.58v19.89h7.58v-19.89Zm0-9.33h-7.58v6.55h7.58v-6.55Zm0-38.8h-7.58v19.89h7.58v-19.89Zm0-7.89h-7.58v5.12h7.58v-5.12Zm6.67,130.77h-.09v1.87h.09v-1.87Zm.02-27.64h-.11v23.29h.09v-11.19h.02v-12.11Zm-.11-22.87v6.98h.09v-6.98h-.09Zm.09-4.35v-12.51h-.09v12.51h.09Zm-.09,18.16v1.94h.09v-1.94h-.09Zm.11-47.36h-.11v12.6h.11v-12.6Zm-.11-14.58v6.08h.09v-6.08h-.09Zm.09-4.35v-21.27h-.09v21.27h.09Zm.02-30.15h-.11v4.79h.11v-4.79Zm0-9.2h-.11v1.65h.11v-1.65Zm3.42-3.53c-1.23-.15-2.28-.85-2.92-1.85h-.62v1.85h3.53Zm7.17,165.24h-6.51v17.97h6.51v-17.97Zm0-33.03h-6.51v15.52h6.51v-15.52Zm0-28.62h-6.51v7.51h6.51v-7.51Zm0-9.67h-6.51v7.51h6.51v-7.51Zm0-15.43h-6.51v13.27h6.51v-13.27Zm0-32.71h-6.51v7.51h6.51v-7.51Zm0-9.67h-6.51v7.51h6.51v-7.51Zm0-14.51h-6.51v12.35h6.51v-12.35Zm8.67,143.63h-6.51v17.97h6.51v-17.97Zm0-33.03h-6.51v15.52h6.51v-15.52Zm0-28.62h-6.51v7.51h6.51v-7.51Zm0-9.67h-6.51v7.51h6.51v-7.51Zm0-15.43h-6.51v13.27h6.51v-13.27Zm0-32.71h-6.51v7.51h6.51v-7.51Zm0-9.67h-6.51v7.51h6.51v-7.51Zm0-14.51h-6.51v12.35h6.51v-12.35Zm31.63-32.81h6.27v-6.5h-6.27v6.5Zm-8.19-6.5v6.5h6.27v-6.5h-6.27Zm-7.53-13.5h12.3v-15.06c0-1.45-.5-2.79-1.35-3.83-.02-.02-.04-.05-.07-.08-.05-.06-.1-.12-.15-.18-.07-.08-.15-.17-.23-.24-.07-.06-.13-.13-.2-.2-.03-.02-.06-.05-.09-.08-.07-.06-.14-.12-.21-.18-.09-.07-.18-.14-.27-.2-.08-.07-.17-.12-.25-.18-.12-.08-.24-.15-.37-.22-.49-.27-1.01-.47-1.56-.59-.11-.03-.21-.05-.32-.07-.12-.02-.25-.04-.38-.05-.11-.01-.23-.02-.34-.03s-.24-.01-.36-.01c-1.07,0-2.09.27-2.96.76-.68.38-1.29.88-1.78,1.48-.88,1.06-1.4,2.43-1.4,3.91v15.06Zm-3.97-28.5h.09v-.1s-.03.03-.04.04c-.02.02-.04.04-.05.06Zm-.88,224.94h-6.97v17.97h6.97v-17.97Zm0-33.03h-6.97v15.52h6.97v-15.52Zm0-28.62h-6.97v7.51h6.97v-7.51Zm0-9.67h-6.97v7.51h6.97v-7.51Zm0-15.43h-6.97v13.27h6.97v-13.27Zm0-32.71h-6.97v7.51h6.97v-7.51Zm0-9.67h-6.97v7.51h6.97v-7.51Zm0-14.51h-6.97v12.35h6.97v-12.35Zm1.21-31.34h-6.27v7.41h6.27v-7.41Zm0-7.96h-6.27v6.5h6.27v-6.5Zm7.91,182.94h-6.97v17.97h6.97v-17.97Zm0-33.03h-6.97v15.52h6.97v-15.52Zm0-28.62h-6.97v7.51h6.97v-7.51Zm0-9.67h-6.97v7.51h6.97v-7.51Zm0-15.43h-6.97v13.27h6.97v-13.27Zm0-32.71h-6.97v7.51h6.97v-7.51Zm0-9.67h-6.97v7.51h6.97v-7.51Zm0-14.51h-6.97v12.35h6.97v-12.35Zm.28-31.34h-6.26v7.41h6.26v-7.41Zm0-7.96h-6.26v6.5h6.26v-6.5Zm2.97,15.38h6.27v-7.41h-6.27v7.41Zm7.8,167.56h-6.97v17.97h6.97v-17.97Zm0-33.03h-6.97v15.52h6.97v-15.52Zm0-28.62h-6.97v7.51h6.97v-7.51Zm0-9.67h-6.97v7.51h6.97v-7.51Zm0-15.43h-6.97v13.27h6.97v-13.27Zm0-32.71h-6.97v7.51h6.97v-7.51Zm0-9.67h-6.97v7.51h6.97v-7.51Zm0-14.51h-6.97v12.35h6.97v-12.35Zm.39-23.92h6.27v-7.41h-6.27v7.41Zm8.74,167.56h-6.97v17.97h6.97v-17.97Zm0-33.03h-6.97v15.52h6.97v-15.52Zm0-28.62h-6.97v7.51h6.97v-7.51Zm0-9.67h-6.97v7.51h6.97v-7.51Zm0-15.43h-6.97v13.27h6.97v-13.27Zm0-32.71h-6.97v7.51h6.97v-7.51Zm0-9.67h-6.97v7.51h6.97v-7.51Zm0-14.51h-6.97v12.35h6.97v-12.35Zm10.87,143.63h-6.79v17.97h6.79v-17.97Zm0-33.03h-6.79v15.52h6.79v-15.52Zm0-28.62h-6.79v7.51h6.79v-7.51Zm0-9.67h-6.79v7.51h6.79v-7.51Zm0-15.43h-6.79v13.27h6.79v-13.27Zm0-32.71h-6.79v7.51h6.79v-7.51Zm0-9.67h-6.79v7.51h6.79v-7.51Zm0-14.51h-6.79v12.35h6.79v-12.35Zm8.39,143.63h-6.23v17.97h6.23v-17.97Zm0-33.03h-6.23v15.52h6.23v-15.52Zm0-26.91h-1.07v-1.71h-5.17v7.51h6.23v-5.81Zm0-11.38h-6.23v7.51h6.23v-7.51Zm0-15.43h-6.23v13.27h6.23v-13.27Zm0-32.71h-6.23v7.51h6.23v-7.51Zm0-9.67h-6.23v7.51h6.23v-7.51Zm0-14.51h-6.23v12.35h6.23v-12.35Zm4.19,96.61h-.12v3.52h0v8.59h.02v17.41h.09v-29.51Zm0-39.72h-.09v23.15h.09v-23.15Zm0-8.6h-.12v4.51h.12v-4.51Zm0-46.21h-.09v29.62h.09v-29.62Zm0-20.16h-.12v5.71h.12v-5.71Zm10.6,168.16c-1.36-.19-2.59-.77-3.59-1.62h-2.45v13.67h6.04v-12.05Zm0-33.89h-6.2v8.94h6.2v-8.94Zm0-11.27h-6.2v8.94h6.2v-8.94Zm0-9.01h-6.2v6.68h6.2v-6.68Zm0-25.93h-6.2v8.94h6.2v-8.94Zm0-11.27h-6.2v8.94h6.2v-8.94Zm0-9.01h-6.2v6.68h6.2v-6.68Zm0-25.93h-6.2v8.94h6.2v-8.94Zm0-11.27h-6.2v8.94h6.2v-8.94Zm0-9.01h-6.2v6.68h6.2v-6.68Zm0-25.93h-6.2v8.94h6.2v-8.94Zm0-11.27h-6.2v8.94h6.2v-8.94Zm0-9.01h-6.2v6.68h6.2v-6.68Zm8.06,191.16h-2.46c-.99.85-2.22,1.43-3.58,1.62v12.05h6.04v-13.67Zm.16-32.27h-6.2v8.94h6.2v-8.94Zm0-11.27h-6.2v8.94h6.2v-8.94Zm0-9.01h-6.2v6.68h6.2v-6.68Zm0-25.93h-6.2v8.94h6.2v-8.94Zm0-11.27h-6.2v8.94h6.2v-8.94Zm0-9.01h-6.2v6.68h6.2v-6.68Zm0-25.93h-6.2v8.94h6.2v-8.94Zm0-11.27h-6.2v8.94h6.2v-8.94Zm0-9.01h-6.2v6.68h6.2v-6.68Zm0-25.93h-6.2v8.94h6.2v-8.94Zm0-11.27h-6.2v8.94h6.2v-8.94Zm0-9.01h-6.2v6.68h6.2v-6.68Zm10.94,193.07c-1.51-.21-2.86-.9-3.89-1.91h-2.15v13.95h6.04v-12.04Zm0-34.18h-6.2v8.94h6.2v-8.94Zm0-11.27h-6.2v8.94h6.2v-8.94Zm0-9.01h-6.2v6.68h6.2v-6.68Zm0-25.93h-6.2v8.94h6.2v-8.94Zm0-11.27h-6.2v8.94h6.2v-8.94Zm0-9.01h-6.2v6.68h6.2v-6.68Zm0-25.93h-6.2v8.94h6.2v-8.94Zm0-11.27h-6.2v8.94h6.2v-8.94Zm0-9.01h-6.2v6.68h6.2v-6.68Zm0-25.93h-6.2v8.94h6.2v-8.94Zm0-11.27h-6.2v8.94h6.2v-8.94Zm0-9.01h-6.2v6.68h6.2v-6.68Zm0-37.2h-6.2v12.31h6.2v-12.31Zm0-12.39h-6.2v10.06h6.2v-10.06Zm8.06,240.75h-2.15c-1.04,1.01-2.38,1.7-3.89,1.91v12.04h6.04v-13.95Zm.16-32.27h-6.2v8.94h6.2v-8.94Zm0-11.27h-6.2v8.94h6.2v-8.94Zm0-9.01h-6.2v6.68h6.2v-6.68Zm0-25.93h-6.2v8.94h6.2v-8.94Zm0-11.27h-6.2v8.94h6.2v-8.94Zm0-9.01h-6.2v6.68h6.2v-6.68Zm0-25.93h-6.2v8.94h6.2v-8.94Zm0-11.27h-6.2v8.94h6.2v-8.94Zm0-9.01h-6.2v6.68h6.2v-6.68Zm0-25.93h-6.2v8.94h6.2v-8.94Zm0-11.27h-6.2v8.94h6.2v-8.94Zm0-9.01h-6.2v6.68h6.2v-6.68Zm0-37.2h-6.2v12.31h6.2v-12.31Zm0-12.39h-6.2v10.06h6.2v-10.06Zm10.93,208.48h-6.2v8.94h6.2v-8.94Zm0-11.27h-6.2v8.94h6.2v-8.94Zm0-9.01h-6.2v6.68h6.2v-6.68Zm0-25.93h-6.2v8.94h6.2v-8.94Zm0-11.27h-6.2v8.94h6.2v-8.94Zm0-9.01h-6.2v6.68h6.2v-6.68Zm0-25.93h-6.2v8.94h6.2v-8.94Zm0-11.27h-6.2v8.94h6.2v-8.94Zm0-9.01h-6.2v6.68h6.2v-6.68Zm0-25.93h-6.2v8.94h6.2v-8.94Zm0-11.27h-6.2v8.94h6.2v-8.94Zm0-9.01h-6.2v6.68h6.2v-6.68Zm0-37.2h-6.2v12.31h6.2v-12.31Zm0-12.39h-6.2v10.06h6.2v-10.06Zm0-20.31h-6.2v10.43h6.2v-10.43Zm0-12.75h-6.2v10.72h6.2v-10.72Zm.89-44.9l-.08-.53v.34c.01.06,0,.13,0,.19h.08Zm7.34,286.44h-6.2v8.94h6.2v-8.94Zm0-11.27h-6.2v8.94h6.2v-8.94Zm0-9.01h-6.2v6.68h6.2v-6.68Zm0-25.93h-6.2v8.94h6.2v-8.94Zm0-11.27h-6.2v8.94h6.2v-8.94Zm0-9.01h-6.2v6.68h6.2v-6.68Zm0-25.93h-6.2v8.94h6.2v-8.94Zm0-11.27h-6.2v8.94h6.2v-8.94Zm0-9.01h-6.2v6.68h6.2v-6.68Zm0-25.93h-6.2v8.94h6.2v-8.94Zm0-11.27h-6.2v8.94h6.2v-8.94Zm0-9.01h-6.2v6.68h6.2v-6.68Zm0-37.2h-6.2v12.31h6.2v-12.31Zm0-12.39h-6.2v10.06h6.2v-10.06Zm0-20.31h-6.2v10.43h6.2v-10.43Zm0-12.75h-6.2v10.72h6.2v-10.72Zm10.93,275.43c-1.36-.19-2.59-.77-3.58-1.62h-2.45v13.67h6.03v-12.05Zm0-33.89h-6.2v8.94h6.2v-8.94Zm0-11.27h-6.2v8.94h6.2v-8.94Zm0-9.01h-6.2v6.68h6.2v-6.68Zm0-25.93h-6.2v8.94h6.2v-8.94Zm0-11.27h-6.2v8.94h6.2v-8.94Zm0-9.01h-6.2v6.68h6.2v-6.68Zm0-25.93h-6.2v8.94h6.2v-8.94Zm0-11.27h-6.2v8.94h6.2v-8.94Zm0-9.01h-6.2v6.68h6.2v-6.68Zm0-25.93h-6.2v8.94h6.2v-8.94Zm0-11.27h-6.2v8.94h6.2v-8.94Zm0-9.01h-6.2v6.68h6.2v-6.68Zm0-37.2h-6.2v12.31h6.2v-12.31Zm0-12.39h-6.2v10.06h6.2v-10.06Zm8.06,240.75h-2.45c-.99.85-2.22,1.43-3.58,1.62v12.05h6.03v-13.67Zm.17-32.27h-6.2v8.94h6.2v-8.94Zm0-11.27h-6.2v8.94h6.2v-8.94Zm0-9.01h-6.2v6.68h6.2v-6.68Zm0-25.93h-6.2v8.94h6.2v-8.94Zm0-11.27h-6.2v8.94h6.2v-8.94Zm0-9.01h-6.2v6.68h6.2v-6.68Zm0-25.93h-6.2v8.94h6.2v-8.94Zm0-11.27h-6.2v8.94h6.2v-8.94Zm0-9.01h-6.2v6.68h6.2v-6.68Zm0-25.93h-6.2v8.94h6.2v-8.94Zm0-11.27h-6.2v8.94h6.2v-8.94Zm0-9.01h-6.2v6.68h6.2v-6.68Zm0-37.2h-6.2v12.31h6.2v-12.31Zm0-12.39h-6.2v10.06h6.2v-10.06Zm10.93,242.37c-1.36-.19-2.59-.77-3.58-1.62h-2.45v13.67h6.03v-12.05Zm0-33.89h-6.2v8.94h6.2v-8.94Zm0-11.27h-6.2v8.94h6.2v-8.94Zm0-9.01h-6.2v6.68h6.2v-6.68Zm0-25.93h-6.2v8.94h6.2v-8.94Zm0-11.27h-6.2v8.94h6.2v-8.94Zm0-9.01h-6.2v6.68h6.2v-6.68Zm0-25.93h-6.2v8.94h6.2v-8.94Zm0-11.27h-6.2v8.94h6.2v-8.94Zm0-9.01h-6.2v6.68h6.2v-6.68Zm0-25.93h-6.2v8.94h6.2v-8.94Zm0-11.27h-6.2v8.94h6.2v-8.94Zm0-9.01h-6.2v6.68h6.2v-6.68Zm8.06,191.16h-2.45c-.99.85-2.22,1.43-3.58,1.62v12.05h6.03v-13.67Zm.17-32.27h-6.2v8.94h6.2v-8.94Zm0-11.27h-6.2v8.94h6.2v-8.94Zm0-9.01h-6.2v6.68h6.2v-6.68Zm0-25.93h-6.2v8.94h6.2v-8.94Zm0-11.27h-6.2v8.94h6.2v-8.94Zm0-9.01h-6.2v6.68h6.2v-6.68Zm0-25.93h-6.2v8.94h6.2v-8.94Zm0-11.27h-6.2v8.94h6.2v-8.94Zm0-9.01h-6.2v6.68h6.2v-6.68Zm0-25.93h-6.2v8.94h6.2v-8.94Zm0-11.27h-6.2v8.94h6.2v-8.94Zm0-9.01h-6.2v6.68h6.2v-6.68Z"/></svg>