<?xml version="1.0" encoding="UTF-8"?><svg id="Layer_1" xmlns="http://www.w3.org/2000/svg" viewBox="0 0 267.12 411.05"><defs><style>.cls-1{fill:#fd0;}</style></defs><path class="cls-1" d="m150.13,134.19c0-3.46-1.04-6.68-2.8-9.38l27.85-27.85,25.22,25.22,66.73-66.73-25.22-25.22-5.21-5.21-94.63,94.63c-2.64-1.65-5.75-2.62-9.09-2.62-3.13,0-6.06.85-8.59,2.32l-27.41-27.41,25.22-25.22L55.46,0l-25.22,25.22-5.21,5.21,93.91,93.91c-1.96,2.79-3.12,6.18-3.12,9.85,0,3.44,1.02,6.64,2.77,9.33l-26.63,26.63-25.22-25.22L0,211.66l25.22,25.22,5.21,5.21,93.4-93.4c2.65,1.67,5.78,2.66,9.14,2.66,3.77,0,7.24-1.23,10.07-3.29l27.11,27.11-25.22,25.22,66.73,66.73,25.22-25.22,5.21-5.21-94.14-94.14c1.38-2.47,2.18-5.32,2.18-8.35Zm87.97-97.15l18.44,18.44-6.85,6.85-18.44-18.44,6.85-6.85Zm-16.06,16.06l18.44,18.44-6.85,6.85-18.44-18.44,6.85-6.85Zm-16.06,16.06l18.44,18.44-6.85,6.85-18.44-18.44,6.85-6.85Zm-16.06,16.06l18.44,18.44-6.85,6.85-18.44-18.44,6.85-6.85ZM37.04,29.03l18.44-18.44,6.85,6.85-18.44,18.44-6.85-6.85Zm16.06,16.06l18.44-18.44,6.85,6.85-18.44,18.44-6.85-6.85Zm16.06,16.06l18.44-18.44,6.85,6.85-18.44,18.44-6.85-6.85Zm16.06,16.06l18.44-18.44,6.85,6.85-18.44,18.44-6.85-6.85ZM29.03,230.08l-18.44-18.44,6.85-6.85,18.44,18.44-6.85,6.85Zm16.06-16.06l-18.44-18.44,6.85-6.85,18.44,18.44-6.85,6.85Zm16.06-16.06l-18.44-18.44,6.85-6.85,18.44,18.44-6.85,6.85Zm16.06-16.06l-18.44-18.44,6.85-6.85,18.44,18.44-6.85,6.85Zm152.86,56.2l-18.44,18.44-6.85-6.85,18.44-18.44,6.85,6.85Zm-16.06-16.06l-18.44,18.44-6.85-6.85,18.44-18.44,6.85,6.85Zm-16.06-16.06l-18.44,18.44-6.85-6.85,18.44-18.44,6.85,6.85Zm-16.06-16.06l-18.44,18.44-6.85-6.85,18.44-18.44,6.85,6.85Z"/><path class="cls-1" d="m110.43,124.73c-4.02,2.2-7.68,4.95-10.9,8.18-5.93,5.92-10.32,13.39-12.51,21.75l5.77,5.77,18.32-18.32c-.88-2.53-1.33-5.2-1.33-7.91,0-2.95.54-5.84,1.57-8.55l-.91-.91Z"/><path class="cls-1" d="m181.67,165.7c-.44-17.34-10.05-32.4-24.14-40.52h-.01l-1.03,1.03c.89,2.55,1.36,5.24,1.36,7.97,0,2.28-.33,4.54-.96,6.73l24.79,24.79Z"/><path class="cls-1" d="m214.9,312.95l-12.6-46.3-66.27-66.24,25.23-25.23-18.62-18.62c-2.8,1.1-5.77,1.67-8.84,1.67-2.62,0-5.22-.42-7.66-1.27l-43.21,43.18-30.73,112.82h-13.48v15.6h10.08v82.49h52.62v-30.73c0-17.75,14.4-32.12,32.12-32.12,8.86,0,16.9,3.59,22.71,9.41,5.82,5.79,9.41,13.85,9.41,22.71v30.73h52.62v-82.49h10.08v-15.6h-13.48Zm-63.77-23.21h-35.57v-25.28c0-9.81,7.96-17.77,17.77-17.77h.02c9.81,0,17.77,7.96,17.77,17.77v25.28Z"/></svg>