<?xml version="1.0" encoding="UTF-8"?><svg id="Layer_1" xmlns="http://www.w3.org/2000/svg" viewBox="0 0 343.36 234.26"><defs><style>.cls-1{fill:#001489;}</style></defs><path class="cls-1" d="m343.36,234.26H2.43v-29.93c-.57-.31-1.3-.88-1.58-1.87-.36-1.26.18-2.71,1.58-4.33v-29.23c-.72-.75-2.29-2.68-2.42-5.56-.13-2.98,1.29-6.03,4.24-9.08v-14.38c-.7-.81-2.49-3.13-3.49-6.64-1.12-3.93-1.41-10.15,3.49-17.57l.03-24.53,1.6-6.11-2.94-10.57.03-.21c.08-.54,2.21-13.4,14.09-29.07C27.99,30.8,49.61,11.3,90.55.17l.64-.17,5.71,7.27-1.1,4.64,6.98,5.67.1.22,14.6,32.58,8.74,2.53,1.32,4.9v28.29l8.3,25.56,12.37-3.47,19.02,7.26,35.23-.44v-5.24l.9-.09c.27-.03,26.91-2.55,57.24.53,28.11,2.86,65.26,11.26,82.56,35.07l.19.26v88.71Zm-338.93-2h336.93v-86.06c-30.95-42.03-126.54-35.45-136.89-34.61v5.39l-37.59.47-18.76-7.16-13.58,3.81-8.99-27.85v-28.31l-.95-3.43-8.56-2.48-14.88-33.2-7.58-6.16,1.17-4.92-4.3-5.47c-22.24,6.12-52.51,18.73-71.78,44.12-10.79,14.21-13.35,26.26-13.67,27.96l2.97,10.66-1.71,6.51v24.75l-.17.25c-8.81,13.08-.47,21.89-.11,22.26l.28.29v.41s0,15.58,0,15.58l-.29.29c-2.72,2.72-4.05,5.36-3.95,7.84.11,2.79,2.05,4.48,2.07,4.49l.35.3v.46s0,30.43,0,30.43l-.27.29c-1.05,1.13-1.56,2.12-1.39,2.72.16.55.92.79.92.8l.73.2v29.34Zm205.08-1.55h-34.76l-.11-1.27c-.03-.29-.06-.57-.06-.85,0-2.02-.02-4.05-.03-6.07-.03-4.61-.07-9.37.06-14.06.15-5.32,2.54-10.24,6.58-13.49,3.95-3.19,9.08-4.48,14.05-3.54,8.38,1.58,14.25,8.68,14.27,17.28.01,4.33,0,8.67,0,13v9.01Zm-32.93-2h30.92v-7.01c0-4.33,0-8.66,0-12.99-.02-7.62-5.22-13.92-12.64-15.32-4.4-.83-8.93.32-12.42,3.14-3.58,2.89-5.7,7.26-5.83,11.99-.13,4.66-.09,9.4-.06,13.99.01,2.03.03,4.06.03,6.08,0,.04,0,.08,0,.12Zm-17.73,1.93h-29.67l.02-1.02c.06-2.56.08-5.15.1-7.65.04-5.85.08-11.9.71-17.78.61-5.76,4.33-10.26,10.21-12.36,4.08-1.45,8.05-.76,11.82,2.06,4.31,3.22,6.65,7.89,6.77,13.51.11,5.19.08,10.47.06,15.58-.01,2.22-.02,4.44-.02,6.67v1Zm-27.62-2h25.62c0-1.9.01-3.79.02-5.68.02-5.09.05-10.36-.06-15.53-.11-5.05-2.11-9.08-5.97-11.96-3.24-2.42-6.5-3.01-9.96-1.77-5.12,1.82-8.36,5.72-8.89,10.68-.61,5.78-.65,11.52-.7,17.59-.02,2.18-.03,4.42-.08,6.67Zm-14.92,1.83l-24-.54-.14-1.3c-.04-.29-.06-.53-.06-.77,0-1.73,0-3.47-.01-5.2-.02-4.2-.04-8.54.07-12.82.12-4.75,1.66-8.87,4.57-12.26,2.24-2.62,5.12-3.95,8.07-3.75,3.17.21,6.18,2.18,8.27,5.4,1.8,2.78,2.86,6.04,3.14,9.68.06.75.09,1.53.09,2.32,0,4.6,0,9.2,0,13.9v5.33Zm-22.19-2.5l20.19.45v-3.29c0-4.71,0-9.3,0-13.9,0-.74-.03-1.47-.08-2.17-.26-3.35-1.18-6.21-2.82-8.75-1.74-2.69-4.19-4.32-6.72-4.49-2.32-.15-4.6.93-6.42,3.05-2.6,3.03-3.97,6.74-4.08,11.01-.11,4.25-.09,8.57-.07,12.76,0,1.74.01,3.47.01,5.21,0,.04,0,.07,0,.11Zm157.86,2.42h-29.01l-.28-.54c-.06-.07-.24-.33-.24-.71,0-2.31-.02-4.62-.04-6.93-.05-5.44-.11-11.06.18-16.58.34-6.54,3.63-11.57,9.27-14.17,6.3-2.9,13.04-.61,17.17,5.85,2,3.11,2.96,6.69,2.96,10.92,0,4.21,0,8.43,0,12.64v9.51Zm-27.53-2h25.53v-7.51c0-4.21,0-8.43,0-12.65,0-3.84-.86-7.06-2.64-9.84-3.62-5.65-9.23-7.61-14.65-5.11-4.93,2.27-7.81,6.7-8.11,12.45-.28,5.46-.23,11.06-.17,16.46.02,2.07.04,4.13.04,6.2Zm41.6,1.62l-.09-1.67c-.03-.43-.05-.79-.05-1.15v-6.76c0-3.27,0-6.53,0-9.8-.01-5.07,1.35-9.47,4.06-13.09,1.82-2.43,4.43-3.97,7.17-4.24,2.56-.24,5.04.64,7.15,2.56,3.33,3.03,5.21,6.75,5.42,10.74.27,5.06.21,10.02.16,15.28-.02,2.16-.05,4.34-.05,6.55v.97l-23.76.6Zm11.91-34.74c-.21,0-.42,0-.63.03-2.18.21-4.27,1.46-5.76,3.44-2.48,3.31-3.68,7.2-3.66,11.88,0,3.27,0,6.54,0,9.8v6.76c0,.25.01.5.03.77l19.88-.5c0-1.88.03-3.75.04-5.6.06-5.22.11-10.15-.15-15.15-.18-3.46-1.83-6.7-4.77-9.37-1.5-1.37-3.21-2.08-4.98-2.08Zm-200.1,34.08l-18.03-.74.04-.99c.07-1.97.12-3.91.17-5.84.12-4.67.23-9.08.64-13.56.39-4.28,2.13-7.82,5.04-10.25,2.86-2.38,6.21-2.06,8.75.84,2.48,2.83,3.91,6.2,4.15,9.75.31,4.64.37,9.36.43,13.93.02,1.84.05,3.68.09,5.52,0,.44-.24.72-.35.86l-.31.44-.6.05Zm-15.96-2.66l15.21.62c-.03-1.6-.05-3.2-.07-4.81-.06-4.54-.12-9.23-.43-13.82-.21-3.11-1.48-6.07-3.66-8.57-1.82-2.08-3.94-2.3-5.96-.62-3.15,2.63-4.09,6.29-4.33,8.89-.4,4.42-.51,8.79-.63,13.43-.04,1.61-.08,3.23-.13,4.87Zm253.8,1.5c-3.12,0-3.78-.78-5.73-4.27l-.48-.85c-2.17-3.83-1.9-7.68-1.64-11.4.06-.86.12-1.72.15-2.58.11-3.19,1.15-6.36,3.19-9.68,1.5-2.45,3.72-3.86,6.07-3.87h.02c2.33,0,4.53,1.38,6.03,3.79,1.95,3.13,3.01,6.34,3.17,9.53.2,4.16.16,8.24.12,12.55-.02,1.77-.04,3.55-.04,5.35v.96l-3.23.14c-1.71.07-3.46.14-5.22.24-.94.05-1.73.09-2.41.09Zm1.57-30.65h-.01c-1.65,0-3.24,1.07-4.38,2.91-1.85,3.02-2.8,5.87-2.89,8.7-.03.88-.09,1.77-.15,2.65-.25,3.59-.48,6.97,1.39,10.28l.48.85q1.91,3.41,6.28,3.17c1.77-.1,3.53-.17,5.25-.25l1.32-.06c0-1.48.02-2.95.03-4.42.04-4.28.08-8.33-.12-12.43-.14-2.84-1.1-5.73-2.87-8.57-1.13-1.81-2.71-2.85-4.33-2.85Zm-270.12,30.56l-13.77-1.04v-.93c0-1.03-.02-2.05-.04-3.06-.04-2.26-.08-4.59.09-6.87.23-3.1.7-6.45,1.48-10.57.29-1.54,1.14-2.97,1.89-4.23.87-1.46,2.14-2.29,3.52-2.29h.05c1.35.02,2.57.85,3.36,2.28,1.06,1.94,1.88,4.02,2.37,6.02,1.2,4.96,1.14,9.86,1.07,15.06-.02,1.5-.04,3.01-.03,4.54v1.09Zm-11.77-2.89l9.76.74c0-1.17.01-2.34.03-3.49.06-5.07.12-9.85-1.02-14.56-.44-1.84-1.2-3.75-2.18-5.53-.44-.79-1.02-1.24-1.63-1.25h-.02c-.65,0-1.3.48-1.79,1.31-.7,1.18-1.42,2.39-1.64,3.59-.77,4.04-1.23,7.32-1.45,10.34-.16,2.19-.12,4.38-.08,6.69.01.72.03,1.44.03,2.17Zm-11.87,1.01l-11.43-1.17-.04-2.33c-.09-4.23-.17-8.61.85-12.87.55-2.29,1.39-4.57,2.44-6.6.72-1.39,1.67-1.62,2.17-1.63.51,0,1.47.17,2.27,1.53,1.05,1.79,2.1,3.72,2.35,5.77.46,3.75.71,7.47.98,11.4.1,1.55.21,3.12.33,4.71l.09,1.19Zm-9.47-2.98l7.29.75c-.09-1.19-.17-2.37-.24-3.53-.26-3.91-.51-7.59-.96-11.29-.21-1.67-1.15-3.39-2.09-5-.25-.42-.46-.53-.5-.54-.03,0-.22.13-.44.55-.97,1.89-1.76,4.01-2.27,6.15-.96,4.01-.88,8.07-.79,12.36v.56Zm-2.13-34.59l.05-1.23c.11-2.53.08-5.1.04-7.59-.08-5.83-.16-11.86,1.63-17.72h0c.38-1.25.96-2.48,1.67-3.56.9-1.36,1.84-1.6,2.44-1.56.59.04,1.43.36,2.09,1.68,1.17,2.33,2.32,4.82,2.54,7.37.4,4.71.56,9.52.72,14.17.06,1.88.13,3.77.2,5.66l.04.88-11.44,1.89Zm3.64-25.96h0c-1.69,5.56-1.62,11.17-1.54,17.11.03,2.12.06,4.29,0,6.47l7.27-1.2c-.06-1.6-.12-3.2-.17-4.79-.15-4.63-.31-9.41-.71-14.07-.19-2.2-1.26-4.49-2.34-6.65-.21-.42-.39-.56-.44-.58-.04.01-.3.15-.64.67-.61.92-1.1,1.97-1.43,3.04Zm18.39,21.86l-.27-.76c-.02-.07-.05-.12-.07-.17-.08-.18-.19-.42-.18-.74.04-2.1.07-4.21.09-6.31.06-5.52.13-11.24.49-16.85.18-2.76,1.53-5.5,2.72-7.92l.11-.23c.7-1.42,1.85-2.27,3.17-2.34,1.44-.08,2.88.8,3.86,2.35,1.75,2.77,2.7,6.08,2.9,10.11.23,4.67.34,9.26.45,14.12.04,2,.09,4.02.15,6.06l.02.9-13.43,1.77Zm6.23-33.32s-.05,0-.07,0c-.58.03-1.1.47-1.48,1.23l-.11.23c-1.16,2.36-2.36,4.8-2.51,7.17-.36,5.56-.43,11.24-.49,16.74-.02,1.91-.04,3.83-.08,5.74l9.89-1.3c-.04-1.74-.08-3.46-.12-5.17-.11-4.84-.21-9.42-.44-14.06-.18-3.68-1.03-6.67-2.59-9.14-.57-.9-1.31-1.43-1.99-1.43Zm286.45,29.88l-18.64-1.93-.08-.81c-.02-.18-.04-.33-.05-.48-.04-.33-.07-.61-.07-.88v-4.78c0-5.05,0-10.1.04-15.15.04-4.42,1.16-8.34,3.34-11.65.85-1.29,2.16-2.49,4.01-3.68,1.98-1.26,4.94-.48,6.75,1.79,1.21,1.52,2.54,3.35,3.18,5.37,1.04,3.29,1.58,6.15,1.66,8.74.16,5.12.13,10.33.1,15.36-.01,1.97-.03,3.93-.03,5.9,0,.24-.03.48-.06.78l-.15,1.42Zm-16.82-3.75l15.03,1.56h0c0-1.98.01-3.95.03-5.92.03-5.01.06-10.2-.1-15.28-.08-2.4-.59-5.08-1.57-8.2-.54-1.71-1.73-3.34-2.83-4.72-1.14-1.43-3.03-2.05-4.11-1.35-1.58,1.01-2.73,2.05-3.42,3.09-1.96,2.98-2.98,6.53-3.01,10.56-.04,5.04-.04,10.09-.04,15.13v4.78c0,.11,0,.23.02.35Zm-247.95,3.56c-.1,0-.21,0-.34,0-.17,0-.38,0-.64,0h-1.03l.03-1.03c.07-2.56.12-5.1.18-7.63.14-6.26.28-12.74.6-19.07.15-2.99,1.39-6.03,3.69-9.06,1.46-1.93,3.54-2.94,5.67-2.78,2.41.18,4.6,1.77,6.01,4.35,2.11,3.87,3.15,8.16,3.18,13.11.02,2.62.01,5.24,0,7.86,0,3.22,0,6.44.02,9.67.01,1.48-.3,2.88-2.7,3.08-3.31.27-6.68.65-9.94,1.01-1.42.16-2.84.32-4.25.47-.15.02-.3.02-.48.02Zm7.7-37.59c-1.36,0-2.64.7-3.62,2-2.05,2.7-3.15,5.37-3.28,7.95-.32,6.3-.46,12.77-.6,19.02-.05,2.2-.1,4.41-.15,6.62.08,0,.15,0,.22-.01,1.42-.15,2.83-.31,4.25-.47,3.27-.37,6.66-.75,10-1.02h0q.87-.07.86-1.06c-.03-3.23-.03-6.46-.02-9.69,0-2.61,0-5.23,0-7.84-.03-4.61-.99-8.59-2.94-12.17-1.08-1.97-2.68-3.18-4.4-3.31-.1,0-.2-.01-.3-.01Zm22.57,34.54v-9.65c.01-5.61.02-11.22-.01-16.82-.03-5.14,1.16-9.4,3.64-13.04,2.05-3.01,4.88-4.77,7.98-4.96,2.92-.19,5.75,1.1,7.96,3.61,2.97,3.38,4.52,7.62,4.61,12.59.1,5.93.07,11.95.05,17.78,0,2.33-.02,4.66-.02,7,0,.21-.02.42-.05.66l-.12,1.12-24.02,1.71Zm12.14-42.48c-.14,0-.27,0-.41.01-2.47.15-4.76,1.6-6.45,4.09-2.24,3.29-3.32,7.18-3.29,11.9.03,5.61.03,11.22.02,16.84v7.5s20.19-1.44,20.19-1.44c0-2.3.01-4.6.02-6.91.02-5.82.05-11.83-.05-17.74-.08-4.55-1.42-8.25-4.11-11.3-1.68-1.91-3.77-2.94-5.92-2.94Zm25.36,39.99l-.12-1.35c-.04-.35-.07-.7-.07-1.04v-9.99c0-5.73,0-11.46-.01-17.18-.01-5.93,2.03-10.76,6.07-14.35,5.08-4.51,12.23-4.5,17.38.02,3.97,3.49,6.01,8.2,6.05,14.01.05,6.73.04,13.56.03,20.17v7.16c0,.22-.04.44-.08.7-.02.09-.03.19-.05.3l-.11.85-29.08.72Zm14.52-45.33c-2.57,0-5.14.97-7.32,2.9-3.65,3.24-5.42,7.44-5.4,12.85.01,5.73.01,11.46.01,17.19v9.99c0,.12,0,.24.01.35l25.5-.63v-7.05c.02-6.61.03-13.44-.02-20.16-.04-5.29-1.79-9.38-5.37-12.52-2.22-1.95-4.82-2.93-7.41-2.93Zm107.59,44.56h-28.87l-.21-.71c-.02-.05-.04-.1-.05-.15-.07-.19-.16-.44-.16-.75,0-3.07-.01-6.14-.03-9.21-.04-7.43-.09-15.12.2-22.67.25-6.65,3.65-11.73,9.57-14.3,5.94-2.58,12.34-.59,16.3,5.07,2.27,3.25,3.45,6.82,3.49,10.63.08,7.39.06,14.91.04,22.17,0,2.59-.01,5.17-.01,7.76,0,.32-.04.62-.09.9-.02.12-.04.25-.06.39l-.11.88Zm-27.3-2h25.54c0-.06,0-.11,0-.17h0c0-2.59,0-5.18.01-7.76.02-7.26.03-14.77-.04-22.15-.04-3.4-1.09-6.6-3.12-9.51-3.39-4.84-8.84-6.56-13.86-4.38-5.18,2.25-8.15,6.7-8.37,12.54-.28,7.51-.24,15.18-.19,22.59.02,2.95.03,5.89.03,8.84Zm-14.92,1.75h-34.73l-.13-1.31c-.04-.33-.07-.64-.07-.96v-7.87c-.02-6.96-.03-14.17.01-21.25.03-4.88,1.98-9.39,5.49-12.72,3.53-3.34,8.17-5.06,13.08-4.82,6.79.33,13.19,5.21,15.21,11.62.69,2.17,1.06,4.38,1.08,6.39.08,6.83.07,13.78.06,20.5,0,2.45,0,4.89,0,7.34v3.07Zm-32.92-2h30.92v-1.07c0-2.45,0-4.89,0-7.34.01-6.71.02-13.65-.06-20.47-.02-1.82-.36-3.83-.99-5.81-1.78-5.63-7.42-9.93-13.4-10.22-4.36-.21-8.48,1.31-11.61,4.27-3.11,2.95-4.84,6.95-4.87,11.28-.04,7.08-.03,14.28-.02,21.24v7.87c0,.09.01.18.02.27Zm118.36-3.79l-16.11-2.28c-.34-.05-.68-.11-1.02-.17-.76-.13-1.47-.26-2.15-.24-2.64.11-3.29-1.6-3.6-3.08-.15-.72-.31-1.44-.47-2.16-.69-3.08-1.39-6.26-1.21-9.63.2-3.58.78-8.23,3.54-12.38,1.96-2.95,4.62-4.8,7.49-5.2,2.58-.36,5.14.46,7.4,2.39,2.84,2.41,4.6,5.51,5.09,8.97.59,4.16.83,8.35,1,11.91.11,2.42.08,4.8.06,7.32-.01,1.11-.02,2.24-.02,3.4v1.15Zm-19.11-4.69c.8,0,1.57.14,2.32.27.32.06.63.11.95.16l13.84,1.96c0-.76.01-1.52.02-2.27.03-2.49.05-4.85-.06-7.21-.16-3.51-.4-7.65-.98-11.72-.42-2.97-1.94-5.64-4.4-7.73-1.82-1.55-3.84-2.21-5.83-1.93-2.3.32-4.47,1.86-6.11,4.33-2.49,3.75-3.02,8.05-3.21,11.38-.17,3.1.48,6.01,1.16,9.09.16.73.32,1.46.48,2.19.27,1.33.6,1.51,1.57,1.49.08,0,.17,0,.25,0ZM12.48,143.44v-1.47c0-1.08-.02-2.16-.03-3.24-.07-6.66-.13-12.95,1.75-19.27.21-.71.53-1.63,1.11-2.36,1.11-1.4,1.99-2.22,2.94-1.98,1.2.29,2.46,1.44,2.81,2.57.79,2.55,1.77,5.71,2.13,8.86.32,2.78.31,5.61.3,8.35,0,.79,0,1.58,0,2.36,0,.72-.45,1.92-1.32,2.29h0c-2.01.87-4.05,1.67-6.2,2.51l-3.49,1.38Zm5.5-26.31c-.17.13-.5.44-1.11,1.21-.37.46-.6,1.14-.76,1.69-1.79,6.04-1.73,12.18-1.66,18.68,0,.6.01,1.2.02,1.79l.77-.3c2.11-.83,4.11-1.61,6.06-2.45.08-.11.18-.36.19-.48,0-.79,0-1.59,0-2.38,0-2.68.02-5.45-.29-8.11-.34-2.96-1.29-6.03-2.06-8.5-.12-.39-.69-.94-1.17-1.15Zm3.4,20.59s0,0,0,0c0,0,0,0,0,0h0Zm12.24-3.24l.1-1.47c.22-3.3.16-6.63.09-9.86-.12-5.91-.24-12.02,1.42-17.97.6-2.16,1.43-4.39,3.45-6,1.42-1.13,3.03-1.09,4.11.12,1.04,1.17,2.11,2.43,2.69,3.92,1.43,3.66,2.12,7.63,2.12,12.17,0,1.33,0,2.65,0,3.97,0,2.91,0,5.83-.03,8.74h0c0,.73-.44,1.96-1.33,2.27-2.79.96-5.61,1.86-8.59,2.82l-4.01,1.28Zm7.15-34.11c-.21,0-.48.09-.84.38-1.49,1.19-2.18,2.85-2.77,4.97-1.58,5.67-1.46,11.37-1.35,17.4.05,2.8.11,5.67-.02,8.57l1.23-.39c2.92-.93,5.67-1.81,8.39-2.75.07-.13.14-.35.14-.46.04-2.9.04-5.81.03-8.71,0-1.33,0-2.65,0-3.98,0-4.27-.64-8.01-1.98-11.43-.47-1.19-1.4-2.29-2.32-3.32-.08-.09-.24-.27-.53-.27Zm19.98,25.88l-.14-1.65c-.03-.32-.06-.59-.06-.86,0-2.01,0-4.03-.02-6.04-.02-5.04-.04-10.25.04-15.37.09-5.7,1.5-10.13,4.32-13.54,1.63-1.98,3.43-2.97,5.26-2.92,1.92.04,3.82,1.22,5.48,3.41,2.35,3.09,3.63,6.87,3.73,10.91.11,4.83.09,9.77.07,14.55-.01,2.06-.02,4.12-.02,6.21v.79l-18.68,4.52Zm9.32-38.39c-1.2,0-2.42.74-3.62,2.2-2.55,3.1-3.78,7-3.87,12.3-.08,5.11-.06,10.31-.04,15.33,0,2.02.02,4.03.02,6.05h0s14.87-3.59,14.87-3.59c0-1.82.01-3.63.02-5.43.02-4.98.05-9.69-.07-14.5-.08-3.62-1.23-6.99-3.32-9.75-.89-1.18-2.3-2.59-3.93-2.62h-.06Zm22.68,30.83l-.1-1.08c-.02-.17-.03-.32-.05-.47-.04-.37-.08-.71-.08-1.05,0-2.17-.01-4.34-.02-6.51-.02-5.57-.04-11.32.05-16.99.09-5.46,1.58-9.81,4.55-13.28,2.26-2.65,5.13-4.02,8.08-3.91,2.99.13,5.79,1.8,7.87,4.71,2.33,3.26,3.63,7.08,3.76,11.04.16,5.28.13,10.65.1,15.84-.01,2.19-.03,4.38-.03,6.57v.84l-24.12,4.29Zm12.06-41.3c-2.22,0-4.41,1.14-6.19,3.22-2.65,3.11-3.98,7.04-4.07,12.02-.1,5.64-.07,11.39-.05,16.94,0,2.17.02,4.34.02,6.51,0,.09,0,.17,0,.26l20.34-3.62c0-1.92.01-3.83.03-5.75.03-5.18.07-10.53-.1-15.77-.11-3.61-1.25-6.95-3.38-9.94-1.72-2.4-3.96-3.78-6.33-3.88-.09,0-.19,0-.28,0Z"/></svg>