<?xml version="1.0" encoding="UTF-8"?><svg id="Layer_1" xmlns="http://www.w3.org/2000/svg" viewBox="0 0 277.12 357.37"><defs><style>.cls-1{fill:#001489;}</style></defs><path class="cls-1" d="m271.54,357.37h-44.72v-29.39c0-.69-.1-1.35-.3-1.99h-9.68l7.05-1.96c.41-.11.83-.19,1.26-.24-1.12-1.33-2.75-2.14-4.47-2.15-2.32.02-4.46,1.5-5.43,3.75-.35.82-.53,1.69-.53,2.6v29.39H53.84v-23.71h-15.93v23.71H3.65v-35.28h-1.23v-3.71H.95v-5.76h2.7v-3.07h-1.43v-6.35h1.43v-30.35h-1.23v-3.07H.95v-5.76h2.7v-4.98h-1.43v-6.35h1.43v-27.2l-2.7-.02v-5.76h1.47v-3.76h1.23v-5.03h-1.43v-6.35h1.43v-28.15l-2.7-.02v-2.64h-.95v-4.44h2.42v-2.44h1.23v-5.03h-1.43v-4.44h1.43v-2.44h1.21v-5.08h2.76c-.63-1.29-.96-2.71-.96-4.18,0-5.25,4.27-9.53,9.53-9.53.74,0,1.48.08,2.19.25v-16.31h-1.55v-2.34h-3.48v-4.34h2.81v-2.21h.99v-1.75h.49l.74-11.53v-1.55s.19-.09.19-.09c-.27-.38-.43-.84-.43-1.33,0-1.25,1.02-2.27,2.27-2.27s2.27,1.02,2.27,2.27c0,.49-.15.95-.43,1.33l.19.09v1.54s.74,11.53.74,11.53h.18c.37-.82.69-1.67.96-2.56,1.38-4.45,5.27-7.55,9.84-7.97v-4.81h-.49v-1.65h-1.61v-2.34h-1.61v-4.34h.95v-1.14l5.15-2.68c.22-2.36,1.48-4.52,3.4-5.89v-1.79h-.21v-3.39h2.13v-1.4h.32c-.23-.55-.35-1.15-.35-1.77v-4.63h-.65c-.79,0-1.54-.34-2.07-.92-.53-.58-.79-1.37-.71-2.15.14-1.41,1.4-2.51,2.86-2.51.31,0,.57-.25.57-.57v-.59c0-1.14.44-2.22,1.22-3.04v-2.07c0-.92.4-1.81,1.1-2.42.7-.61,1.62-.89,2.54-.77,1.59.21,2.79,1.62,2.79,3.27v1.84c.14.03.27,0,.41-.05.38-.16.8-.25,1.22-.25,1.74,0,3.16,1.42,3.16,3.16v7.24c0,1.74-1.42,3.16-3.16,3.16h0c-.16,0-.25.07-.29.11-.04.04-.11.13-.11.27v1.02c0,.58-.11,1.14-.33,1.66h.07v1.4h2.13v3.39h-.26v1.8c1.91,1.37,3.15,3.5,3.38,5.86l5.17,2.69v1.14h.95v4.34h-1.61v2.34h-1.61v1.65h-.49v4.81c4.57.42,8.45,3.52,9.84,7.97.28.89.6,1.75.96,2.56h.18l.74-11.53v-1.54s.19-.09.19-.09c-.27-.37-.43-.83-.43-1.33,0-1.25,1.02-2.27,2.27-2.27.05,0,.1,0,.16,0,1.34-.13,2.43.96,2.43,2.27,0,.57-.21,1.08-.55,1.48v1.48s.74,11.53.74,11.53h.49v1.75h.99v2.21h2.81v4.34h-3.48v2.34h-1.55v16.38c.79-.21,1.6-.31,2.42-.31,5.25,0,9.53,4.27,9.53,9.53,0,1.47-.33,2.89-.97,4.18h2.77v5.08h.79c.91-.83,2.11-1.34,3.41-1.34.15,0,.31,0,.45.02.18.02.38.04.56.08l.17.04c.09.02.19.05.28.08l.22-1.21c.14-.81.28-1.55.4-2.2l.22-1.08c.08-.34.15-.63.22-.85l.03-.1c.04-.13.09-.26.13-.39l.05-.12c.04-.12.09-.23.14-.34.07-.18.15-.35.22-.5l.06-.12.92.4-.87-.51c.04-.09.09-.17.14-.26l.36-.61c.06-.08.11-.16.16-.23l.92.43-.82-.57.71-.9c.12-.14.2-.23.29-.32l.09-.09.76.66-.69-.73.17-.17c.12-.11.22-.21.32-.3l.12-.1c.1-.09.17-.15.25-.21l.09-.07s.04-.03.06-.05h.01s0,0,0,0v.02s.7.68.7.68l-.62-.79.98-.67v-3.02h-2.77v-3.53h-.98v-5.52h.78v-2.08h.91v-.9l.46-.69.67-10.47v-1.44s.14-.07.14-.07c-.02-.04-.05-.07-.07-.11l-.1-.18s0,0,0,0c0,0-.01-.03-.03-.07l-.13-.41c-.03-.15-.05-.29-.05-.42,0-1.2.97-2.17,2.17-2.17s2.17.97,2.17,2.17c0,.09,0,.18-.02.27l-.1,1.23h-.1v1.26l.5,7.76.43-2.38c.16-.91.31-1.75.45-2.48.18-.92.31-1.5.44-1.89.11-.35.25-.72.43-1.13l.25-.54.95.34-.89-.45.08-.16s.03-.07.08-.14l.19-.31c.08-.14.15-.25.23-.36.13-.19.22-.31.32-.44l.2-.26c.12-.14.23-.28.35-.41,0-.01.06-.08.12-.14.15-.15.24-.25.33-.35l.4-.38c.1-.08.19-.17.29-.25.14-.12.22-.19.3-.25l.18-.13.68.74-.59-.81c.1-.07.2-.14.3-.21l.1-.06.58.81-.49-.87.62-.36c.23-.12.46-.24.7-.35v-2.97h-1v-5.64s.76-.38.76-.38h.58s-.02-.05-.03-.08l-.16-.45c-.06-.17-.12-.4-.17-.65-.02-.07-.03-.15-.04-.22-.01-.07-.02-.14-.03-.21v-.1c-.03-.23-.04-.42-.04-.62,0-3.31,2.69-6,6-6,.06,0,.13,0,.2,0,.07,0,.14,0,.21.01l.02,1.01.1-1,.19.02c.08,0,.16.01.23.03.05,0,.09.01.14.02h.14l.26.09c.08.02.19.05.29.08l.29.1c.08.03.16.06.24.1l-.3.96.4-.92.42.2v-2.92h-.44v-1.51h-1.47v-2.14h-1.47v-4.14h.87v-1.01l4.81-2.51v-.39h.22s.02-.06.03-.09l.24-.66h0s.11-.27.11-.27c.08-.17.13-.28.18-.39l.05-.09s.02-.03.03-.05l.11-.21c.08-.16.17-.29.25-.42l.06-.09.87.49-.8-.6.12-.18s.06-.08.1-.13c.16-.21.3-.39.45-.56.34-.39.7-.74,1.08-1.05l-.11-.07v-2.04h-.2v-3.28h1.95v-.51l.31-.63-.03-.06c-.02-.05-.04-.09-.05-.13l-.03-.09c-.04-.12-.08-.26-.12-.41l-.05-.27s-.02-.13-.03-.2l-.02-.17c-.01-.15-.01-.25-.01-.34v-4.16h-.51c-.84,0-1.63-.41-2.13-1.1-.38-.53-.55-1.16-.49-1.8.05-.51.25-.98.58-1.38.51-.62,1.31-1,2.13-1,.16,0,.26-.08.3-.13.05-.05.13-.15.13-.31v-.54c0-1.05.4-2.05,1.11-2.82v-1.86c0-1.28.81-2.42,2.02-2.85l.22-.07c.4-.11.8-.13,1.19-.08.76.1,1.45.5,1.94,1.12.44.55.68,1.25.68,1.95v1.61s.06,0,.09,0c.05,0,.1-.02.16-.05.11-.04.21-.07.32-.1.22-.06.41-.1.61-.11.28-.04.55-.01.82.04,1.38.28,2.38,1.51,2.38,2.92v6.62c0,1.64-1.33,2.98-2.98,2.98-.04,0-.12.01-.16.04-.08.05-.12.14-.12.22v.94c0,.11,0,.22-.01.33l-.02.15c-.03.3-.11.63-.23.95h.02v1.28h1.95v3.28s-.24,0-.24,0v1.91l-.17.17c.09.08.19.16.28.24.24.22.45.42.64.63.03.02.06.06.1.1l.26.31s.03.04.05.06l.08.09c.06.08.12.15.17.23l.25.36c.1.15.19.29.27.44.1.17.16.29.22.4l.15.32c.07.15.14.31.2.47l.1.26s.01.03.02.06v.02s0,0,0,0l.05.15s0,.03.01.05l.06.2s.04.11.05.18c0,.03.02.07.03.1l4.98,2.59v1.01h.87v4.14h-1.47v2.14h-1.47v1.51h-.44v2.81c.08-.04.13-.06.18-.08l.13-.06.47.89-.38-.93.1-.04s.1-.04.15-.05c.09-.03.17-.06.25-.08.12-.04.27-.08.41-.11l.91-.13c.12,0,.24,0,.36,0,3.31,0,6,2.69,6,6,0,.2,0,.39-.03.58v.14c-.02.07-.03.14-.04.21-.01.07-.02.14-.04.21l-.11.46-.97-.24.94.34c-.07.23-.11.36-.17.48-.02.05-.04.09-.05.13h.74l.84.28v5.74s-.99,0-.99,0v2.89s.08.04.13.06l.09.04c.08.03.21.09.33.16.11.05.22.11.34.18l.35.2c.22.13.41.26.6.39h.03l.27.22c.17.13.31.24.44.35l.14.12h0s.23.21.23.21l-.56.85.66-.75s.07.07.11.1l.11.12s.13.13.21.22c.04.04.1.1.15.17l.08.09c.15.18.24.28.32.39l.2.25c.11.14.18.24.25.34.09.13.16.23.22.33.1.16.16.26.22.37l.06.12c.12.22.22.4.31.59.04.09.08.15.1.22v.03c.04.06.07.12.09.18.15.37.27.68.38,1.01.11.35.23.85.37,1.57l.07.32-.96.34.98-.19.26,1.43c.05.32.11.65.17.99.03.15.06.3.08.46l.32,1.78c.04.21.08.42.12.63l.54-8.42v-1.46s.13-.06.13-.06c-.07-.11-.13-.22-.18-.34l-.05-.12c-.03-.11-.05-.17-.06-.23l-.03-.12c-.02-.11-.03-.24-.03-.37,0-1.2.97-2.17,2.17-2.17s2.17.97,2.17,2.17c0,.12-.01.25-.03.37l-.1.38s0-.01,0-.01c0,0-.02.04-.03.08l-.14.28s-.03.05-.04.07l.13.06v1.52l.67,10.4h.46v1.6h.91v2.08h.78v5.52h-.99v2.83l-.46.7h-2.65v3.14l.33.22s0,0,0,0l.34.24c.09.07.2.15.3.24l.21.17c.08.07.17.15.27.23l1.03,1.07s.06.08.09.11c.1.12.19.24.28.36l.37.52c.07.1.13.21.2.31l.06.1c.09.16.14.24.18.31,0,0,.04.06.08.15l.15.3c.07.13.13.28.19.42l.14.34c.04.09.08.2.12.31.04.11.1.26.14.42,0,.02.03.09.05.16.12.43.22.91.33,1.47l.07.35-.96.29.98-.18.2,1.07c.02.1.04.21.05.32.05.29.11.62.17.95h0s.02.1.03.2l.12.7c.09-.03.18-.05.27-.07l.16-.04c.17-.04.38-.07.59-.09.13-.01.29-.02.44-.02,1.4,0,2.68.58,3.59,1.5v-16.87h-1.46v-3.38h-1.92v-5.65h4.83v-4.49h-1.68v-3.38h-2.65v-5.64h4.34v-3.49h2.28c-.17-.74-.26-1.49-.26-2.24,0-5.19,4.04-9.45,9.14-9.8v-12.56h-5.16v-2.25h-1v-4.24h1v-1.9h.93v-1.63h.47l.69-10.72v-1.48s.14-.07.14-.07c-.24-.35-.37-.77-.37-1.22,0-1.21.98-2.19,2.19-2.19s2.19.98,2.19,2.19c0,.44-.14.86-.37,1.22l.15.07v1.48s.69,10.72.69,10.72h.47v.09c.61-1.57,2.14-2.69,3.93-2.69.45,0,.9.07,1.33.22.04-.22.08-.45.12-.66.28-1.56.49-2.8.71-3.48,1-3.22,3.77-5.5,7.05-5.93v-8.64h-3.51v-2.25h-1.69v-4.24h3.82v-2h.93v-1.63h.47l.69-10.72v-1.48s.14-.07.14-.07c-.24-.35-.37-.77-.37-1.21,0-1.21.98-2.19,2.19-2.19s2.19.98,2.19,2.19c0,.44-.14.86-.37,1.21l.15.07v1.55l.62,9.74c.01-5.07,3.89-9.25,8.83-9.75v-4.24h-.35v-1.2h-1.17v-1.7h-1.17v-3.7h.69v-.72l3.95-2.06c.38-1.38,1.16-2.62,2.24-3.57v-1.44h-1.27v-3.01h.7v-1.01h.57c.21-1.51.31-1.76.37-1.9.14-.34.39-.6.73-.74l.38-2.07-.28-.22v-.94l-.52-.45.52-.2v-.53l1.05.13.41-.16-1-1.75c-.37-.66-.17-1.49.46-1.89l.84-.54c.04-.13.07-.26.09-.34.05-.41.32-.73.82-.96l1.06-.49.59,2.08c.18-.1.38-.17.59-.18.37-.02.7.08.95.25,1.9.05,2.2.14,2.3.17.43.12,1.14.56.89,2.08-.07.43-.38.9-1.04,1.04l.65.55-.04.11.43.3.09-.08c.42-.39,1.02-.5,1.53-.28l.38.16c.35.14.63.43.77.78l.37.91.68.31c.28.14.49.33.64.58l1.81,3.18-2.92-.56c-.43-.09-.79-.36-.99-.74l-.06-.12c-.42-.02-.81-.24-1.06-.57l-.14-.19-.16.17-.48,1.09c-.1.24-.29.46-.53.62l-.91.59-.06.79h.9v1.01h.7v3.01h-1.3v1.45c1.07.94,1.85,2.17,2.22,3.55l3.97,2.07v.72h.69v3.7h-1.17v1.7h-1.17v1.2h-.35v4.24c4.49.46,8.09,3.94,8.73,8.37l.54-8.42v-1.48s.14-.07.14-.07c-.24-.35-.37-.77-.37-1.21,0-1.21.98-2.19,2.19-2.19s2.19.98,2.19,2.19c0,.44-.14.86-.37,1.22l.15.07v1.48s.68,10.72.68,10.72h.47v1.63h.93v2h4.3v4.24h-1.69v2.25h-3.51v8.62c3.33.39,6.14,2.68,7.16,5.95.21.68.43,1.93.71,3.5.04.2.07.4.11.61.39-.12.8-.18,1.22-.18,1.79,0,3.33,1.12,3.93,2.7v-.09h.47l.68-10.72v-1.48s.14-.07.14-.07c-.24-.35-.37-.77-.37-1.22,0-1.21.98-2.19,2.19-2.19s2.19.98,2.19,2.19c0,.44-.14.86-.37,1.22l.15.07v1.48s.69,10.72.69,10.72h.47v1.63h.93v1.9h.99v4.24h-1v2.25h-5.16v12.55c5.21.24,9.37,4.55,9.37,9.82,0,.76-.09,1.51-.26,2.24h2.05v3.49h4.33v5.64h-2.65v3.38h-1.68v4.49h4.83v5.65h-1.92v3.38h-1.79v32.67h5.58v5.65h-2.77v3.38h-1.02v7.42h-1.79v29.76h5.58v5.65h-2.77v3.38h-1.02v7.42h-1.79v29.76h5.58v5.65h-2.77v3.38h-1.02v7.42h-1.79v29.76h5.58v5.65h-2.77v3.38h-1.02v7.42h-1.79v31.38Zm-42.72-2h40.72v-31.38h1.79v-7.42h1.02v-3.38h2.77v-1.65h-5.58v-33.76h1.79v-7.42h1.02v-3.38h2.77v-1.65h-5.58v-33.76h1.79v-7.42h1.02v-3.38h2.77v-1.65h-5.58v-33.76h1.79v-7.42h1.02v-3.38h2.77v-1.65h-5.58v-36.67h1.79v-3.38h1.92v-1.65h-4.83v-8.49h1.68v-3.38h2.65v-1.64h-4.33v-3.49h-2.88l.54-1.37c.37-.93.55-1.89.55-2.88,0-4.32-3.51-7.83-7.83-7.83-.11,0-.23,0-.34.02l-1.21.07v-16.62h5.16v-2.25h1v-.24h-.99v-1.9h-.93v-1.63h-.8v-2.64h.29l-.58-9.02h-.06l-.57,9.02h.29v2.64h-.8v1.63h-.93v1.9h-8.33l4.23-1.91c.79-.36,1.31-1.15,1.31-2.02,0-1.22-.99-2.21-2.21-2.21-.49,0-.96.16-1.35.47l-1.3,1.01-.3-1.62c-.12-.66-.24-1.32-.35-1.94-.24-1.38-.47-2.69-.65-3.25-.86-2.75-3.37-4.6-6.25-4.6h-1v-12.57h3.51v-2.25h1.69v-.24h-4.3v-2h-.93v-1.63h-.8v-2.65h.29l-.58-9.01h-.06l-.58,9.01h.29v2.65h-.8v1.63h-.93v2h-5.4l1.31-1.63c1.13-1.41,1.73-3.1,1.73-4.9,0-4.32-3.51-7.83-7.83-7.83h-1v-8.19h.35v-1.2h1.17v-1.7h.47v-1.2l-3.73-1.94-.09-.47c-.3-1.49-1.23-2.78-2.57-3.54l-.5-.29v-2.06h.7v-1.97l.6-.02v-.91l-.65.28-.3-.69.14-1.91c.03-.44.27-.84.64-1.08l1.01-.66.35-.8-.28-1.29-.36-.25h-1.66l.46-1.15-1.88-1.58-.07.09-.08-.1-.26,2.03-.39-.39.12,1.1.99.85-1.18-.14h0v2.47l-.74-.42c-.11.25-.25.5-.39.7l.76,2.22-2.15-.99s-.04-.02-.06-.03c-.06.33-.14.88-.25,1.77l-.11.87-.33.02h.57v1.98s.51,0,.51,0l-.08,2.19-.44.27c-1.24.77-2.11,2.02-2.39,3.44l-.09.47-3.71,1.93v1.2h.47v1.7h1.17v1.2h.35v8.19h-1c-4.32,0-7.83,3.51-7.83,7.83,0,1.8.6,3.5,1.73,4.9l1.31,1.63h-5.58v-2h-.93v-1.63h-.8v-2.65h.29l-.61-9.49-.61,9.49h.29v2.65h-.8v1.63h-.93v2h-3.82v.24h1.69v2.25h3.51v12.56l-.98.02c-2.84.05-5.31,1.89-6.15,4.6-.17.56-.4,1.86-.65,3.24-.12.65-.24,1.34-.37,2.04l-.32,1.68-1.31-1.1c-.4-.34-.9-.52-1.42-.52-1.22,0-2.21.99-2.21,2.21,0,.87.51,1.66,1.3,2.02l4.23,1.91h-8.32v-1.9h-.93v-1.63h-.8v-2.64h.29l-.58-9.02h-.06s-.58,9.02-.58,9.02h.29v2.64h-.8v1.63h-.93v1.9h-1v.24h1v2.25h5.16v16.58l-1.31-.04c-4.32,0-7.83,3.51-7.83,7.83,0,.98.19,1.95.55,2.88l.54,1.37h-3.11v3.49h-4.34v1.64h2.65v3.38h1.68v8.49h-4.83v1.65h1.92v3.38h1.46v27.44h-5.09l-.12-1.99c.92-.12,1.72-.63,2.21-1.42l.12-.21c.06-.14.09-.2.12-.27l.04-.1c.02-.06.04-.11.05-.16l.03-.12.63.1v-.05l-.6-.18c.04-.19.05-.34.06-.5v-.11c0-1.69-1.36-3.06-3.05-3.06-.08,0-.17,0-.25.01-.14.01-.27.03-.4.06-.19.05-.31.08-.43.13l-.09.04c-.18.07-.35.16-.5.27l-1.55,1.01v-1.8s-.37-2.01-.37-2.01c-.07-.35-.13-.7-.18-1.03-.01-.1-.03-.17-.04-.23l-.28-1.51c-.1-.51-.19-.94-.28-1.26l-.05-.17c-.04-.14-.07-.22-.11-.31-.04-.12-.07-.19-.1-.27l-.13-.32c-.04-.1-.07-.17-.1-.24l-.44-.82c-.03-.05-.08-.12-.12-.18l-.25-.35c-.13-.18-.21-.28-.29-.38l-.85-.9-.28-.24.54-.85-.66.75c-.14-.11-.22-.18-.3-.24l-.41-.28h-.71v-.42s-.36-.2-.36-.2v-6.31h3.12v-2.11s-1.41-1.41-1.41-1.41h2.4v-1.52h-4.71l-.41-.41-.81-1.61h5.14v-.06h-.91v-1.6h-.78v-2.63h.28l-.57-8.9-.57,8.9h.28v2.63h-.78v1.6h-2.08l-.23-.68c-.03-.09-.06-.18-.08-.27l-.12-.45c-.08-.28-.15-.56-.22-.85-.05-.24-.11-.46-.16-.69l-.28-1.33c-.13-.62-.24-1.18-.34-1.73l-.31-1.72c-.02-.15-.05-.28-.07-.42-.07-.36-.13-.71-.18-1.03l.96-.33-.98.18-.3-1.62c-.15-.72-.25-1.17-.34-1.44-.08-.26-.18-.52-.29-.77l-.16-.35c-.1-.2-.18-.35-.26-.5l-.05-.1c-.06-.11-.11-.19-.16-.27l-.07-.12s-.05-.09-.08-.12l-.06-.09c-.04-.06-.11-.15-.17-.24l-.18-.23c-.07-.08-.14-.17-.21-.26l-.22-.25c-.06-.07-.12-.12-.17-.18l-.5-.47c-.07-.06-.13-.11-.2-.17h-.06l-.25-.24c-.2-.15-.41-.28-.62-.41l-.31-.18c-.1-.06-.19-.1-.29-.15-.13-.07-.17-.09-.22-.11l-.76-.31c-.13-.05-.27-.09-.41-.13l-.75-.19c-.1-.02-.19-.04-.28-.05l-1.03-.17v-1.94h1.8v-4.02h.99v-2.02h-3.61s1.49-1.67,1.49-1.67c.15-.17.28-.35.4-.54l.06-.1c.04-.07.08-.14.12-.21l.95.33-.9-.43c.03-.07.07-.14.1-.22.06-.14.09-.23.11-.31,0,0,0,0,0,0,0,0,.01-.05.03-.11l.03-.1,1,.13-.97-.23.08-.53c0-.09.01-.21.01-.33,0-2.22-1.78-4-4.05-4-.05,0-.11,0-.16,0l-.14.02-.21-.98.08,1-.29.04c-.15.03-.24.05-.31.07l-.29.09-.49-.88.38.93-.52-.87.42.91-.21.09-.19.19h-.14l-.58.43-.69-.52.61.59-.08.08-1.71,1.71-.04-2.38v-6.74h.44v-1.51h1.47v-2.14h1.47v-.14h-.87v-1.79l-4.73-2.46-.33-1.34s0,0,0,0l-.07-.19c-.07-.17-.12-.28-.16-.38l-.05-.05-.09-.25c-.05-.09-.09-.18-.14-.27-.1-.18-.15-.26-.21-.35l-.2-.29c-.09-.12-.16-.22-.23-.31l-.28-.31c-.17-.18-.33-.34-.49-.48-.39-.34-.78-.63-1.19-.86l-.5-.29v-2.19h.88v-1.78h-1.71v-2.28h.07-1v-.52l.46-.34c.21-.2.36-.39.47-.6l.09-.19c.07-.18.12-.38.14-.57v-.07s.01-.1.01-.15v-.94c0-.76.38-1.46,1-1.88.38-.25.8-.4,1.27-.38.54,0,.98-.44.98-.98v-6.62c0-.46-.33-.86-.78-.96-.06-.01-.13-.02-.19-.02h-.07c-.07.02-.13.03-.19.04l-.14.04c-.2.08-.42.15-.65.18-.48.07-.95,0-1.37-.2-.2-.09-.38-.21-.55-.35l-.17-.16-.27-.29v-2.59c0-.26-.08-.51-.25-.71-.12-.15-.32-.34-.63-.38-.14-.02-.28,0-.42.04l-.06.02c-.42.17-.68.55-.68.96v2.75s-.35.3-.35.3c-.49.41-.76,1-.76,1.63v.54c0,.65-.25,1.26-.71,1.72-.46.46-1.07.71-1.72.71-.23,0-.44.1-.58.27-.08.09-.12.2-.13.31-.02.18.06.33.12.42.13.17.31.27.51.27h2.51v6.16s0,.09,0,.13l.07.45s.02.06.03.09l.17.39s.05.09.08.14h0c.04.08.07.13.11.18.05.07.08.1.12.14l.31.3,1.71,1.71h-2.56v1.28h-1.75v1.78h.65v2.3l-.48.29c-.6.37-1.14.82-1.6,1.34-.15.17-.26.32-.37.46l-.08.1-.88-.49.78.63-.08.12c-.09.15-.15.24-.21.34l-.17.31c-.04.09-.08.17-.12.26l-.31.82c-.02.07-.04.13-.06.2l-.08.84-.12.06-.07.32h-.56s-4.08,2.13-4.08,2.13v1.79h-.87v.14h1.47v2.14h1.47v1.51h.44v9.41l-1.78-1.78c-.04-.05-.09-.11-.14-.16l-.2-.2s-.04-.04-.07-.06l-.24-.19.43-.88-.54.79-.09-.07s0,0,0,0c0,0-.03-.02-.06-.05h0s-.06-.04-.12-.07l-.82-.37s-.09-.03-.15-.04l-.99-.14c-2.25,0-4.05,1.79-4.05,4,0,.12,0,.24.02.36l.06.4c.03.16.07.32.12.47l.09.25c.04.09.08.17.12.26.08.16.13.25.19.34.13.21.27.4.42.57l1.48,1.66h-3.36v2.03h1v4.02h2.26v1.91l-.91.15c-.07,0-.14.02-.22.03-.26.04-.48.08-.69.13l-.32.08-.12-.3h-.1l.08.34c-.17.05-.35.11-.53.17l-.28.11c-.34.14-.63.27-.91.43l-1.29.87c-.15.13-.24.2-.31.26l-.31.3c-.08.08-.16.16-.23.24l-.13.14c-.11.13-.2.24-.29.35l-.17.22c-.08.1-.15.21-.22.31-.09.12-.12.18-.16.24l-.14.22h0c-.03.07-.07.12-.08.14l-.37.74c-.13.3-.25.6-.35.92-.1.32-.22.85-.37,1.62-.15.78-.3,1.61-.46,2.51l-1.03,5.35c-.05.22-.1.45-.15.67-.1.4-.2.79-.3,1.15l-.35,1.1h-1.94v-1.6h-.78v-2.63h.28l-.57-8.91-.57,8.91h.28v2.63h-.78v1.6h-.91v.05h5.79s-2.02,2.03-2.02,2.03h-4.56v1.52h.98v3.53h2.77v6.15l-2.28,1.55c-.08.07-.16.15-.25.23l-.2.2-.75-.66.67.74-.2.22-.83-.57.72.7-.98,1.41-.17.33c-.09.18-.14.3-.2.43-.06.14-.09.23-.12.31l-.04.1c-.04.1-.07.21-.11.32l-.03.09c-.05.17-.12.42-.18.7l-.21,1.01c-.12.63-.25,1.37-.39,2.16l-.43,2.4v1.75l-1.55-1.01c-.12-.08-.26-.15-.4-.22h-.21l-.13-.13c-.07-.02-.14-.04-.21-.06-.19-.04-.32-.06-.45-.07-.09,0-.18-.01-.26-.01-1.57,0-2.9,1.22-3.04,2.79l-2-.09v-1.36h-13.91v-2h12.75v-3.08h-4.59l1.24-1.61c1.02-1.33,1.56-2.91,1.56-4.57,0-4.15-3.38-7.53-7.53-7.53-1.04,0-2.06.21-3.02.64l-1.4.61v-21.31h1.55v-2.34h3.48v-.34h-2.81v-2.21h-.99v-1.75h-.85v-2.69h.31l-.62-9.77h-.06l-.04-1.34-.03.02v.33l-.69,10.77h.31v2.69h-.85v1.75h-1.93l-.29-.48c-.96-1.58-1.74-3.34-2.33-5.23-1.22-3.93-4.81-6.59-8.93-6.61h-.99v-8.76h.49v-1.65h1.61v-2.34h1.61v-.34h-.95v-1.92l-5.13-2.67v-.59c-.06-2.42-1.54-4.59-3.78-5.55l-.61-.26v-1.76h.96v-2.13h-1.87l-.02-1.4h-4.56v1.4h-1.92v2.13h.71v1.84l-.58.27c-2.12.99-3.52,3.14-3.56,5.47v.6s-5.11,2.65-5.11,2.65v1.92h-.95v.34h1.61v2.34h1.61v1.65h.49v8.76h-.99c-4.12.03-7.71,2.69-8.93,6.62-.59,1.9-1.38,3.66-2.33,5.23l-.29.48h-1.93v-1.75h-.85v-2.69h.31l-.62-9.77h-.06l-.04-1.34-.03.02v.33l-.69,10.77h.31v2.69h-.85v1.75h-.99v2.21h-2.81v.34h3.48v2.34h1.55v21.16l-1.38-.56c-.89-.36-1.84-.54-2.81-.54-4.15,0-7.53,3.38-7.53,7.53,0,1.67.54,3.25,1.55,4.57l1.24,1.61h-4.58v3.08h12.51v2h-7.05s-6.67,0-6.67,0v2.44h-1.43v.44h1.43v9.03h-1.23v2.44h-2.42v.44h.95v2.64l2.7.02v32.15h-1.43v2.35s1.43,0,1.43,0v9.03h-1.23v1.76h.23v2s-.84,0-.84,0h-.85v1.76l2.7.02v31.2h-1.43v2.35s1.43,0,1.43,0v8.98h-2.7v1.76h1.47v3.07h1.23v34.35h-1.43v2.35h1.43v7.07h-2.7v1.76h1.47v3.71h1.23v35.28h30.25v-23.71h19.93v23.71h30.98v-35.28h2.11v35.28h80.96v-31.38h2.12v31.38h40.72v-27.39c0-1.18.23-2.32.69-3.39,1.28-2.98,4.13-4.93,7.27-4.96,2.92.03,5.61,1.72,7,4.36h.19l.26.61c.18.42.33.86.44,1.31l.08.17h-.04c.14.62.21,1.25.21,1.91v27.39Zm-67.47-207.81s0,0,0,0h0Zm-.05-.12s.03.08.04.1l-.04-.1Zm-61.37-33.69s.05.04.08.05l.05.02.05-.02s.08-.04.1-.08l.02-.08c0-.16-.34-.17-.34,0l.05.1Zm58.67-.1v.04c.04.07.08.1.13.12h.05s.04,0,.04,0c.04-.01.08-.04.1-.08l.02-.07c-.01-.22-.33-.18-.33,0h0ZM20.41,94.69c-.15,0-.27.12-.27.27,0,.14.11.24.21.26l.1.02.09-.04s.15-.09.15-.24-.12-.27-.27-.27Zm51.47,0c-.17,0-.28.12-.28.27s.12.27.27.27l.13-.02h.15c.18,0,.29-.11.29-.26s-.12-.27-.27-.27l-.13.02h-.15s0-.01-.01-.01Zm49.64-14.08h.03s-.03,0-.03,0h0Zm-75.24-30.6c-.29,0-.57.1-.8.3-.26.23-.42.57-.42.91l.02,2.85-.37.41c-.55.47-.87,1.14-.87,1.86v.59c0,1.42-1.15,2.57-2.57,2.57-.45,0-.83.31-.87.71-.03.3.11.51.2.61.15.17.36.26.59.26h2.65v6.63c0,.77.35,1.51.93,2l1.49,1.23,1.53-1.24c.58-.47.91-1.16.91-1.89v-1.02c0-.64.25-1.24.7-1.69.45-.45,1.05-.7,1.69-.7h0c.65,0,1.17-.52,1.17-1.16v-7.24c0-.64-.52-1.16-1.16-1.16-.15,0-.3.03-.44.09-.97.41-2.04.24-2.81-.43l-.37-.32v-.53s0-2.35,0-2.35c0-.64-.46-1.21-1.05-1.29-.06,0-.11-.01-.17-.01Zm80.02,17.83l-.58.13h.2s.39-.13.39-.13Zm55.2-3.96c-.1,0-.19.09-.19.19,0,.1.07.16.14.18h.05s.05,0,.05,0c.07-.02.14-.08.14-.18,0-.1-.09-.19-.19-.19Zm78.89,0c-.11,0-.19.09-.19.19,0,.1.07.16.14.18h.05s.05,0,.05,0c.07-.02.14-.08.14-.18,0-.11-.09-.19-.19-.19Zm-19.4-31.23c-.11,0-.19.09-.19.19,0,.1.07.16.14.18h.05s.05,0,.05,0c.07-.02.14-.08.14-.18,0-.11-.09-.19-.19-.19Zm-40.57,0c-.11,0-.19.09-.19.19,0,.1.07.16.14.18h.05s.05,0,.05,0c.07-.02.14-.08.14-.18,0-.11-.09-.19-.19-.19Zm24.92-20.71h0s0,0,0,0Zm-5.82-.63h0s0,0,0,0Zm5.41-1.1s0,.02-.01.03v-.03Zm.22-.25s0,0,0,0h0Zm2.14-.14h0s0,0,0,0Zm-6.92-.31s0,0,0,0c0,0,0,0,0,0Zm7.55-.28h0s0,0,0,0h0Zm-2.66-1.14s0,0,.01,0h-.01Zm4.27-.02h0s0,0,0,0Zm-10.57-6.09s0,0,0,0c0,0,0,0,0,0ZM81.57,351.09h-19.93v-19.44h19.93v19.44Zm-17.93-2h15.93v-15.44h-15.93v15.44Zm-34.96,2H8.74v-19.44h19.93v19.44Zm-17.93-2h15.93v-15.44h-15.93v15.44Zm199.08-1.4h-8.04v-13.91l.86-.12c1.26-.18,2.41-.74,3.33-1.63l.29-.28h3.56v15.95Zm-6.04-2h4.04v-11.95h-.76c-.95.83-2.06,1.42-3.28,1.73v10.22Zm-2.02,2h-8.04v-15.95h3.55l.29.28c.92.9,2.07,1.46,3.33,1.63l.86.12v13.91Zm-6.04-2h4.04v-10.22c-1.21-.31-2.33-.89-3.28-1.73h-.75v11.95Zm71.57,1.72h-8.03v-13.92l.86-.12c1.13-.16,2.19-.64,3.06-1.39l.28-.24h3.83v15.67Zm-6.03-2h4.03v-11.67h-1.1c-.87.68-1.87,1.17-2.94,1.45v10.23Zm-2.03,2h-8.03v-15.67h3.82l.28.24c.87.75,1.93,1.23,3.07,1.39l.86.12v13.92Zm-6.03-2h4.03v-10.23c-1.07-.27-2.06-.76-2.94-1.45h-1.1v11.67Zm-5.07,2h-8.03v-13.92l.86-.12c1.13-.16,2.19-.64,3.06-1.39l.28-.24h3.83v15.67Zm-6.03-2h4.03v-11.67h-1.1c-.87.68-1.87,1.17-2.94,1.45v10.23Zm-2.03,2h-8.03v-15.67h3.83l.28.24c.87.75,1.93,1.23,3.06,1.39l.86.12v13.92Zm-6.03-2h4.03v-10.23c-1.07-.27-2.06-.76-2.94-1.45h-1.1v11.67Zm-43.38,2h-8.04v-13.92l.86-.12c1.13-.16,2.19-.64,3.06-1.39l.28-.24h3.83v15.67Zm-6.04-2h4.04v-11.67h-1.1c-.87.68-1.87,1.17-2.94,1.45v10.23Zm-2.02,2h-8.04v-15.67h3.82l.28.24c.88.75,1.94,1.24,3.07,1.39l.86.12v13.92Zm-6.04-2h4.04v-10.23c-1.06-.27-2.07-.76-2.94-1.45h-1.1v11.67Zm-8.75,1.48h-8.23v-19.97h8.23v19.97Zm-6.23-2h4.23v-15.97h-4.23v15.97Zm-2.16,2h-8.79v-19.97h8.79v19.97Zm-6.79-2h4.79v-15.97h-4.79v15.97Zm-4.09,2h-8.97v-19.97h8.97v19.97Zm-6.97-2h4.97v-15.97h-4.97v15.97Zm-2.16,2h-8.97v-19.97h8.97v19.97Zm-6.97-2h4.97v-15.97h-4.97v15.97Zm-4.09,2h-8.97v-19.97h8.97v19.97Zm-6.97-2h4.97v-15.97h-4.97v15.97Zm-2.16,2h-8.97v-19.97h8.97v19.97Zm-6.97-2h4.97v-15.97h-4.97v15.97Zm-4.09,2h-8.51v-19.97h8.51v19.97Zm-6.51-2h4.51v-15.97h-4.51v15.97Zm-2.16,2h-8.51v-19.97h8.51v19.97Zm-6.51-2h4.51v-15.97h-4.51v15.97Zm-11.43-14.01h-19.93v-10.8h19.93v10.8Zm-17.93-2h15.93v-6.8h-15.93v6.8Zm-34.96,2H8.74v-10.8h19.93v10.8Zm-17.93-2h15.93v-6.8h-15.93v6.8Zm161.26-17.47h-2l-.09-1-.02-30.51h2.12v31.51Zm-4.19,0h-8.23v-17.52h8.23v17.52Zm-6.23-2h4.23v-13.52h-4.23v13.52Zm-2.16,2h-8.79v-17.52h8.79v17.52Zm-6.79-2h4.79v-13.52h-4.79v13.52Zm-4.09,2h-8.97v-17.52h8.97v17.52Zm-6.97-2h4.97v-13.52h-4.97v13.52Zm-2.16,2h-8.97v-17.52h8.97v17.52Zm-6.97-2h4.97v-13.52h-4.97v13.52Zm-4.09,2h-8.97v-17.52h8.97v17.52Zm-6.97-2h4.97v-13.52h-4.97v13.52Zm-2.16,2h-8.97v-17.52h8.97v17.52Zm-6.97-2h4.97v-13.52h-4.97v13.52Zm-4.09,2h-8.51v-17.52h8.51v17.52Zm-6.51-2h4.51v-13.52h-4.51v13.52Zm-2.16,2h-8.51v-17.52h8.51v17.52Zm-6.51-2h4.51v-13.52h-4.51v13.52Zm-4.09,2h-2l-.1-1v-2.87h2l.1,1v2.87Zm178.56-1h-8.2v-10.94h8.2v10.94Zm-6.2-2h4.2v-6.94h-4.2v6.94Zm-2.03,2h-8.2v-10.94h8.2v10.94Zm-6.2-2h4.2v-6.94h-4.2v6.94Zm-4.74,2h-8.2v-10.94h8.2v10.94Zm-6.2-2h4.2v-6.94h-4.2v6.94Zm-2.03,2h-8.2v-10.94h8.2v10.94Zm-6.2-2h4.2v-6.94h-4.2v6.94Zm-4.74,2h-8.2v-10.94h8.2v10.94Zm-6.2-2h4.2v-6.94h-4.2v6.94Zm-2.03,2h-8.2v-10.94h8.2v10.94Zm-6.2-2h4.2v-6.94h-4.2v6.94Zm-4.74,2h-8.2v-10.94h8.2v10.94Zm-6.2-2h4.2v-6.94h-4.2v6.94Zm-2.02,2h-8.21v-10.94h8.21v10.94Zm-6.21-2h4.21v-6.94h-4.21v6.94Zm-4.73,2h-8.2v-10.94h8.2v10.94Zm-6.2-2h4.2v-6.94h-4.2v6.94Zm-2.02,2h-8.21v-10.94h8.21v10.94Zm-6.21-2h4.21v-6.94h-4.21v6.94Zm-87.49-3.22h-2l-.1-1v-24.29h2.11l-.02,25.29Zm-7.34-.24h-9.58v-12.37h9.58v12.37Zm-7.58-2h5.58v-8.37h-5.58v8.37Zm-2.77,2h-9.58v-12.37h9.58v12.37Zm-7.58-2h5.58v-8.37h-5.58v8.37Zm-7.8,2h-9.58v-12.37h9.58v12.37Zm-7.58-2h5.58v-8.37h-5.58v8.37Zm-2.77,2h-9.58v-12.37h9.58v12.37Zm-7.58-2h5.58v-8.37h-5.58v8.37Zm-9.23,2h-9.58v-12.37h9.58v12.37Zm-7.58-2h5.58v-8.37h-5.58v8.37Zm-2.77,2h-9.58v-12.37h9.58v12.37Zm-7.58-2h5.58v-8.37h-5.58v8.37Zm256.72-3.8h-8.2v-10.94h8.2v10.94Zm-6.2-2h4.2v-6.94h-4.2v6.94Zm-2.03,2h-8.2v-10.94h8.2v10.94Zm-6.2-2h4.2v-6.94h-4.2v6.94Zm-4.74,2h-8.2v-10.94h8.2v10.94Zm-6.2-2h4.2v-6.94h-4.2v6.94Zm-2.03,2h-8.2v-10.94h8.2v10.94Zm-6.2-2h4.2v-6.94h-4.2v6.94Zm-4.74,2h-8.2v-10.94h8.2v10.94Zm-6.2-2h4.2v-6.94h-4.2v6.94Zm-2.03,2h-8.2v-10.94h8.2v10.94Zm-6.2-2h4.2v-6.94h-4.2v6.94Zm-4.74,2h-8.2v-10.94h8.2v10.94Zm-6.2-2h4.2v-6.94h-4.2v6.94Zm-2.02,2h-8.21v-10.94h8.21v10.94Zm-6.21-2h4.21v-6.94h-4.21v6.94Zm-4.73,2h-8.2v-10.94h8.2v10.94Zm-6.2-2h4.2v-6.94h-4.2v6.94Zm-2.02,2h-8.21v-10.94h8.21v10.94Zm-6.21-2h4.21v-6.94h-4.21v6.94Zm-94.84-5.34h-9.58v-9.51h9.58v9.51Zm-7.58-2h5.58v-5.51h-5.58v5.51Zm-2.77,2h-9.58v-9.51h9.58v9.51Zm-7.58-2h5.58v-5.51h-5.58v5.51Zm-7.8,2h-9.58v-9.51h9.58v9.51Zm-7.58-2h5.58v-5.51h-5.58v5.51Zm-2.77,2h-9.58v-9.51h9.58v9.51Zm-7.58-2h5.58v-5.51h-5.58v5.51Zm-9.23,2h-9.58v-9.51h9.58v9.51Zm-7.58-2h5.58v-5.51h-5.58v5.51Zm-2.77,2h-9.58v-9.51h9.58v9.51Zm-7.58-2h5.58v-5.51h-5.58v5.51Zm256.72-1.93h-8.2v-8.68h8.2v8.68Zm-6.2-2h4.2v-4.68h-4.2v4.68Zm-2.03,2h-8.2v-8.68h8.2v8.68Zm-6.2-2h4.2v-4.68h-4.2v4.68Zm-4.74,2h-8.2v-8.68h8.2v8.68Zm-6.2-2h4.2v-4.68h-4.2v4.68Zm-2.03,2h-8.2v-8.68h8.2v8.68Zm-6.2-2h4.2v-4.68h-4.2v4.68Zm-4.74,2h-8.2v-8.68h8.2v8.68Zm-6.2-2h4.2v-4.68h-4.2v4.68Zm-2.03,2h-8.2v-8.68h8.2v8.68Zm-6.2-2h4.2v-4.68h-4.2v4.68Zm-4.74,2h-8.2v-8.68h8.2v8.68Zm-6.2-2h4.2v-4.68h-4.2v4.68Zm-2.02,2h-8.21v-8.68h8.21v8.68Zm-6.21-2h4.21v-4.68h-4.21v4.68Zm-4.73,2h-8.2v-8.68h8.2v8.68Zm-6.2-2h4.2v-4.68h-4.2v4.68Zm-2.02,2h-8.21v-8.68h8.21v8.68Zm-6.21-2h4.21v-4.68h-4.21v4.68Zm-8.59-11.1h-8.23v-9.51h7.17v1.71h1.07v7.81Zm-6.23-2h4.23v-3.81h-1.07v-1.71h-3.17v5.51Zm-2.16,2h-8.79v-9.51h8.79v9.51Zm-6.79-2h4.79v-5.51h-4.79v5.51Zm-4.09,2h-8.97v-9.51h8.97v9.51Zm-6.97-2h4.97v-5.51h-4.97v5.51Zm-2.16,2h-8.97v-9.51h8.97v9.51Zm-6.97-2h4.97v-5.51h-4.97v5.51Zm-4.09,2h-8.97v-9.51h8.97v9.51Zm-6.97-2h4.97v-5.51h-4.97v5.51Zm-2.16,2h-8.97v-9.51h8.97v9.51Zm-6.97-2h4.97v-5.51h-4.97v5.51Zm-4.09,2h-8.51v-9.51h8.51v9.51Zm-6.51-2h4.51v-5.51h-4.51v5.51Zm-2.16,2h-8.51v-9.51h8.51v9.51Zm-6.51-2h4.51v-5.51h-4.51v5.51Zm-4.09,2h-2l-.1-1v-2.94h2.1v3.94Zm0-8.78h-2l-.1-1v-7.98h2.1v8.98Zm83.1-.68h-2l-.09-1v-24.15h2l.09,1v24.15Zm-4.19-.21h-8.23v-9.51h8.23v9.51Zm-6.23-2h4.23v-5.51h-4.23v5.51Zm-2.16,2h-8.79v-9.51h8.79v9.51Zm-6.79-2h4.79v-5.51h-4.79v5.51Zm-4.09,2h-8.97v-9.51h8.97v9.51Zm-6.97-2h4.97v-5.51h-4.97v5.51Zm-2.16,2h-8.97v-9.51h8.97v9.51Zm-6.97-2h4.97v-5.51h-4.97v5.51Zm-4.09,2h-8.97v-9.51h8.97v9.51Zm-6.97-2h4.97v-5.51h-4.97v5.51Zm-2.16,2h-8.97v-9.51h8.97v9.51Zm-6.97-2h4.97v-5.51h-4.97v5.51Zm-4.09,2h-8.51v-9.51h8.51v9.51Zm-6.51-2h4.51v-5.51h-4.51v5.51Zm-2.16,2h-8.51v-9.51h8.51v9.51Zm-6.51-2h4.51v-5.51h-4.51v5.51Zm174.47,1.09h-8.2v-10.94h8.2v10.94Zm-6.2-2h4.2v-6.94h-4.2v6.94Zm-2.03,2h-8.2v-10.94h8.2v10.94Zm-6.2-2h4.2v-6.94h-4.2v6.94Zm-4.74,2h-8.2v-10.94h8.2v10.94Zm-6.2-2h4.2v-6.94h-4.2v6.94Zm-2.03,2h-8.2v-10.94h8.2v10.94Zm-6.2-2h4.2v-6.94h-4.2v6.94Zm-4.74,2h-8.2v-10.94h8.2v10.94Zm-6.2-2h4.2v-6.94h-4.2v6.94Zm-2.03,2h-8.2v-10.94h8.2v10.94Zm-6.2-2h4.2v-6.94h-4.2v6.94Zm-4.74,2h-8.2v-10.94h8.2v10.94Zm-6.2-2h4.2v-6.94h-4.2v6.94Zm-2.02,2h-8.21v-10.94h8.21v10.94Zm-6.21-2h4.21v-6.94h-4.21v6.94Zm-4.73,2h-8.2v-10.94h8.2v10.94Zm-6.2-2h4.2v-6.94h-4.2v6.94Zm-2.02,2h-8.21v-10.94h8.21v10.94Zm-6.21-2h4.21v-6.94h-4.21v6.94Zm-8.59-6.76h-8.23v-15.27h8.23v15.27Zm-6.23-2h4.23v-11.27h-4.23v11.27Zm-2.16,2h-8.79v-15.27h8.79v15.27Zm-6.79-2h4.79v-11.27h-4.79v11.27Zm-4.09,2h-8.97v-15.27h8.97v15.27Zm-6.97-2h4.97v-11.27h-4.97v11.27Zm-2.16,2h-8.97v-15.27h8.97v15.27Zm-6.97-2h4.97v-11.27h-4.97v11.27Zm-4.09,2h-8.97v-15.27h8.97v15.27Zm-6.97-2h4.97v-11.27h-4.97v11.27Zm-2.16,2h-8.97v-15.27h8.97v15.27Zm-6.97-2h4.97v-11.27h-4.97v11.27Zm-4.09,2h-8.51v-15.27h8.51v15.27Zm-6.51-2h4.51v-11.27h-4.51v11.27Zm-2.16,2h-8.51v-15.27h8.51v15.27Zm-6.51-2h4.51v-11.27h-4.51v11.27Zm-4.09,1.24h-2.1v-14.51h2l.1,1v13.51Zm-6.67,0h-9.58v-21.89h9.58v21.89Zm-7.58-2h5.58v-17.89h-5.58v17.89Zm-2.77,2h-9.58v-21.89h9.58v21.89Zm-7.58-2h5.58v-17.89h-5.58v17.89Zm-7.8,2h-9.57v-21.89h9.57v21.89Zm-7.57-2h5.57v-17.89h-5.57v17.89Zm-2.78,2h-9.57v-21.89h9.57v21.89Zm-7.57-2h5.57v-17.89h-5.57v17.89Zm-9.23,2h-9.57v-21.89h9.57v21.89Zm-7.57-2h5.57v-17.89h-5.57v17.89Zm-2.78,2h-9.57v-21.89h9.57v21.89Zm-7.57-2h5.57v-17.89h-5.57v17.89Zm256.05.26h-8.2v-10.94h8.2v10.94Zm-6.2-2h4.2v-6.94h-4.2v6.94Zm-2.03,2h-8.2v-10.94h8.2v10.94Zm-6.2-2h4.2v-6.94h-4.2v6.94Zm-4.74,2h-8.2v-10.94h8.2v10.94Zm-6.2-2h4.2v-6.94h-4.2v6.94Zm-2.03,2h-8.2v-10.94h8.2v10.94Zm-6.2-2h4.2v-6.94h-4.2v6.94Zm-4.74,2h-8.2v-10.94h8.2v10.94Zm-6.2-2h4.2v-6.94h-4.2v6.94Zm-2.03,2h-8.2v-10.94h8.2v10.94Zm-6.2-2h4.2v-6.94h-4.2v6.94Zm-4.74,2h-8.2v-10.94h8.2v10.94Zm-6.2-2h4.2v-6.94h-4.2v6.94Zm-2.02,2h-8.21v-10.94h8.21v10.94Zm-6.21-2h4.21v-6.94h-4.21v6.94Zm-4.73,2h-8.2v-10.94h8.2v10.94Zm-6.2-2h4.2v-6.94h-4.2v6.94Zm-2.02,2h-8.21v-10.94h8.21v10.94Zm-6.21-2h4.21v-6.94h-4.21v6.94Zm91.06-9.27h-8.2v-8.68h8.2v8.68Zm-6.2-2h4.2v-4.68h-4.2v4.68Zm-2.03,2h-8.2v-8.68h8.2v8.68Zm-6.2-2h4.2v-4.68h-4.2v4.68Zm-4.74,2h-8.2v-8.68h8.2v8.68Zm-6.2-2h4.2v-4.68h-4.2v4.68Zm-2.03,2h-8.2v-8.68h8.2v8.68Zm-6.2-2h4.2v-4.68h-4.2v4.68Zm-4.74,2h-8.2v-8.68h8.2v8.68Zm-6.2-2h4.2v-4.68h-4.2v4.68Zm-2.03,2h-8.2v-8.68h8.2v8.68Zm-6.2-2h4.2v-4.68h-4.2v4.68Zm-4.74,2h-8.2v-8.68h8.2v8.68Zm-6.2-2h4.2v-4.68h-4.2v4.68Zm-2.02,2h-8.21v-8.68h8.21v8.68Zm-6.21-2h4.21v-4.68h-4.21v4.68Zm-4.73,2h-8.2v-8.68h8.2v8.68Zm-6.2-2h4.2v-4.68h-4.2v4.68Zm-2.02,2h-8.21v-8.68h8.21v8.68Zm-6.21-2h4.21v-4.68h-4.21v4.68Zm-4.4-1.58h-2.12v-6.51h2.12v6.51Zm-83.08,0h-2.11v-14.6h2.11v14.6Zm-6.69-6.07h-9.58v-8.55h9.58v8.55Zm-7.58-2h5.58v-4.55h-5.58v4.55Zm-2.77,2h-9.58v-8.55h9.58v8.55Zm-7.58-2h5.58v-4.55h-5.58v4.55Zm-7.8,2h-9.57v-8.55h9.57v8.55Zm-7.57-2h5.57v-4.55h-5.57v4.55Zm-2.78,2h-9.57v-8.55h9.57v8.55Zm-7.57-2h5.57v-4.55h-5.57v4.55Zm-9.23,2h-9.57v-8.55h9.57v8.55Zm-7.57-2h5.57v-4.55h-5.57v4.55Zm-2.78,2h-9.57v-8.55h9.57v8.55Zm-7.57-2h5.57v-4.55h-5.57v4.55Zm256.05-12.02h-8.2v-10.94h8.2v10.94Zm-6.2-2h4.2v-6.94h-4.2v6.94Zm-2.03,2h-8.2v-10.94h8.2v10.94Zm-6.2-2h4.2v-6.94h-4.2v6.94Zm-4.74,2h-8.2v-10.94h8.2v10.94Zm-6.2-2h4.2v-6.94h-4.2v6.94Zm-2.03,2h-8.2v-10.94h8.2v10.94Zm-6.2-2h4.2v-6.94h-4.2v6.94Zm-4.74,2h-8.2v-10.94h8.2v10.94Zm-6.2-2h4.2v-6.94h-4.2v6.94Zm-2.03,2h-8.2v-10.94h8.2v10.94Zm-6.2-2h4.2v-6.94h-4.2v6.94Zm-4.74,2h-8.2v-10.94h8.2v10.94Zm-6.2-2h4.2v-6.94h-4.2v6.94Zm-2.02,2h-8.21v-10.94h8.21v10.94Zm-6.21-2h4.21v-6.94h-4.21v6.94Zm-4.73,2h-8.2v-10.94h8.2v10.94Zm-6.2-2h4.2v-6.94h-4.2v6.94Zm-2.02,2h-8.21v-10.94h8.21v10.94Zm-6.21-2h4.21v-6.94h-4.21v6.94Zm-4.4.99h-2l-.09-1v-30.62h2l.09,1v30.62Zm-4.19,0h-8.23v-9.51h8.23v9.51Zm-6.23-2h4.23v-5.51h-4.23v5.51Zm-2.16,2h-8.79v-9.51h8.79v9.51Zm-6.79-2h4.79v-5.51h-4.79v5.51Zm-4.09,2h-8.97v-9.51h8.97v9.51Zm-6.97-2h4.97v-5.51h-4.97v5.51Zm-2.16,2h-8.97v-9.51h8.97v9.51Zm-6.97-2h4.97v-5.51h-4.97v5.51Zm-4.09,2h-8.97v-9.51h8.97v9.51Zm-6.97-2h4.97v-5.51h-4.97v5.51Zm-2.16,2h-8.97v-9.51h8.97v9.51Zm-6.97-2h4.97v-5.51h-4.97v5.51Zm-4.09,2h-8.51v-9.51h8.51v9.51Zm-6.51-2h4.51v-5.51h-4.51v5.51Zm-2.16,2h-8.51v-9.51h8.51v9.51Zm-6.51-2h4.51v-5.51h-4.51v5.51Zm-4.09,2h-2l-.1-1v-7.08h2.1v8.08Zm78.91-9.67h-8.23v-9.51h8.23v9.51Zm-6.23-2h4.23v-5.51h-4.23v5.51Zm-2.16,2h-8.79v-9.51h8.79v9.51Zm-6.79-2h4.79v-5.51h-4.79v5.51Zm-4.09,2h-8.97v-9.51h8.97v9.51Zm-6.97-2h4.97v-5.51h-4.97v5.51Zm-2.16,2h-8.97v-9.51h8.97v9.51Zm-6.97-2h4.97v-5.51h-4.97v5.51Zm-4.09,2h-8.97v-9.51h8.97v9.51Zm-6.97-2h4.97v-5.51h-4.97v5.51Zm-2.16,2h-8.97v-9.51h8.97v9.51Zm-6.97-2h4.97v-5.51h-4.97v5.51Zm-4.09,2h-8.51v-9.51h8.51v9.51Zm-6.51-2h4.51v-5.51h-4.51v5.51Zm-2.16,2h-8.51v-9.51h8.51v9.51Zm-6.51-2h4.51v-5.51h-4.51v5.51Zm174.47,1.42h-8.2v-10.94h8.2v10.94Zm-6.2-2h4.2v-6.94h-4.2v6.94Zm-2.03,2h-8.2v-10.94h8.2v10.94Zm-6.2-2h4.2v-6.94h-4.2v6.94Zm-4.74,2h-8.2v-10.94h8.2v10.94Zm-6.2-2h4.2v-6.94h-4.2v6.94Zm-2.03,2h-8.2v-10.94h8.2v10.94Zm-6.2-2h4.2v-6.94h-4.2v6.94Zm-4.74,2h-8.2v-10.94h8.2v10.94Zm-6.2-2h4.2v-6.94h-4.2v6.94Zm-2.03,2h-8.2v-10.94h8.2v10.94Zm-6.2-2h4.2v-6.94h-4.2v6.94Zm-4.74,2h-8.2v-10.94h8.2v10.94Zm-6.2-2h4.2v-6.94h-4.2v6.94Zm-2.02,2h-8.21v-10.94h8.21v10.94Zm-6.21-2h4.21v-6.94h-4.21v6.94Zm-4.73,2h-8.2v-10.94h8.2v10.94Zm-6.2-2h4.2v-6.94h-4.2v6.94Zm-2.02,2h-8.21v-10.94h8.21v10.94Zm-6.21-2h4.21v-6.94h-4.21v6.94Zm-87.49,1.82h-2.1v-23.27h2l.1,1v22.27Zm-6.67,0h-9.58v-21.89h9.58v21.89Zm-7.58-2h5.58v-17.89h-5.58v17.89Zm-2.77,2h-9.58v-21.89h9.58v21.89Zm-7.58-2h5.58v-17.89h-5.58v17.89Zm-7.8,2h-9.57v-21.89h9.57v21.89Zm-7.57-2h5.57v-17.89h-5.57v17.89Zm-2.78,2h-9.57v-21.89h9.57v21.89Zm-7.57-2h5.57v-17.89h-5.57v17.89Zm-9.23,2h-9.57v-21.89h9.57v21.89Zm-7.57-2h5.57v-17.89h-5.57v17.89Zm-2.78,2h-9.57v-21.89h9.57v21.89Zm-7.57-2h5.57v-17.89h-5.57v17.89Zm156.4-6.92h-8.23v-14.35h8.23v14.35Zm-6.23-2h4.23v-10.35h-4.23v10.35Zm-2.16,2h-8.79v-14.35h8.79v14.35Zm-6.79-2h4.79v-10.35h-4.79v10.35Zm-4.09,2h-8.97v-14.35h8.97v14.35Zm-6.97-2h4.97v-10.35h-4.97v10.35Zm-2.16,2h-8.97v-14.35h8.97v14.35Zm-6.97-2h4.97v-10.35h-4.97v10.35Zm-4.09,2h-8.97v-14.35h8.97v14.35Zm-6.97-2h4.97v-10.35h-4.97v10.35Zm-2.16,2h-8.97v-14.35h8.97v14.35Zm-6.97-2h4.97v-10.35h-4.97v10.35Zm-4.09,2h-8.51v-14.35h8.51v14.35Zm-6.51-2h4.51v-10.35h-4.51v10.35Zm-2.16,2h-8.51v-14.35h8.51v14.35Zm-6.51-2h4.51v-10.35h-4.51v10.35Zm174.47-.17h-8.2v-8.68h8.2v8.68Zm-6.2-2h4.2v-4.68h-4.2v4.68Zm-2.03,2h-8.2v-8.68h8.2v8.68Zm-6.2-2h4.2v-4.68h-4.2v4.68Zm-4.74,2h-8.2v-8.68h8.2v8.68Zm-6.2-2h4.2v-4.68h-4.2v4.68Zm-2.03,2h-8.2v-8.68h8.2v8.68Zm-6.2-2h4.2v-4.68h-4.2v4.68Zm-4.74,2h-8.2v-8.68h8.2v8.68Zm-6.2-2h4.2v-4.68h-4.2v4.68Zm-2.03,2h-8.2v-8.68h8.2v8.68Zm-6.2-2h4.2v-4.68h-4.2v4.68Zm-4.74,2h-8.2v-8.68h8.2v8.68Zm-6.2-2h4.2v-4.68h-4.2v4.68Zm-2.02,2h-8.21v-8.68h8.21v8.68Zm-6.21-2h4.21v-4.68h-4.21v4.68Zm-4.73,2h-8.2v-8.68h8.2v8.68Zm-6.2-2h4.2v-4.68h-4.2v4.68Zm-2.02,2h-8.21v-8.68h8.21v8.68Zm-6.21-2h4.21v-4.68h-4.21v4.68Zm-94.17-9.58h-9.58v-7.12h9.58v7.12Zm-7.58-2h5.58v-3.12h-5.58v3.12Zm-2.77,2h-9.58v-7.12h9.58v7.12Zm-7.58-2h5.58v-3.12h-5.58v3.12Zm-7.8,2h-9.57v-7.12h9.57v7.12Zm-7.57-2h5.57v-3.12h-5.57v3.12Zm-2.78,2h-9.57v-7.12h9.57v7.12Zm-7.57-2h5.57v-3.12h-5.57v3.12Zm-9.23,2h-9.57v-7.12h9.57v7.12Zm-7.57-2h5.57v-3.12h-5.57v3.12Zm-2.78,2h-9.57v-7.12h9.57v7.12Zm-7.57-2h5.57v-3.12h-5.57v3.12Zm77.51-.69h-2.11v-6.79h2.11v6.79Zm83.08-8.28h-2.12v-7.71h2.12v7.71Zm95.46-1.13h-8.2v-10.94h8.2v10.94Zm-6.2-2h4.2v-6.94h-4.2v6.94Zm-2.03,2h-8.2v-10.94h8.2v10.94Zm-6.2-2h4.2v-6.94h-4.2v6.94Zm-4.74,2h-8.2v-10.94h8.2v10.94Zm-6.2-2h4.2v-6.94h-4.2v6.94Zm-2.03,2h-8.2v-10.94h8.2v10.94Zm-6.2-2h4.2v-6.94h-4.2v6.94Zm-4.74,2h-8.2v-10.94h8.2v10.94Zm-6.2-2h4.2v-6.94h-4.2v6.94Zm-2.03,2h-8.2v-10.94h8.2v10.94Zm-6.2-2h4.2v-6.94h-4.2v6.94Zm-4.74,2h-8.2v-10.94h8.2v10.94Zm-6.2-2h4.2v-6.94h-4.2v6.94Zm-2.02,2h-8.21v-10.94h8.21v10.94Zm-6.21-2h4.21v-6.94h-4.21v6.94Zm-4.73,2h-8.2v-10.94h8.2v10.94Zm-6.2-2h4.2v-6.94h-4.2v6.94Zm-2.02,2h-8.21v-10.94h8.21v10.94Zm-6.21-2h4.21v-6.94h-4.21v6.94Zm-87.48-.93h-2.11v-3.65h2.11v3.65Zm2.42-5.18h-4.53v-3.85h2.17l.29.46c.49.77,1.29,1.28,2.2,1.4l-.12,1.99Zm54.73-2.32h-16.46v-17.38h16.46v17.38Zm-6.27-2h4.27v-5.41h-4.27v5.41Zm-8.19,0h4.27v-5.41h-4.27v5.41Zm8.19-8.88h4.27v-4.5h-4.27v4.5Zm-8.19,0h4.27v-4.5h-4.27v4.5Zm-2.98,10.88h-16.46v-17.38h16.46v17.38Zm-6.26-2h4.26v-5.41h-4.26v5.41Zm-8.2,0h4.27v-5.41h-4.27v5.41Zm8.2-8.88h4.26v-4.5h-4.26v4.5Zm-8.2,0h4.27v-4.5h-4.27v4.5Zm153.28,10.05h-8.2v-10.94h8.2v10.94Zm-6.2-2h4.2v-6.94h-4.2v6.94Zm-2.03,2h-8.2v-10.94h8.2v10.94Zm-6.2-2h4.2v-6.94h-4.2v6.94Zm-4.74,2h-8.2v-10.94h8.2v10.94Zm-6.2-2h4.2v-6.94h-4.2v6.94Zm-2.03,2h-8.2v-10.94h8.2v10.94Zm-6.2-2h4.2v-6.94h-4.2v6.94Zm-4.74,2h-8.2v-10.94h8.2v10.94Zm-6.2-2h4.2v-6.94h-4.2v6.94Zm-2.03,2h-8.2v-10.94h8.2v10.94Zm-6.2-2h4.2v-6.94h-4.2v6.94Zm-4.74,2h-8.2v-10.94h8.2v10.94Zm-6.2-2h4.2v-6.94h-4.2v6.94Zm-2.02,2h-8.21v-10.94h8.21v10.94Zm-6.21-2h4.21v-6.94h-4.21v6.94Zm-4.73,2h-8.2v-10.94h8.2v10.94Zm-6.2-2h4.2v-6.94h-4.2v6.94Zm-2.02,2h-8.21v-10.94h8.21v10.94Zm-6.21-2h4.21v-6.94h-4.21v6.94Zm-107.64-1.58h-11.11v-11.31h9.09v-.69h-9.09v-8.79h11.11v20.79Zm-9.11-2h7.11v-7.31h-7.11v7.31Zm0-12h7.11v-4.79h-7.11v4.79Zm-6.41,14h-14.17v-20.79h.27c-.18-.63-.27-1.29-.27-1.96,0-3.9,3.17-7.07,7.07-7.07s7.07,3.17,7.07,7.07c0,.67-.09,1.33-.28,1.96h.3v20.79Zm-12.17-2h10.17v-16.79h-1.51l.84-1.49c.42-.74.64-1.59.64-2.47,0-2.8-2.28-5.07-5.07-5.07s-5.07,2.28-5.07,5.07c0,.87.22,1.72.64,2.47l.83,1.49h-1.47v16.79Zm-6.62,2h-11.11l.04-9.06c.13-.43.23-.89.28-1.36l.1-.89h8.66v-.69h-8.71l-.17-.79c-.05-.22-.1-.45-.17-.67l-.04-.3v-7.03h11.11v20.79Zm-9.11-2h7.11v-7.31h-6.94c-.05.23-.11.46-.17.69v6.62Zm0-12h7.11v-4.79h-7.11v4.79Zm242.13,6.31h-8.2v-8.68h8.2v8.68Zm-6.2-2h4.2v-4.68h-4.2v4.68Zm-2.03,2h-8.2v-8.68h8.2v8.68Zm-6.2-2h4.2v-4.68h-4.2v4.68Zm-4.74,2h-8.2v-8.68h8.2v8.68Zm-6.2-2h4.2v-4.68h-4.2v4.68Zm-2.03,2h-8.2v-8.68h8.2v8.68Zm-6.2-2h4.2v-4.68h-4.2v4.68Zm-4.74,2h-8.2v-8.68h8.2v8.68Zm-6.2-2h4.2v-4.68h-4.2v4.68Zm-2.03,2h-8.2v-8.68h8.2v8.68Zm-6.2-2h4.2v-4.68h-4.2v4.68Zm-4.74,2h-8.2v-8.68h8.2v8.68Zm-6.2-2h4.2v-4.68h-4.2v4.68Zm-2.02,2h-8.21v-8.68h8.21v8.68Zm-6.21-2h4.21v-4.68h-4.21v4.68Zm-4.73,2h-8.2v-8.68h8.2v8.68Zm-6.2-2h4.2v-4.68h-4.2v4.68Zm-2.02,2h-8.21v-8.68h8.21v8.68Zm-6.21-2h4.21v-4.68h-4.21v4.68Zm-40.01-14.77h-14.3v-16.06c0-1.66.58-3.27,1.63-4.55.58-.7,1.28-1.28,2.07-1.72,1.17-.65,2.57-.94,3.86-.87.14,0,.27.02.41.04.14.01.3.04.45.06.12.02.26.05.4.09.58.13,1.2.36,1.77.68.17.1.31.17.44.26l.09.06c.08.05.15.1.23.16.07.05.17.12.27.21l.54.48c.13.12.23.23.33.34.04.05.1.12.16.19l.06.08c1.03,1.28,1.58,2.86,1.58,4.48v16.06Zm-12.3-2h10.3v-14.06c0-1.15-.39-2.27-1.09-3.17l-.21-.26c-.06-.07-.11-.13-.17-.18l-.2-.19s-.06-.06-.12-.11l-.15-.12c-.06-.05-.14-.1-.21-.16l-.25-.17c-.07-.05-.17-.1-.27-.16-.41-.23-.85-.39-1.3-.49-.12-.03-.2-.05-.27-.06-.11-.02-.21-.03-.3-.04-.11-.01-.2-.02-.3-.03-.93-.05-1.95.16-2.79.62-.57.32-1.08.74-1.5,1.25-.76.91-1.17,2.08-1.17,3.27v14.06Zm124.22-12.79h-8.2v-14.31h8.2v14.31Zm-6.2-2h4.2v-10.31h-4.2v10.31Zm-2.03,2h-8.2v-14.31h8.2v14.31Zm-6.2-2h4.2v-10.31h-4.2v10.31Zm-4.74,2h-8.2v-14.31h8.2v14.31Zm-6.2-2h4.2v-10.31h-4.2v10.31Zm-2.03,2h-8.2v-14.31h8.2v14.31Zm-6.2-2h4.2v-10.31h-4.2v10.31Zm-4.74,2h-8.2v-14.31h8.2v14.31Zm-6.2-2h4.2v-10.31h-4.2v10.31Zm-2.02,2h-8.21v-14.31h8.21v14.31Zm-6.21-2h4.21v-10.31h-4.21v10.31Zm-149.43-11.27c-.69,0-1.37-.17-1.97-.51-.34-.18-.66-.42-.94-.7-.78-.79-1.21-1.82-1.21-2.92,0-2.27,1.85-4.12,4.12-4.12.55,0,1.08.11,1.59.32.15.07.24.11.33.16.09.04.17.09.25.14.05.03.1.06.15.09.11.07.21.15.31.24.03.02.1.08.17.15.85.78,1.33,1.88,1.33,3.03,0,2.27-1.85,4.12-4.12,4.12Zm0-6.25c-1.17,0-2.12.95-2.12,2.12,0,.57.22,1.1.62,1.51.14.14.3.26.48.35.32.18.65.26,1.01.26,1.17,0,2.12-.95,2.12-2.12,0-.59-.24-1.15-.67-1.54l-.52-.37s-.07-.03-.1-.05c-.27-.11-.55-.17-.83-.17Zm74.08,5.81h-3.25l1.52-1.79,1.78-2.23-.05,4.01Zm128.09-.94h-8.2v-12.06h8.2v12.06Zm-6.2-2h4.2v-8.06h-4.2v8.06Zm-2.03,2h-8.2v-12.06h8.2v12.06Zm-6.2-2h4.2v-8.06h-4.2v8.06Zm-4.74,2h-8.2v-12.06h8.2v12.06Zm-6.2-2h4.2v-8.06h-4.2v8.06Zm-2.03,2h-8.2v-12.06h8.2v12.06Zm-6.2-2h4.2v-8.06h-4.2v8.06Zm-4.74,2h-8.2v-12.06h8.2v12.06Zm-6.2-2h4.2v-8.06h-4.2v8.06Zm-2.02,2h-8.21v-12.06h8.21v12.06Zm-6.21-2h4.21v-8.06h-4.21v8.06Zm33.58-17.94h-8.2v-12.43h8.2v12.43Zm-6.2-2h4.2v-8.43h-4.2v8.43Zm-2.03,2h-8.2v-12.43h8.2v12.43Zm-6.2-2h4.2v-8.43h-4.2v8.43Zm14.42-10.46h-8.2v-12.72h8.2v12.72Zm-6.2-2h4.2v-8.72h-4.2v8.72Zm-2.03,2h-8.2v-12.72h8.2v12.72Zm-6.2-2h4.2v-8.72h-4.2v8.72Zm7.24-53.62h-2.29l.07-1.06h.06l-.06-.44,1-.08v-.41l.03.41.96-.08.24,1.67Z"/></svg>