<?xml version="1.0" encoding="UTF-8"?><svg id="Layer_1" xmlns="http://www.w3.org/2000/svg" viewBox="0 0 516.91 517"><defs><style>.cls-1{fill:#001489;}</style></defs><path class="cls-1" d="m246.81,188.7v-61.62l2.84.39c5.84.81,11.76.81,17.6,0l2.84-.39v61.62l-2.75-.27c-5.9-.59-11.89-.59-17.79,0l-2.75.27Zm11.64-5.71c2.22,0,4.43.08,6.64.23v-50.46c-4.42.43-8.86.43-13.28,0v50.46c2.21-.16,4.42-.23,6.64-.23Z"/><path class="cls-1" d="m229.04,425.59h-19.14l10.88-59.85h75.34l4.24,23.28h-14.49c-1.3,0-2.57.4-3.66,1.12l-53.17,35.45Zm-13.15-5h11.64l51.91-34.61c1.9-1.27,4.12-1.94,6.42-1.96h8.51l-2.42-13.28h-67l-9.06,49.85Z"/><path class="cls-1" d="m212.37,336.77l-2.86-2.41c-5.27-4.44-9.91-9.58-13.77-15.27-13.94-20.69-16.79-46.88-7.63-70.07,9.16-23.19,29.15-40.36,53.45-45.93,11.03-2.43,22.67-2.43,33.68,0,34.46,8.06,58.64,38.37,58.84,73.73.02,3.07-.19,6.18-.6,9.26-1.36,11.24-5.35,22.24-11.52,31.78h0c-4.02,6.17-8.92,11.7-14.59,16.43l-2.85,2.38-1.14-3.53c-3.31-10.3-12.81-17.23-23.63-17.24h-42.61c-10.84.01-20.34,6.97-23.63,17.31l-1.13,3.56Zm46.05-130.5c-5.3,0-10.6.57-15.76,1.71-22.68,5.2-41.34,21.23-49.9,42.89-8.56,21.66-5.9,46.11,7.12,65.43,2.95,4.34,6.37,8.33,10.21,11.91,4.82-10.47,15.27-17.29,27.04-17.3h42.62c11.75.01,22.19,6.81,27.03,17.25,4.18-3.87,7.86-8.23,10.97-13,5.76-8.91,9.48-19.18,10.76-29.7.39-2.88.57-5.76.56-8.6-.18-33.04-22.78-61.36-54.94-68.88-5.13-1.13-10.42-1.7-15.71-1.7Zm-45.68,82.2c-6.42,0-11.64-5.22-11.64-11.64.06-26.75,18.27-49.73,44.29-55.89,4.3-.95,8.68-1.44,13.05-1.46,6.43,0,11.65,5.22,11.65,11.64s-5.22,11.64-11.64,11.64c-2.66,0-5.35.29-7.97.86-15.36,3.69-26.11,17.35-26.09,33.21,0,6.42-5.22,11.64-11.64,11.64Zm45.71-63.99c-4,.01-8.02.46-11.94,1.33-23.72,5.62-40.35,26.61-40.41,51.02,0,3.65,2.98,6.63,6.64,6.63s6.64-2.98,6.64-6.64c-.02-18.17,12.31-33.83,29.98-38.08,3.03-.66,6.07-.98,9.09-.98,3.66,0,6.64-2.98,6.64-6.64s-2.98-6.64-6.64-6.64Z"/><path class="cls-1" d="m293.71,352.46h-70.53l2.5-13.72c1.01-5.54,5.83-9.56,11.45-9.56h42.62c5.63,0,10.45,4.02,11.45,9.56l2.5,13.72Zm-64.53-5h58.54l-1.43-7.83c-.57-3.16-3.32-5.46-6.53-5.46h-42.62c-3.21,0-5.96,2.29-6.53,5.46l-1.43,7.83Z"/><path class="cls-1" d="m315.89,400.32l-8.95-49.22,1.35-.91c7.62-5.14,14.37-11.4,20.04-18.61l1.27-1.62,50.3,25.81-.05,1.58c0,.28-.03.57-.05.85-.02.3-.04.6-.04.9,0,2.03.11,4.17.34,6.53l.16,1.69-64.38,32.99Zm-3.45-46.91l7.16,39.39,55.38-28.38c-.14-1.87-.21-3.62-.21-5.31,0-.11,0-.23,0-.34l-43.8-22.48c-5.37,6.53-11.59,12.28-18.53,17.13Z"/><path class="cls-1" d="m258.45,114.8h0c-31.58-.04-57.29-25.76-57.32-57.34,0-.25.02-.49.04-.73,0-.09.02-.18.02-.27v-.32c.32-15.11,6.41-29.21,17.17-39.76S243.31.02,258.37,0h.08c15.03,0,29.24,5.78,40,16.28,10.78,10.52,16.92,24.6,17.27,39.66v.28c0,.08.02.22.03.36.02.29.04.58.04.88-.03,31.59-25.76,57.32-57.34,57.34Zm0-109.8h-.07c-13.75.02-26.72,5.33-36.54,14.95-9.82,9.62-15.38,22.49-15.67,36.24v.27c0,.24-.02.47-.04.71,0,.09-.02.19-.02.29.03,28.82,23.51,52.3,52.33,52.34,28.83-.03,52.32-23.51,52.35-52.35,0-.17-.01-.34-.03-.51-.02-.22-.03-.44-.04-.66v-.29c-.33-13.68-5.92-26.54-15.77-36.14-9.82-9.58-22.79-14.86-36.51-14.86Zm-27.43,64.09c-6.42,0-11.64-5.22-11.64-11.64,0-21.54,17.52-39.06,39.06-39.06,6.42,0,11.64,5.22,11.64,11.64s-5.22,11.64-11.64,11.64c-8.7,0-15.78,7.08-15.78,15.78,0,6.42-5.22,11.64-11.64,11.64Zm27.42-45.7c-18.78,0-34.06,15.28-34.06,34.06,0,3.66,2.98,6.64,6.64,6.64s6.64-2.98,6.64-6.64c0-11.46,9.32-20.78,20.78-20.78,3.66,0,6.64-2.98,6.64-6.64s-2.98-6.64-6.64-6.64Z"/><path class="cls-1" d="m381.9,341.86l-45.03-23.1,1.09-2.21c2.65-5.35,4.76-10.99,6.28-16.75l.79-3.01,46.29,23.74-1.39,2.29c-3.06,5.06-5.47,10.49-7.16,16.15l-.86,2.88Zm-38.4-25.31l35.38,18.15c1.44-4.2,3.25-8.26,5.42-12.14l-36.07-18.5c-1.28,4.26-2.86,8.45-4.73,12.49Z"/><path class="cls-1" d="m459.56,187.93h-.02c-31.59-.03-57.31-25.76-57.34-57.34,0-1.89.09-3.77.29-5.73.01-.24.05-.44.08-.57v-.06c3.44-30.8,30.32-53.14,61.25-50.83,30.91,2.29,54.21,28.35,53.06,59.32-1.15,30.96-26.32,55.21-57.31,55.21Zm-.01-5h.01c28.28,0,51.26-22.13,52.31-50.4,1.05-28.27-20.22-52.05-48.43-54.15-28.19-2.11-52.72,18.24-55.89,46.31-.01.23-.05.43-.08.55v.03c-.19,1.83-.28,3.56-.28,5.31.03,28.83,23.51,52.32,52.35,52.35h0Zm-27.42-40.71c-6.42,0-11.64-5.22-11.64-11.64,0-21.54,17.52-39.06,39.06-39.06,6.42,0,11.64,5.22,11.64,11.64s-5.22,11.64-11.64,11.64c-8.7,0-15.78,7.08-15.78,15.78,0,6.42-5.22,11.64-11.64,11.64Zm27.42-45.71c-18.78,0-34.06,15.28-34.06,34.06,0,3.66,2.98,6.64,6.64,6.64s6.64-2.98,6.64-6.64c0-11.46,9.32-20.78,20.78-20.78,3.66,0,6.64-2.98,6.64-6.64s-2.98-6.64-6.64-6.64Z"/><path class="cls-1" d="m229.04,471.3h-27.45l5.89-32.42h23.55c1.3,0,2.57-.39,3.67-1.12l53.16-35.44h14.91l5.9,32.42h-22.8c-1.31,0-2.59.39-3.69,1.12l-53.15,35.45Zm-21.46-5h19.95l51.89-34.61c1.92-1.28,4.15-1.95,6.45-1.96h16.81l-4.08-22.42h-9.22l-51.91,34.61c-1.92,1.27-4.14,1.95-6.42,1.96h-19.39l-4.07,22.42Z"/><path class="cls-1" d="m118.32,311.21l-1.29-1.32c-7.47-7.67-16.75-13.62-26.84-17.22l-1.58-.56-4.49-96.2,1.57-.69c25.48-11.19,42.07-36.4,42.27-64.24v-1.68s73.94-29.62,73.94-29.62l1.16,1.47c7.57,9.61,17.57,17.12,28.9,21.74l1.56.63v67.92l-1.74.56c-37.02,11.88-62.04,45.98-62.25,84.86,0,1.25.12,2.54.25,3.9.07.74.14,1.48.19,2.22l.11,1.64-51.77,26.6Zm-24.87-22.67c9.61,3.67,18.49,9.36,25.85,16.54l45.55-23.4c-.01-.16-.03-.31-.04-.47-.13-1.42-.27-2.88-.27-4.38.22-40.45,25.86-75.99,63.99-89.03v-60.95c-10.92-4.73-20.61-12.01-28.2-21.16l-67.38,27c-.84,28.55-17.77,54.31-43.66,66.38l4.17,89.46Z"/><path class="cls-1" d="m399.76,309.94l-52.64-26.98.09-1.62c.1-1.75.14-3.14.14-4.49-.22-38.86-25.24-72.96-62.25-84.84l-1.74-.56v-67.92l1.56-.63c11.37-4.64,21.38-12.19,28.97-21.84l1.16-1.47,73.86,29.51v1.69c.11,27.5,16.35,52.62,41.37,64.01l1.54.7-4.59,96.95-1.54.58c-9.27,3.48-17.56,8.75-24.65,15.66l-1.29,1.26Zm-47.47-29.95l46.57,23.87c6.89-6.42,14.79-11.43,23.53-14.92l4.28-90.32c-25.41-12.27-41.98-37.92-42.72-66.13l-67.3-26.89c-7.61,9.19-17.33,16.5-28.28,21.26v60.95c38.12,13.04,63.76,48.58,63.99,89.01,0,1.01-.02,2.02-.07,3.16Z"/><path class="cls-1" d="m463.98,289.8l-2.76-.44c-3.58-.57-7.23-.87-10.83-.88-2.11,0-4.34.11-6.81.34l-2.87.27,4.23-89.43,2.79.48c3.9.67,7.88,1.02,11.82,1.03,1.86,0,3.71-.13,5.76-.3l2.83-.22-4.16,89.14Zm-13.58-6.32c2.94.01,5.9.2,8.84.56l3.64-77.97c-1.12.07-2.21.11-3.34.11-3.29,0-6.6-.24-9.87-.68l-3.7,78.12c1.54-.09,3.01-.14,4.43-.14Z"/><path class="cls-1" d="m201.3,398.64l-64.56-33.08.16-2.18c.11-1.46.21-2.84.21-4.24v-1.53l51.16-26.33,1.28,1.57c5.45,6.7,11.85,12.55,19.02,17.38l1.36.91-8.64,47.49Zm-59.33-36.02l55.61,28.5,6.85-37.66c-6.48-4.53-12.33-9.86-17.45-15.88l-44.9,23.11c-.03.65-.07,1.3-.11,1.94Z"/><path class="cls-1" d="m135.39,343.58l-.81-2.98c-1.55-5.73-3.83-11.24-6.76-16.39l-1.29-2.27,45.75-23.5.83,2.94c1.62,5.73,3.82,11.32,6.55,16.62l1.15,2.22-45.41,23.36Zm-1.97-19.56c2.07,3.94,3.78,8.07,5.13,12.32l35.55-18.29c-1.93-4.01-3.58-8.16-4.93-12.4l-35.75,18.37Z"/><path class="cls-1" d="m390.59,115.45l-68.49-27.37,1.03-2.36c2.38-5.46,4.05-11.21,4.96-17.08l.48-3.1,70.68,28.23-1.38,2.48c-2.88,5.18-5.09,10.71-6.58,16.44l-.71,2.75Zm-61.89-30.11l58.52,23.38c1.28-4.27,2.94-8.42,4.96-12.39l-59.69-23.84c-.87,4.38-2.14,8.68-3.79,12.85Z"/><path class="cls-1" d="m322.74,437.95l-4.37-23.97,64.83-33.23.97,2.66c2.03,5.56,4.75,10.84,8.1,15.71l1.61,2.34-71.15,36.48Zm1.22-21.21l2.49,13.69,60.14-30.84c-2.38-3.75-4.42-7.71-6.1-11.83l-56.54,28.98Z"/><path class="cls-1" d="m323.6,517h-130.31l5.88-32.42h31.85c1.3,0,2.57-.39,3.67-1.12l53.16-35.45h23.2l12.54,68.99Zm-124.32-5h118.33l-10.73-58.99h-17.52l-51.91,34.61c-1.92,1.27-4.14,1.95-6.42,1.96h-27.69l-4.07,22.42Z"/><path class="cls-1" d="m66.86,416.45c-14.34,0-27.98-5.32-38.57-15.08-11.01-10.15-17.49-23.98-18.26-38.93-.77-14.96,4.26-29.38,14.17-40.6,9.91-11.23,23.58-18.02,38.52-19.12,14.93-1.1,29.46,3.61,40.9,13.27,11.44,9.66,18.53,23.18,19.96,38.09l.02.21c.13,1.5.25,3.14.25,4.82.11,14.95-5.55,29.14-15.94,39.92-10.39,10.78-24.36,16.96-39.32,17.4-.57.02-1.14.03-1.71.03Zm.1-108.89c-1.29,0-2.58.05-3.88.14-13.62,1-26.1,7.2-35.14,17.44-9.04,10.24-13.63,23.4-12.92,37.04.7,13.64,6.62,26.25,16.66,35.51,10.04,9.26,23.08,14.13,36.74,13.74,13.65-.4,26.39-6.04,35.87-15.88,9.48-9.83,14.64-22.77,14.54-36.43,0-1.52-.11-3.03-.23-4.44v-.15c-1.32-13.59-7.78-25.92-18.22-34.72-9.44-7.97-21.19-12.25-33.43-12.25Zm-27.89,63.18c-6.42,0-11.64-5.22-11.64-11.64,0-21.54,17.52-39.07,39.06-39.07,6.42,0,11.64,5.22,11.64,11.64s-5.22,11.64-11.64,11.64c-8.7,0-15.78,7.08-15.78,15.78,0,6.42-5.22,11.64-11.64,11.64Zm27.42-45.71c-18.78,0-34.06,15.28-34.06,34.07,0,3.66,2.98,6.64,6.64,6.64s6.64-2.98,6.64-6.64c0-11.46,9.32-20.78,20.78-20.78,3.66,0,6.64-2.98,6.64-6.64s-2.98-6.64-6.64-6.64Z"/><path class="cls-1" d="m194.46,436.23l-70.46-36.14,1.52-2.33c3.23-4.94,5.84-10.27,7.74-15.84l.93-2.74,64.62,33.12-4.35,23.93Zm-63.28-38.08l59.56,30.55,2.48-13.65-56.22-28.81c-1.59,4.13-3.54,8.12-5.83,11.91Z"/><path class="cls-1" d="m450.38,416.77c-11.43,0-22.8-3.44-32.61-10.22-17.65-12.21-26.95-33.02-24.27-54.31,3.76-29.89,30.26-51.89,60.33-50.09,30.07,1.8,53.75,26.81,53.91,56.94h0c.11,21.46-11.61,41.01-30.59,51.02-8.44,4.45-17.63,6.66-26.78,6.66Zm.01-109.72c-26.13,0-48.63,19.58-51.92,45.81-2.45,19.44,6.04,38.43,22.15,49.58,16.11,11.14,36.88,12.39,54.21,3.25,17.32-9.14,28.02-26.99,27.92-46.57h0c-.15-27.5-21.77-50.33-49.21-51.98-1.05-.06-2.1-.09-3.14-.09Zm-27.41,63.69c-6.42,0-11.64-5.22-11.64-11.64,0-21.54,17.52-39.07,39.06-39.07,6.42,0,11.64,5.22,11.64,11.64s-5.22,11.64-11.64,11.64c-8.7,0-15.78,7.08-15.78,15.78,0,6.42-5.22,11.64-11.64,11.64Zm27.42-45.71c-18.78,0-34.06,15.28-34.06,34.07,0,3.66,2.98,6.64,6.64,6.64s6.64-2.98,6.64-6.64c0-11.46,9.32-20.78,20.78-20.78,3.66,0,6.64-2.98,6.64-6.64s-2.98-6.64-6.64-6.64Z"/><path class="cls-1" d="m514.31,517h-22.46l-27.65-88.65,2.6-.62c4.55-1.09,9.02-2.64,13.27-4.62l2.54-1.18,31.69,95.08Zm-18.78-5h11.84l-27.74-83.23c-2.96,1.24-5.99,2.3-9.08,3.15l24.98,80.08Z"/><path class="cls-1" d="m477.93,517h-30.91l-12.77-89.1,3.42.62c3.7.67,7.47,1.05,11.23,1.13l1.8.04,27.23,87.31Zm-26.58-5h19.78l-24.14-77.41c-2.28-.1-4.55-.3-6.81-.61l11.18,78.02Z"/><path class="cls-1" d="m51.99,290.03l-4.24-89.43,2.87.27c2.43.23,4.63.34,6.73.34,3.65-.03,7.32-.34,10.9-.93l2.78-.46,4.16,89.22-2.85-.25c-1.71-.15-3.74-.3-5.84-.3-3.91.03-7.85.38-11.71,1.06l-2.79.49Zm1.03-83.96l3.7,78.11c3.23-.44,6.5-.68,9.76-.7,1.2,0,2.36.04,3.45.11l-3.63-77.97c-2.94.37-5.93.57-8.92.6-1.41,0-2.85-.05-4.35-.14Z"/><path class="cls-1" d="m25.03,517H2.57l31.7-95.08,2.54,1.18c4.25,1.98,8.72,3.54,13.27,4.62l2.6.62-27.65,88.65Zm-15.53-5h11.85l24.98-80.08c-3.09-.86-6.12-1.91-9.08-3.15l-27.75,83.23Z"/><path class="cls-1" d="m126.34,115.68l-.71-2.76c-1.47-5.76-3.68-11.33-6.57-16.57l-1.37-2.48,70.62-28.16.5,3.08c.94,5.87,2.62,11.6,5,17.04l1.03,2.36-68.51,27.49Zm-1.57-19.25c2.02,4.02,3.68,8.2,4.96,12.5l58.52-23.48c-1.64-4.15-2.92-8.43-3.81-12.81l-59.67,23.79Z"/><path class="cls-1" d="m69.87,517h-30.92l27.23-87.31,1.8-.04c3.76-.08,7.54-.46,11.23-1.13l3.42-.62-12.76,89.1Zm-24.12-5h19.78l11.17-78.02c-2.26.31-4.54.51-6.81.61l-24.14,77.41Z"/><path class="cls-1" d="m57.35,187.93h0C25.76,187.9.03,162.17,0,130.58,0,98.96,25.73,73.24,57.35,73.24s57.34,25.72,57.34,57.34-25.72,57.35-57.34,57.35Zm0-109.69c-28.86,0-52.35,23.48-52.35,52.34.03,28.83,23.52,52.32,52.35,52.35,28.86,0,52.34-23.48,52.34-52.35s-23.48-52.34-52.34-52.34Zm-27.42,63.99c-6.42,0-11.64-5.22-11.64-11.64,0-21.54,17.52-39.06,39.07-39.06,6.42,0,11.64,5.22,11.64,11.64s-5.22,11.64-11.64,11.64c-8.7,0-15.78,7.08-15.78,15.78,0,6.42-5.22,11.64-11.64,11.64Zm27.42-45.71c-18.78,0-34.07,15.28-34.07,34.06,0,3.66,2.98,6.64,6.64,6.64s6.64-2.98,6.64-6.64c0-11.46,9.32-20.78,20.78-20.78,3.66,0,6.64-2.98,6.64-6.64s-2.98-6.64-6.64-6.64Z"/></svg>