<?xml version="1.0" encoding="UTF-8"?><svg id="Layer_1" xmlns="http://www.w3.org/2000/svg" viewBox="0 0 512 512"><defs><style>.cls-1{fill:#001489;}</style></defs><path class="cls-1" d="m265.2,127.45c-6.07.84-12.22.84-18.28,0v55.99c6.08-.61,12.2-.61,18.28,0v-55.99Z"/><path class="cls-1" d="m210.5,420.59h15.39l52.54-35.03c1.5-1,3.25-1.53,5.05-1.54h11.49l-3.33-18.28h-71.17l-9.97,54.85Z"/><path class="cls-1" d="m317.46,314.01c6-9.28,9.81-19.8,11.14-30.76.4-2.96.59-5.93.58-8.91-.19-34.06-23.71-63.55-56.87-71.3-10.73-2.37-21.85-2.37-32.58,0-23.49,5.38-42.83,21.99-51.68,44.41-8.86,22.41-6.1,47.76,7.37,67.74,3.74,5.51,8.22,10.47,13.32,14.76,3.6-11.33,14.12-19.04,26.01-19.05h42.62c11.87.01,22.37,7.68,26.01,18.98,5.46-4.56,10.21-9.91,14.09-15.87Zm-61.41-76.24c-2.86,0-5.71.31-8.5.91-16.47,3.96-28.08,18.71-28.06,35.65,0,5.05-4.09,9.14-9.14,9.14s-9.14-4.09-9.14-9.14c.06-25.47,17.58-47.58,42.37-53.46,4.1-.91,8.28-1.37,12.48-1.39,5.05,0,9.14,4.09,9.14,9.14s-4.09,9.14-9.14,9.14Z"/><path class="cls-1" d="m277.36,329.18h-42.62c-4.42,0-8.2,3.16-8.99,7.51l-1.96,10.78h64.53l-1.96-10.78c-.79-4.35-4.58-7.51-8.99-7.51Z"/><path class="cls-1" d="m375.24,363.38c-.21-2.2-.35-4.49-.35-6.77,0-.61.07-1.22.09-1.83l-47.06-24.15c-5.83,7.41-12.79,13.87-20.61,19.14l8.05,44.3,59.87-30.68Z"/><path class="cls-1" d="m256.05,109.8c30.28-.03,54.82-24.56,54.85-54.84,0-.42-.05-.82-.07-1.24v-.22C310.13,23.72,285.77-.04,255.99,0s-54.08,23.86-54.7,53.64v.32c0,.33-.06.66-.06,1,.03,30.27,24.56,54.8,54.83,54.84Zm0-91.41c5.05,0,9.14,4.09,9.14,9.14s-4.09,9.14-9.14,9.14c-10.1,0-18.28,8.19-18.28,18.28,0,5.05-4.09,9.14-9.14,9.14s-9.14-4.09-9.14-9.14c0-20.19,16.37-36.56,36.56-36.56Z"/><path class="cls-1" d="m385.4,319.04l-41.13-21.1c-1.57,5.94-3.73,11.71-6.46,17.22l40.17,20.6c1.75-5.87,4.25-11.49,7.42-16.73Z"/><path class="cls-1" d="m457.16,182.93c29.5,0,53.73-23.32,54.82-52.8,1.1-29.48-21.32-54.55-50.74-56.73-29.42-2.19-55.3,19.29-58.57,48.61,0,.17-.07.35-.07.52-.18,1.83-.29,3.66-.29,5.56.03,30.28,24.57,54.82,54.85,54.85Zm0-91.41c5.05,0,9.14,4.09,9.14,9.14s-4.09,9.14-9.14,9.14c-10.1,0-18.28,8.19-18.28,18.28,0,5.05-4.09,9.14-9.14,9.14s-9.14-4.09-9.14-9.14c0-20.19,16.37-36.56,36.56-36.56Z"/><path class="cls-1" d="m278.41,431.27c1.5-1,3.27-1.53,5.07-1.54h19.8l-4.99-27.42h-12.07l-52.54,35.03c-1.5.99-3.25,1.53-5.05,1.53h-21.46l-4.98,27.42h23.7l52.52-35.03Z"/><path class="cls-1" d="m84.32,195l4.33,92.81c10.5,3.75,20.01,9.85,27.79,17.83l48.66-25c-.14-2.11-.45-4.21-.45-6.31.22-39.85,26.04-75.05,63.99-87.22v-64.42c-11.76-4.79-22.06-12.54-29.92-22.51l-70.63,28.3c-.2,28.86-17.34,54.91-43.76,66.51Z"/><path class="cls-1" d="m283.48,122.7v64.42c37.94,12.18,63.76,47.37,63.99,87.22,0,1.62-.06,3.12-.15,4.63l49.59,25.42c7.29-7.12,15.98-12.64,25.51-16.22l4.43-93.61c-25.99-11.83-42.72-37.72-42.83-66.28l-70.56-28.19c-7.87,10.01-18.2,17.79-29.99,22.6Z"/><path class="cls-1" d="m444.92,200.11l-3.96,83.73c2.33-.22,4.68-.36,7.06-.36,3.75.02,7.5.32,11.21.91l3.9-83.52c-1.97.16-3.95.3-5.97.3-4.1-.01-8.2-.37-12.24-1.07Z"/><path class="cls-1" d="m204.79,349.81c-7.37-4.96-13.96-10.98-19.56-17.87l-48.01,24.71c0,1.66-.14,3.3-.26,4.95l60.08,30.79,7.74-42.57Z"/><path class="cls-1" d="m168.3,299.56l-40.71,20.91c3.04,5.34,5.39,11.04,7,16.98l40.44-20.8c-2.81-5.46-5.07-11.18-6.74-17.09Z"/><path class="cls-1" d="m393.31,92.54l-65.13-26.01c-.95,6.09-2.68,12.04-5.14,17.69l63.46,25.36c1.54-5.94,3.83-11.67,6.81-17.03Z"/><path class="cls-1" d="m318.78,412.86l3.43,18.83,65.62-33.65c-3.47-5.05-6.29-10.52-8.39-16.27l-60.66,31.09Z"/><path class="cls-1" d="m286.22,448.01l-52.54,35.03c-1.5.99-3.25,1.53-5.05,1.53h-29.76l-4.98,27.42h124.32l-11.63-63.99h-20.36Z"/><path class="cls-1" d="m118.69,351.81c-2.82-29.47-28.67-51.27-58.19-49.1-29.52,2.18-51.89,27.54-50.37,57.1,1.52,29.56,26.38,52.49,55.97,51.62,29.59-.87,53.06-25.22,52.84-54.82,0-1.57-.11-3.11-.24-4.64v-.16Zm-54.61-13.49c-10.1,0-18.28,8.18-18.28,18.28,0,5.05-4.09,9.14-9.14,9.14s-9.14-4.09-9.14-9.14c0-20.19,16.37-36.57,36.56-36.57,5.05,0,9.14,4.09,9.14,9.14s-4.09,9.14-9.14,9.14Z"/><path class="cls-1" d="m125.22,396.63l64.99,33.34,3.42-18.79-60.39-30.95c-1.97,5.78-4.67,11.29-8.01,16.41Z"/><path class="cls-1" d="m502.86,356.61c-.16-28.9-22.71-52.73-51.56-54.46-28.85-1.73-54.09,19.23-57.7,47.9-2.55,20.29,6.39,40.31,23.21,51.95s38.71,12.95,56.8,3.41,29.36-28.35,29.26-48.8Zm-73.13,0c0,5.05-4.09,9.14-9.14,9.14s-9.14-4.09-9.14-9.14c0-20.19,16.37-36.57,36.56-36.57,5.05,0,9.14,4.09,9.14,9.14s-4.09,9.14-9.14,9.14c-10.1,0-18.28,8.18-18.28,18.28Z"/><path class="cls-1" d="m465,427.66l26.31,84.34h17.15l-29.71-89.13c-4.41,2.05-9.01,3.66-13.75,4.79Z"/><path class="cls-1" d="m434.83,428.48l11.97,83.52h25.35l-25.69-82.35c-3.9-.08-7.79-.47-11.63-1.17Z"/><path class="cls-1" d="m47.99,200.85l3.97,83.72c4.01-.7,8.07-1.07,12.14-1.1,2.05,0,4.06.14,6.06.31l-3.89-83.55c-3.74.62-7.52.94-11.31.97-2.35,0-4.67-.14-6.97-.36Z"/><path class="cls-1" d="m33.36,422.87L3.65,512h17.16l26.31-84.34c-4.73-1.13-9.34-2.73-13.75-4.79Z"/><path class="cls-1" d="m189.14,84.33c-2.46-5.64-4.2-11.56-5.17-17.64l-65.09,25.95c2.98,5.41,5.27,11.17,6.8,17.16l63.47-25.47Z"/><path class="cls-1" d="m39.96,512h25.35l11.96-83.52c-3.84.7-7.72,1.09-11.63,1.17l-25.69,82.35Z"/><path class="cls-1" d="m54.96,182.93c30.29,0,54.84-24.56,54.84-54.85s-24.55-54.84-54.84-54.84S.11,97.79.11,128.08c.03,30.28,24.57,54.82,54.85,54.85Zm0-91.41c5.05,0,9.14,4.09,9.14,9.14s-4.09,9.14-9.14,9.14c-10.1,0-18.28,8.19-18.28,18.28,0,5.05-4.09,9.14-9.14,9.14s-9.14-4.09-9.14-9.14c0-20.19,16.37-36.56,36.57-36.56Z"/></svg>