<?xml version="1.0" encoding="UTF-8"?><svg id="Layer_1" xmlns="http://www.w3.org/2000/svg" viewBox="0 0 515.91 516"><defs><style>.cls-1{fill:#fd0;}</style></defs><path class="cls-1" d="m246.81,187.65v-60.49l2.27.31c5.88.81,11.85.81,17.73,0l2.27-.31v60.49l-2.2-.22c-5.93-.59-11.95-.59-17.88,0l-2.2.22Zm11.14-4.66c2.38,0,4.77.09,7.14.27v-51.55c-4.75.5-9.53.5-14.28,0v51.55c2.37-.18,4.76-.27,7.14-.27Z"/><path class="cls-1" d="m228.38,424.59h-18.39l10.7-58.85h74.51l4.05,22.28h-13.89c-1.4,0-2.77.43-3.94,1.2l-53.05,35.36Zm-13.6-4h12.39l52.04-34.69c1.82-1.21,3.94-1.86,6.14-1.88h9.11l-2.6-14.28h-67.83l-9.24,50.85Z"/><path class="cls-1" d="m211.62,335.41l-2.29-1.93c-5.24-4.41-9.84-9.51-13.68-15.17-13.85-20.55-16.68-46.57-7.58-69.6,9.1-23.04,28.95-40.09,53.1-45.62,10.95-2.42,22.52-2.42,33.46,0,34.23,8,58.25,38.12,58.44,73.24.02,3.04-.18,6.14-.6,9.19-1.36,11.17-5.32,22.1-11.44,31.58h0c-3.99,6.13-8.86,11.62-14.49,16.32l-2.28,1.9-.91-2.83c-3.38-10.51-13.06-17.58-24.1-17.59h-42.61c-11.06.01-20.75,7.11-24.11,17.66l-.91,2.85Zm46.29-130.13c-5.34,0-10.67.57-15.87,1.72-22.84,5.23-41.64,21.38-50.25,43.19-8.62,21.81-5.94,46.44,7.17,65.89,3.1,4.56,6.73,8.75,10.8,12.47,4.61-10.65,15.06-17.63,26.87-17.64h42.62c11.78.01,22.23,6.96,26.86,17.58,4.42-4.01,8.3-8.56,11.56-13.56,5.8-8.97,9.55-19.31,10.83-29.91.39-2.9.58-5.8.56-8.66-.18-33.27-22.94-61.79-55.33-69.36-5.17-1.14-10.5-1.71-15.83-1.71Zm-45.68,82.2c-6.14,0-11.14-5-11.14-11.14.06-26.51,18.12-49.29,43.9-55.4,4.26-.94,8.6-1.43,12.93-1.44,6.15,0,11.15,5,11.15,11.14s-5,11.14-11.14,11.14c-2.7,0-5.42.29-8.08.87-15.59,3.75-26.5,17.61-26.48,33.7,0,6.14-5,11.14-11.14,11.14Zm45.71-63.99c-4.04.01-8.1.47-12.05,1.34-23.95,5.68-40.74,26.86-40.8,51.51,0,3.93,3.2,7.13,7.14,7.13s7.14-3.2,7.14-7.14c-.02-17.94,12.15-33.4,29.59-37.6,2.99-.65,5.99-.97,8.97-.97,3.94,0,7.14-3.2,7.14-7.14s-3.2-7.14-7.14-7.14Z"/><path class="cls-1" d="m292.61,351.46h-69.33l2.39-13.13c.97-5.3,5.58-9.15,10.96-9.15h42.62c5.39,0,10,3.85,10.96,9.15l2.39,13.13Zm-64.53-4h59.74l-1.53-8.42c-.62-3.4-3.57-5.87-7.03-5.87h-42.62c-3.45,0-6.41,2.47-7.03,5.87l-1.53,8.42Z"/><path class="cls-1" d="m315.77,399.07l-8.77-48.23,1.08-.73c7.67-5.17,14.45-11.47,20.16-18.72l1.02-1.29,49.65,25.48-.04,1.27c0,.28-.03.55-.05.83-.02.31-.04.62-.04.93,0,2.05.11,4.2.34,6.58l.13,1.35-63.48,32.53Zm-4.37-46.39l7.34,40.37,56.28-28.84c-.16-1.98-.24-3.83-.24-5.61,0-.21,0-.43.02-.64l-44.45-22.81c-5.47,6.7-11.84,12.59-18.95,17.53Z"/><path class="cls-1" d="m257.95,113.8h0c-31.3-.04-56.79-25.54-56.83-56.84,0-.23.02-.46.04-.69,0-.1.02-.21.02-.31v-.32c.31-14.97,6.36-28.95,17.02-39.4C228.85,5.79,242.95.02,257.88,0h.08c14.9,0,28.98,5.73,39.65,16.13,10.69,10.42,16.77,24.39,17.12,39.31v.27c0,.1.02.25.03.4.02.28.04.56.04.85-.03,31.32-25.53,56.82-56.84,56.84Zm0-109.8h-.07c-13.88.02-26.98,5.38-36.89,15.1s-15.53,22.71-15.82,36.59v.28c0,.22-.02.44-.04.67,0,.11-.02.22-.02.33.03,29.1,23.73,52.8,52.83,52.84,29.11-.03,52.82-23.73,52.85-52.85,0-.18-.02-.37-.03-.55-.02-.21-.03-.42-.04-.64v-.28c-.33-13.83-5.98-26.8-15.92-36.5-9.92-9.67-23.01-15-36.86-15Zm-27.43,64.1c-6.14,0-11.14-5-11.14-11.14,0-21.26,17.3-38.56,38.56-38.56,6.14,0,11.14,5,11.14,11.14s-5,11.14-11.14,11.14c-8.98,0-16.28,7.3-16.28,16.28,0,6.14-5,11.14-11.14,11.14Zm27.42-45.7c-19.06,0-34.56,15.5-34.56,34.56,0,3.94,3.2,7.14,7.14,7.14s7.14-3.2,7.14-7.14c0-11.18,9.1-20.28,20.28-20.28,3.94,0,7.14-3.2,7.14-7.14s-3.2-7.14-7.14-7.14Z"/><path class="cls-1" d="m381.09,340.64l-44.06-22.6.87-1.77c2.66-5.38,4.79-11.05,6.32-16.85l.63-2.41,45.25,23.21-1.11,1.84c-3.08,5.09-5.51,10.56-7.22,16.26l-.69,2.3Zm-38.75-24.37l36.33,18.63c1.51-4.52,3.46-8.9,5.82-13.05l-37.07-19.01c-1.34,4.59-3.04,9.1-5.08,13.43Z"/><path class="cls-1" d="m459.06,186.93h-.02c-31.31-.03-56.81-25.53-56.85-56.85,0-1.88.09-3.74.29-5.69.01-.22.05-.41.07-.53v-.08c3.41-30.53,30.06-52.67,60.71-50.39,30.64,2.27,53.74,28.1,52.59,58.8-1.14,30.69-26.1,54.73-56.81,54.73Zm-.01-4h.01c28.55,0,51.75-22.34,52.81-50.88,1.07-28.54-20.41-52.55-48.89-54.67-28.45-2.1-53.23,18.42-56.42,46.77-.01.22-.05.4-.08.52v.05c-.19,1.84-.28,3.6-.28,5.36.03,29.11,23.74,52.82,52.85,52.85h0Zm-27.42-41.71c-6.14,0-11.14-5-11.14-11.14,0-21.26,17.3-38.56,38.56-38.56,6.14,0,11.14,5,11.14,11.14s-5,11.14-11.14,11.14c-8.98,0-16.28,7.3-16.28,16.28,0,6.14-5,11.14-11.14,11.14Zm27.42-45.71c-19.06,0-34.56,15.5-34.56,34.56,0,3.94,3.2,7.14,7.14,7.14s7.14-3.2,7.14-7.14c0-11.18,9.1-20.28,20.28-20.28,3.94,0,7.14-3.2,7.14-7.14s-3.2-7.14-7.14-7.14Z"/><path class="cls-1" d="m228.38,470.3h-26.7l5.71-31.42h23.13c1.4,0,2.76-.42,3.94-1.2l53.04-35.36h14.34l5.72,31.42h-22.2c-1.41,0-2.79.42-3.96,1.2l-53.02,35.36Zm-21.91-4h20.7l52.01-34.69c1.83-1.22,3.97-1.87,6.18-1.87h17.41l-4.26-23.42h-9.79l-52.04,34.69c-1.84,1.22-3.96,1.86-6.15,1.87h-19.8l-4.26,23.42Z"/><path class="cls-1" d="m117.93,310.1l-1.03-1.06c-7.52-7.72-16.87-13.72-27.03-17.34l-1.26-.45-4.46-95.52,1.26-.55c25.66-11.27,42.37-36.66,42.57-64.69v-1.34s73.28-29.36,73.28-29.36l.93,1.17c7.63,9.67,17.69,17.25,29.1,21.89l1.25.51v67.22l-1.39.45c-37.23,11.95-62.38,46.24-62.6,85.33,0,1.28.12,2.58.25,3.95.07.74.14,1.47.19,2.21l.09,1.31-51.14,26.28Zm-25.45-21.71c9.78,3.69,18.8,9.47,26.24,16.8l46.17-23.72c-.02-.27-.05-.54-.07-.8-.13-1.41-.27-2.86-.27-4.33.22-40.35,25.87-75.79,63.99-88.67v-61.64c-11.08-4.75-20.9-12.12-28.55-21.43l-68.02,27.26c-.71,28.61-17.7,54.43-43.68,66.41l4.21,90.12Z"/><path class="cls-1" d="m399.16,308.83l-52.03-26.67.07-1.3c.1-1.76.15-3.15.15-4.52-.22-39.08-25.38-73.37-62.6-85.32l-1.39-.45v-67.22l1.24-.51c11.45-4.67,21.54-12.28,29.17-21.99l.92-1.18,73.2,29.25v1.35c.11,27.69,16.46,53,41.66,64.47l1.23.56-4.56,96.28-1.23.46c-9.34,3.5-17.69,8.81-24.82,15.77l-1.03,1.01Zm-47.89-29.05l47.17,24.18c6.98-6.56,15.02-11.66,23.93-15.18l4.31-90.97c-25.51-12.18-42.13-37.9-42.75-66.16l-67.94-27.14c-7.66,9.35-17.51,16.76-28.62,21.53v61.64c38.11,12.88,63.76,48.32,63.99,88.66,0,1.09-.03,2.19-.08,3.45Z"/><path class="cls-1" d="m463,288.72l-2.21-.35c-3.61-.58-7.28-.88-10.9-.89-2.13,0-4.38.11-6.86.35l-2.29.21,4.18-88.29,2.23.39c3.93.68,7.93,1.03,11.9,1.04,1.88,0,3.74-.13,5.8-.3l2.26-.18-4.11,88.02Zm-13.1-5.24c3.1.01,6.22.22,9.31.62l3.69-79.07c-1.3.09-2.56.14-3.86.14-3.45,0-6.92-.26-10.35-.75l-3.75,79.23c1.73-.12,3.37-.18,4.95-.18Z"/><path class="cls-1" d="m200.43,397.39l-63.66-32.62.14-1.85c.11-1.47.21-2.86.21-4.27v-1.22l50.53-26.01,1.02,1.26c5.48,6.74,11.92,12.62,19.13,17.47l1.08.73-8.46,46.51Zm-59.48-34.97l56.51,28.95,7.03-38.64c-6.65-4.62-12.66-10.09-17.88-16.28l-45.51,23.42c-.03.86-.08,1.71-.14,2.54Z"/><path class="cls-1" d="m135.21,342.36l-.65-2.39c-1.56-5.77-3.86-11.32-6.81-16.51l-1.03-1.81,44.74-22.98.66,2.35c1.63,5.77,3.85,11.39,6.59,16.71l.92,1.78-44.42,22.85Zm-2.97-19.05c2.25,4.23,4.1,8.67,5.5,13.25l36.52-18.79c-2.1-4.3-3.87-8.76-5.29-13.33l-36.73,18.87Z"/><path class="cls-1" d="m389.75,114.27l-67.49-26.97.82-1.89c2.39-5.5,4.08-11.29,5-17.2l.39-2.48,69.57,27.79-1.1,1.99c-2.9,5.22-5.13,10.79-6.62,16.56l-.57,2.2Zm-62.2-29.16l59.5,23.77c1.34-4.6,3.12-9.06,5.33-13.32l-60.76-24.27c-.9,4.72-2.26,9.35-4.06,13.81Z"/><path class="cls-1" d="m322.61,436.7l-4.18-22.94,63.99-32.8.78,2.13c2.04,5.59,4.79,10.92,8.16,15.83l1.29,1.88-70.04,35.91Zm.29-20.73l2.68,14.72,61.23-31.39c-2.59-4.02-4.78-8.28-6.56-12.72l-57.35,29.4Z"/><path class="cls-1" d="m322.5,516h-129.11l5.7-31.42h31.43c1.4,0,2.76-.42,3.94-1.2l53.04-35.36h22.63l12.36,67.99Zm-124.32-4h119.53l-10.91-59.99h-18.08l-52.04,34.7c-1.84,1.22-3.96,1.86-6.15,1.87h-28.1l-4.25,23.42Z"/><path class="cls-1" d="m66.36,415.45c-14.22,0-27.73-5.27-38.23-14.95-10.91-10.06-17.34-23.77-18.1-38.59-.76-14.82,4.22-29.12,14.04-40.25s23.38-17.86,38.18-18.95c14.8-1.1,29.2,3.58,40.54,13.15,11.34,9.57,18.37,22.98,19.79,37.75v.2c.14,1.49.26,3.12.26,4.79.11,14.83-5.5,28.88-15.8,39.57s-24.14,16.81-38.98,17.25c-.57.02-1.13.03-1.7.03Zm.1-108.89c-1.3,0-2.61.05-3.92.14-13.75,1.01-26.35,7.27-35.47,17.61-9.12,10.34-13.76,23.62-13.05,37.4.71,13.77,6.68,26.5,16.82,35.85s23.29,14.27,37.1,13.87c13.78-.41,26.65-6.1,36.22-16.03,9.57-9.93,14.78-22.99,14.68-36.78,0-1.53-.11-3.06-.23-4.48v-.15c-1.33-13.72-7.86-26.17-18.39-35.06-9.54-8.05-21.4-12.37-33.76-12.37Zm-27.89,63.18c-6.14,0-11.14-5-11.14-11.14,0-21.27,17.3-38.57,38.56-38.57,6.14,0,11.14,5,11.14,11.14s-5,11.14-11.14,11.14c-8.98,0-16.28,7.3-16.28,16.28,0,6.14-5,11.14-11.14,11.14Zm27.42-45.71c-19.06,0-34.56,15.51-34.56,34.57,0,3.94,3.2,7.14,7.14,7.14s7.14-3.2,7.14-7.14c0-11.18,9.1-20.28,20.28-20.28,3.94,0,7.14-3.2,7.14-7.14s-3.2-7.14-7.14-7.14Z"/><path class="cls-1" d="m193.59,434.98l-69.37-35.58,1.22-1.86c3.26-4.98,5.88-10.35,7.79-15.96l.75-2.19,63.77,32.68-4.17,22.91Zm-63.61-37.13l60.64,31.11,2.67-14.68-57.04-29.23c-1.67,4.45-3.77,8.74-6.27,12.81Z"/><path class="cls-1" d="m449.88,415.77c-11.33,0-22.61-3.41-32.32-10.13-17.5-12.1-26.71-32.73-24.06-53.84,3.72-29.63,30-51.45,59.8-49.65,29.81,1.79,53.28,26.58,53.44,56.44h0c.11,21.27-11.51,40.65-30.32,50.58-8.37,4.41-17.47,6.6-26.55,6.6Zm.01-109.72c-26.38,0-49.09,19.76-52.42,46.25-2.47,19.62,6.1,38.8,22.36,50.05,16.26,11.25,37.23,12.51,54.72,3.28,17.49-9.23,28.29-27.24,28.19-47.02h0c-.15-27.76-21.97-50.81-49.68-52.47-1.06-.06-2.12-.09-3.17-.09Zm-27.41,63.69c-6.14,0-11.14-5-11.14-11.14,0-21.27,17.3-38.57,38.56-38.57,6.14,0,11.14,5,11.14,11.14s-5,11.14-11.14,11.14c-8.98,0-16.28,7.3-16.28,16.28,0,6.14-5,11.14-11.14,11.14Zm27.42-45.71c-19.06,0-34.56,15.51-34.56,34.57,0,3.94,3.2,7.14,7.14,7.14s7.14-3.2,7.14-7.14c0-11.18,9.1-20.28,20.28-20.28,3.94,0,7.14-3.2,7.14-7.14s-3.2-7.14-7.14-7.14Z"/><path class="cls-1" d="m513.12,516h-21.39l-27.38-87.79,2.08-.5c4.58-1.09,9.08-2.66,13.37-4.66l2.03-.95,31.29,93.89Zm-18.45-4h12.9l-28.13-84.4c-3.25,1.4-6.6,2.56-10.01,3.48l25.24,80.92Z"/><path class="cls-1" d="m476.75,516h-29.8l-12.61-87.98,2.73.5c3.72.68,7.53,1.06,11.31,1.14l1.44.03,26.92,86.32Zm-26.33-4h20.89l-24.45-78.39c-2.6-.1-5.2-.34-7.78-.71l11.33,79.11Z"/><path class="cls-1" d="m51.96,288.94l-4.18-88.29,2.3.22c2.45.23,4.66.35,6.78.35,3.68-.03,7.38-.34,10.98-.94l2.22-.37,4.11,88.08-2.28-.2c-1.72-.15-3.76-.3-5.89-.3-3.93.03-7.91.39-11.79,1.07l-2.24.39Zm.03-83.9l3.75,79.21c3.39-.49,6.82-.75,10.23-.77,1.39,0,2.73.06,3.97.14l-3.68-79.07c-3.1.42-6.25.64-9.4.66-1.57,0-3.18-.06-4.88-.17Z"/><path class="cls-1" d="m24.17,516H2.76l31.3-93.89,2.03.95c4.28,1.99,8.78,3.56,13.37,4.66l2.08.5-27.38,87.79Zm-15.85-4h12.91l25.24-80.92c-3.41-.92-6.76-2.08-10.01-3.48l-28.14,84.4Z"/><path class="cls-1" d="m126.18,114.51l-.56-2.21c-1.48-5.8-3.7-11.41-6.61-16.68l-1.09-1.98,69.52-27.71.4,2.46c.95,5.91,2.64,11.68,5.03,17.16l.82,1.89-67.5,27.08Zm-2.61-18.83c2.21,4.3,3.99,8.81,5.33,13.43l59.5-23.87c-1.8-4.45-3.17-9.06-4.08-13.77l-60.74,24.22Z"/><path class="cls-1" d="m68.94,516h-29.8l26.92-86.32,1.44-.03c3.78-.08,7.59-.46,11.31-1.14l2.73-.5-12.6,87.98Zm-24.37-4h20.9l11.33-79.11c-2.57.37-5.18.61-7.78.71l-24.45,78.39Z"/><path class="cls-1" d="m56.85,186.93h0C25.53,186.9.03,161.4,0,130.08,0,98.74,25.5,73.24,56.85,73.24s56.84,25.5,56.84,56.84-25.5,56.85-56.84,56.85Zm0-109.69c-29.14,0-52.85,23.71-52.85,52.84.03,29.11,23.74,52.81,52.85,52.85,29.14,0,52.84-23.71,52.84-52.85s-23.71-52.84-52.84-52.84Zm-27.42,63.99c-6.14,0-11.14-5-11.14-11.14,0-21.26,17.3-38.56,38.57-38.56,6.14,0,11.14,5,11.14,11.14s-5,11.14-11.14,11.14c-8.98,0-16.28,7.3-16.28,16.28,0,6.14-5,11.14-11.14,11.14Zm27.42-45.71c-19.06,0-34.57,15.5-34.57,34.56,0,3.94,3.2,7.14,7.14,7.14s7.14-3.2,7.14-7.14c0-11.18,9.1-20.28,20.28-20.28,3.94,0,7.14-3.2,7.14-7.14s-3.2-7.14-7.14-7.14Z"/></svg>