<?xml version="1.0" encoding="UTF-8"?><svg id="Layer_1" xmlns="http://www.w3.org/2000/svg" viewBox="0 0 269.95 413.46"><defs><style>.cls-1{fill:#fd0;}</style></defs><path class="cls-1" d="m213.07,269.95l-68.14-68.14,25.22-25.22-25.82-25.81c-2.97,1.96-6.39,2.99-9.96,2.99-3.15,0-6.24-.83-8.99-2.4L31.85,244.92,0,213.07l68.14-68.14,25.22,25.22,25.37-25.37c-1.64-2.79-2.5-5.94-2.5-9.18,0-3.46.98-6.81,2.84-9.73L25.03,31.85,56.88,0l68.14,68.14-25.22,25.22,26.17,26.17c2.6-1.37,5.49-2.08,8.42-2.08,3.13,0,6.2.82,8.93,2.37L238.1,25.03l31.85,31.85-68.14,68.14-25.22-25.22-26.58,26.58c1.66,2.8,2.53,5.97,2.53,9.23,0,2.83-.67,5.64-1.95,8.17l94.33,94.33-31.85,31.85Zm-65.31-68.14l65.31,65.31,29.02-29.02-93.97-93.97.37-.66c1.34-2.4,2.05-5.12,2.05-7.86,0-3.14-.91-6.2-2.64-8.83l-.45-.68,29.13-29.13,25.22,25.22,65.31-65.31-29.02-29.02-94.49,94.49-.67-.42c-2.58-1.62-5.54-2.47-8.56-2.47-2.83,0-5.63.76-8.09,2.19l-.67.39-28.66-28.66,25.22-25.22L56.88,2.83l-29.02,29.02,93.8,93.8-.48.69c-1.92,2.74-2.94,5.95-2.94,9.28,0,3.12.9,6.16,2.61,8.78l.44.68-27.91,27.91-25.22-25.22L2.83,213.07l29.02,29.02,93.26-93.26.68.43c2.59,1.64,5.57,2.5,8.61,2.5,3.42,0,6.7-1.07,9.48-3.1l.69-.5,28.42,28.42-25.22,25.22Zm65.29,57.55l-8.27-8.27,19.86-19.85,8.26,8.26-19.85,19.86Zm-5.44-8.27l5.44,5.44,17.03-17.03-5.44-5.44-17.03,17.03Zm-10.62-7.8l-8.26-8.27,19.85-19.85,8.26,8.27-19.85,19.85Zm-5.44-8.27l5.44,5.44,17.03-17.03-5.44-5.44-17.03,17.03Zm-161.11-2.13l-19.85-19.85,8.26-8.27,19.86,19.86-8.27,8.26Zm-17.03-19.85l17.03,17.03,5.44-5.44-17.03-17.03-5.44,5.44Zm167.51,14.18l-8.27-8.26,19.86-19.86,8.27,8.27-19.86,19.85Zm-5.44-8.26l5.44,5.44,17.03-17.03-5.44-5.44-17.03,17.03Zm-128.98-2.13l-19.86-19.85,8.27-8.26,19.85,19.85-8.26,8.26Zm-17.03-19.85l17.03,17.03,5.44-5.44-17.03-17.03-5.44,5.44Zm135.39,14.18l-8.27-8.26,19.86-19.85,8.26,8.26-19.85,19.85Zm-5.44-8.26l5.44,5.44,17.03-17.03-5.44-5.44-17.03,17.03Zm-96.86-2.13l-19.85-19.86,8.27-8.27,19.85,19.85-8.27,8.27Zm-17.03-19.86l17.03,17.03,5.44-5.44-17.03-17.03-5.44,5.44Zm33.09,3.79l-19.85-19.85,8.26-8.27,19.86,19.86-8.27,8.27Zm-17.03-19.85l17.03,17.03,5.44-5.44-17.03-17.03-5.44,5.44Zm141.3-51.51l-19.85-19.86,8.26-8.27,19.85,19.86-8.26,8.26Zm-17.03-19.86l17.03,17.03,5.44-5.44-17.03-17.03-5.44,5.44Zm33.09,3.79l-19.86-19.85,8.27-8.27,19.86,19.86-8.27,8.26Zm-17.03-19.85l17.03,17.03,5.44-5.44-17.03-17.03-5.44,5.44Zm-108.44,9.46l-8.27-8.27,19.86-19.85,8.26,8.27-19.85,19.85Zm-5.44-8.27l5.44,5.44,17.03-17.03-5.44-5.44-17.03,17.03Zm146.97,2.59l-19.85-19.86,8.27-8.26,19.85,19.85-8.27,8.27Zm-17.03-19.86l17.03,17.03,5.44-5.44-17.03-17.03-5.44,5.44Zm-140.57,9.46l-8.26-8.27,19.85-19.86,8.26,8.27-19.85,19.86Zm-5.44-8.27l5.44,5.44,17.03-17.03-5.44-5.44-17.03,17.03Zm179.1,2.6l-19.85-19.86,8.26-8.27,19.86,19.86-8.27,8.27Zm-17.03-19.86l17.03,17.03,5.44-5.44-17.03-17.03-5.44,5.44Zm-172.7,9.46l-8.26-8.27,19.85-19.85,8.27,8.27-19.86,19.85Zm-5.44-8.27l5.44,5.44,17.03-17.03-5.44-5.44-17.03,17.03Zm-10.62-7.8l-8.27-8.27,19.85-19.86,8.27,8.27-19.85,19.86Zm-5.44-8.27l5.44,5.44,17.03-17.03-5.44-5.44-17.03,17.03Z"/><path class="cls-1" d="m94.2,163.25l-6.88-6.88.14-.55c2.19-8.38,6.61-16.05,12.77-22.2,3.3-3.3,7.04-6.11,11.13-8.34l.66-.36,1.9,1.9-.23.6c-1,2.62-1.5,5.38-1.5,8.19,0,2.59.43,5.14,1.28,7.59l.21.59-19.47,19.47Zm-4.65-7.48l4.65,4.65,17.17-17.17c-.79-2.47-1.19-5.04-1.19-7.64,0-2.79.46-5.52,1.36-8.14-3.62,2.07-6.94,4.61-9.89,7.57-5.77,5.76-9.95,12.92-12.1,20.74Z"/><path class="cls-1" d="m184.15,169.6l-26.98-26.98.16-.57c.61-2.12.92-4.29.92-6.45,0-2.6-.44-5.17-1.31-7.64l-.21-.59,1.77-1.77h.68l.25.13c14.99,8.64,24.2,24.1,24.64,41.36l.06,2.5Zm-24.73-27.56l22.53,22.53c-1.2-15.26-9.6-28.81-22.85-36.72l-.05.05c.81,2.5,1.22,5.08,1.22,7.7,0,2.15-.28,4.32-.84,6.44Z"/><path class="cls-1" d="m220.71,413.46h-54.62v-31.73c0-8.34-3.24-16.15-9.12-22-5.88-5.88-13.7-9.12-22.01-9.12-17.16,0-31.12,13.96-31.12,31.12v31.73h-54.62v-82.49h-10.08v-17.6h13.71l30.59-112.34,43.84-43.81.59.21c5,1.73,10.74,1.61,15.8-.39l.61-.24,19.79,19.79-25.23,25.23,65.75,65.72.07.26,12.4,45.56h13.71v17.6h-10.08v82.49Zm-52.62-2h50.62v-82.49h10.08v-13.6h-13.24l-12.74-46.78-66.79-66.76,25.23-25.23-17.46-17.46c-5.14,1.87-10.88,2-15.98.38l-42.58,42.56-30.86,113.3h-13.24v13.6h10.08v82.49h50.62v-29.73c0-18.26,14.86-33.12,33.12-33.12,8.85,0,17.16,3.45,23.42,9.7,6.26,6.23,9.7,14.55,9.7,23.42v29.73Zm-14.55-119.3h-37.57v-26.28c0-10.35,8.42-18.77,18.77-18.77s18.8,8.42,18.8,18.77v26.28Zm-35.57-2h33.57v-24.28c0-9.25-7.52-16.77-16.77-16.77s-16.8,7.52-16.8,16.77v24.28Z"/></svg>