<?xml version="1.0" encoding="UTF-8"?><svg id="Layer_1" xmlns="http://www.w3.org/2000/svg" viewBox="0 0 249.35 530.61"><defs><style>.cls-1{fill:#fd0;}</style></defs><path class="cls-1" d="m249.35,530.61l-61.89-109.17v-8.88h5.68v-3.86h-9.06v-11.92h2.86v-3.86h-9.76c-6.19-15.16-17.57-46.74-21.01-69.39h2.21v-3.86h-2.73c-.29-2.53-.46-4.92-.49-7.12h2.19v-3.86h-2.07c.21-2.59.69-4.81,1.49-6.56h3.05v-3.86h-8.35c-1.92-16.18-16.76-144.18-16.97-232.55l3.63-3.63v-17.73l-3.07-3.07v-8.72h-8.46V0h-3.86v32.56h-8.45v8.72l-3.07,3.07v17.73l3.63,3.63c-.21,88.37-15.05,216.37-16.97,232.55h-8.35v3.86h3.05c.8,1.76,1.28,3.97,1.49,6.56h-2.07v3.86h2.19c-.03,2.2-.2,4.59-.49,7.12h-2.73v3.86h2.21c-3.43,22.65-14.82,54.23-21.01,69.39h-9.76v3.86h2.86v11.92h-9.06v3.86h5.68v8.88L0,530.61h40.03l1.87-3.96h22.08l15.72-43.85c12.42-15.21,28.36-23.57,45.01-23.57s32.95,8.55,45.43,24.09l13.25,36.01h20.6l5.32,11.27h40.03Zm-155.34-133.82v11.92h-3.32v-11.92h3.32Zm7.18,0v11.92h-3.32v-11.92h3.32Zm57.47,0v11.92h-3.32v-11.92h3.32Zm-7.18,11.92h-3.32v-11.92h3.32v11.92Zm11.05,0v-11.92h3.32v11.92h-3.32Zm-18.23,0h-3.32v-11.92h3.32v11.92Zm-7.18,0h-3.32v-11.92h3.32v11.92Zm-7.18,0h-3.32v-11.92h3.32v11.92Zm-7.18,0h-3.32v-11.92h3.32v11.92Zm-7.18,0h-3.32v-11.92h3.32v11.92Zm-7.18,0h-3.32v-11.92h3.32v11.92Zm-21.55-11.92v11.92h-3.32v-11.92h3.32Zm-1.09,37.1h15.45c-7.11,2.39-13.94,5.89-20.37,10.43l4.93-10.43Zm62.44,0h15.45l4.93,10.43c-6.43-4.53-13.26-8.03-20.37-10.43Zm21.54-25.18v-11.92h3.32v11.92h-3.32Zm-34.1-78.41c3.6,35.87,9.54,55.83,11.87,62.63h-45.61c2.34-6.8,8.28-26.75,11.87-62.63h21.86Zm-55.97,66.49v11.92h-3.32v-11.92h3.32Zm100.58,11.92h-3.32v-11.92h3.32v11.92Zm-28.41-89.03h-3.65v-7.12h3.22c.02,2.24.17,4.62.44,7.12Zm-29.17-253v15.22s-4.12,0-4.12,0c.1-5.18.17-10.26.18-15.22h3.94Zm8.01,0c.02,4.96.08,10.04.18,15.22h-4.12v-15.22h3.94Zm-12.36,24.55h4.35v8.13s-4.61,0-4.61,0c.1-2.73.18-5.44.26-8.13Zm13.03,8.13h-4.61v-8.13h4.35c.08,2.69.16,5.4.26,8.13Zm.82,172.93h12.53c.33,3.08.64,5.94.93,8.57h-12.73c-.25-2.84-.49-5.7-.73-8.57Zm-.73-8.89c-.23-2.88-.46-5.74-.69-8.57h12.12c.3,2.97.6,5.83.89,8.57h-12.32Zm-1.38-17.47c-.27-3.54-.54-6.99-.79-10.29h11.69c.34,3.53.68,6.97,1.01,10.29h-11.91Zm-3.06-41.48c-.16-2.32-.25-3.64-.26-3.7v-22.18h9.24c.68,8.83,1.4,17.5,2.12,25.88h-11.1Zm-.26-35.22v-8.13h7.95c.19,2.72.39,5.43.58,8.13h-8.54Zm0-17.47v-8.13h6.8c.17,2.71.34,5.42.52,8.13h-7.32Zm0-17.47v-8.13h5.79c.14,2.71.29,5.42.45,8.13h-6.24Zm0-17.47v-8.13h4.97c.11,2.7.23,5.41.36,8.13h-5.33Zm-9.04-8.13h4.97v8.13s-5.33,0-5.33,0c.13-2.72.25-5.43.36-8.13Zm-.83,17.47h5.8v8.13s-6.24,0-6.24,0c.16-2.71.3-5.43.45-8.13Zm5.8,17.47v8.13s-7.32,0-7.32,0c.18-2.71.35-5.42.52-8.13h6.8Zm0,17.47v8.13s-8.54,0-8.54,0c.2-2.7.39-5.41.58-8.13h7.96Zm0,17.47v22.05c0,.09-.1,1.45-.26,3.84h-11.1c.73-8.39,1.44-17.05,2.12-25.88h9.24Zm-2.53,57.07c-.25,3.31-.51,6.75-.79,10.29h-11.91c.33-3.33.67-6.76,1.01-10.29h11.69Zm-1.48,19.19c-.22,2.83-.45,5.69-.69,8.57h-12.31c.29-2.74.58-5.6.89-8.57h12.11Zm-1.42,17.47c-.24,2.87-.48,5.73-.73,8.57h-12.73c.29-2.63.6-5.5.93-8.57h12.53Zm7.47-45.94c1.48,20.08,3.68,48.5,5.88,71.92h-11.77c2.2-23.41,4.4-51.81,5.88-71.92Zm-16.3,86.2v7.12h-3.32v-7.12h3.32Zm3.86,0h3.32v7.12h-3.32v-7.12Zm7.18,0h3.32v7.12h-3.32v-7.12Zm7.18,0h3.32v7.12h-3.32v-7.12Zm7.19,0h3.32v7.12h-3.32v-7.12Zm7.18,0h3.32v7.12h-3.32v-7.12Zm-6.54-14.29c-.26-2.77-.52-5.61-.78-8.5h12.95c.43,3.82.77,6.7.98,8.5h-13.15Zm-31.69-8.5h12.95c-.26,2.89-.52,5.73-.78,8.5h-13.15c.21-1.8.55-4.69.98-8.5Zm-4.78,22.79h3.22v7.12h-3.65c.26-2.5.41-4.89.44-7.12Zm54.32,10.99c.14.95.29,1.92.45,2.9h-56.13c.16-.98.31-1.95.45-2.9h55.23Zm-83.16,73.25h3.32v11.92h-3.32v-11.92Zm-7.85,126.01h-17.56l22.4-47.42c5.56-8.06,12.11-14.81,19.33-20.07l-9.15,25.56c-.12.16-.25.31-.38.46l.16.13-14.81,41.34Zm63.42-67.42c-15.08,0-29.57,6.35-41.65,18.06l7.78-21.7c10.39-6.24,21.92-9.6,33.84-9.6s23.45,3.36,33.85,9.61l8.06,21.9c-12.12-11.85-26.7-18.27-41.87-18.27Zm61.38,60.1l-22.12-60.11c7.08,5.17,13.51,11.77,18.99,19.62l.06-.04,19.15,40.53h-16.08Z"/></svg>