<?xml version="1.0" encoding="UTF-8"?><svg id="Layer_1" xmlns="http://www.w3.org/2000/svg" viewBox="0 0 252.78 532.61"><defs><style>.cls-1{fill:#fd0;}</style></defs><path class="cls-1" d="m252.78,532.61h-42.38l-5.33-11.27h-20.66l-13.44-36.51c-12.27-15.21-28.08-23.59-44.55-23.59s-31.92,8.19-44.13,23.07l-15.9,44.35h-22.15l-1.87,3.96H0l62.61-110.43v-7.61h-5.68v-5.86h9.06v-9.92h-2.86v-5.86h10.08c6.13-15.11,16.96-45.38,20.51-67.39h-2.05v-5.86h2.83c.19-1.82.31-3.54.36-5.12h-2.16v-5.86h1.97c-.21-1.77-.56-3.3-1.05-4.56h-3.38v-5.86h8.46c2.14-18.13,16.6-144.01,16.85-231.14l-3.62-3.62v-18.56l3.07-3.07v-9.3h8.45V0h5.86v32.56h8.46v9.3l3.07,3.07v18.56l-3.62,3.62c.25,87.07,14.72,213,16.85,231.14h8.46v5.86h-3.38c-.49,1.26-.84,2.79-1.05,4.56h1.97v5.86h-2.17c.05,1.59.17,3.3.36,5.12h2.83v5.86h-2.05c3.55,22.01,14.39,52.28,20.51,67.39h10.08v5.86h-2.86v9.92h9.06v5.86h-5.68v7.61l62.61,110.43Zm-41.12-2h37.68l-61.17-107.91v-10.14h5.68v-1.86h-9.06v-13.92h2.86v-1.86h-9.43l-.25-.62c-6.21-15.23-17.65-47.04-21.07-69.62l-.17-1.15h2.38v-1.86h-2.62l-.1-.89c-.3-2.62-.47-5.05-.49-7.23v-1.01s2.19,0,2.19,0v-1.86h-2.15l.09-1.08c.22-2.77.75-5.09,1.58-6.9l.27-.58h2.69v-1.86h-8.24l-.1-.88c-1.71-14.47-16.76-143.9-16.97-232.67v-.42s3.62-3.63,3.62-3.63v-16.9l-3.07-3.07v-8.13h-8.46V2h-1.86v32.56h-8.45v8.13l-3.07,3.07v16.9l3.63,3.63v.42c-.21,88.84-15.26,218.21-16.97,232.67l-.1.88h-8.24v1.86h2.69l.27.59c.82,1.81,1.35,4.13,1.58,6.9l.09,1.08h-2.15v1.86h2.2v1.01c-.04,2.17-.2,4.6-.5,7.23l-.1.89h-2.62v1.86h2.38l-.17,1.15c-3.42,22.58-14.86,54.39-21.07,69.62l-.25.62h-9.43v1.86h2.86v13.92h-9.06v1.86h5.68v10.14l-.13.23L3.43,530.61h37.68l1.87-3.96h22l15.54-43.35.11-.13c12.61-15.43,28.87-23.93,45.78-23.93s33.54,8.69,46.21,24.46l.1.13,13.07,35.51h20.54l5.33,11.27Zm-147.96-5.82h-19.84l23.16-48.98c5.58-8.09,12.16-14.92,19.56-20.31l2.63-1.91-25.5,71.21Zm-16.68-2h15.28l14.33-40-.39-.31.9-1.12,7.96-22.21c-6.12,4.89-11.62,10.84-16.38,17.73l-21.69,45.91Zm158.44-5.31h-18.36l-23.5-63.87,2.67,1.95c7.01,5.11,13.27,11.52,18.64,19.04l.16-.11.57,1.03,19.82,41.96Zm-16.96-2h13.81l-18.3-38.73-.15-.19c-4.67-6.7-10.06-12.51-16.04-17.31l20.69,56.22Zm-17.74-37.02l-3.17-3.09c-12.04-11.77-26.28-17.99-41.17-17.99s-28.96,6.15-40.95,17.78l-3.09,3,9.35-26.09.31-.18c10.6-6.37,22.48-9.74,34.35-9.74s23.75,3.37,34.36,9.75l.3.18,9.71,26.38Zm-44.34-23.08c14.17,0,27.75,5.42,39.49,15.71l-6.5-17.66c-10.22-6.08-21.63-9.29-33.03-9.29s-22.81,3.21-33.02,9.27l-6.29,17.54c11.71-10.2,25.23-15.57,39.34-15.57Zm46.36-7.06l-3.1-2.19c-6.34-4.47-13.11-7.94-20.12-10.3l-5.79-1.95h22.19l6.82,14.43Zm-17.42-12.43c4.27,1.79,8.43,3.99,12.44,6.57l-3.1-6.57h-9.34Zm-75.37,12.43l6.82-14.43h22.18l-5.79,1.95c-7.01,2.36-13.77,5.82-20.12,10.3l-3.1,2.19Zm8.09-12.43l-3.1,6.56c4.01-2.58,8.17-4.77,12.44-6.56h-9.34Zm94.85-25.18h-5.32v-13.92h5.32v13.92Zm-3.32-2h1.32v-9.92h-1.32v9.92Zm-3.86,2h-5.32v-13.92h5.32v13.92Zm-3.32-2h1.32v-9.92h-1.32v9.92Zm-3.86,2h-5.32v-13.92h5.32v13.92Zm-3.32-2h1.32v-9.92h-1.32v9.92Zm-3.86,2h-5.32v-13.92h5.32v13.92Zm-3.32-2h1.32v-9.92h-1.32v9.92Zm-3.86,2h-5.32v-13.92h5.32v13.92Zm-3.32-2h1.32v-9.92h-1.32v9.92Zm-3.86,2h-5.32v-13.92h5.32v13.92Zm-3.32-2h1.32v-9.92h-1.32v9.92Zm-3.86,2h-5.32v-13.92h5.32v13.92Zm-3.32-2h1.32v-9.92h-1.32v9.92Zm-3.86,2h-5.32v-13.92h5.32v13.92Zm-3.32-2h1.32v-9.92h-1.32v9.92Zm-3.86,2h-5.32v-13.92h5.32v13.92Zm-3.32-2h1.32v-9.92h-1.32v9.92Zm-3.86,2h-5.32v-13.92h5.32v13.92Zm-3.32-2h1.32v-9.92h-1.32v9.92Zm-3.86,2h-5.32v-13.92h5.32v13.92Zm-3.32-2h1.32v-9.92h-1.32v9.92Zm-3.86,2h-5.32v-13.92h5.32v13.92Zm-3.32-2h1.32v-9.92h-1.32v9.92Zm-3.86,2h-5.32v-13.92h5.32v13.92Zm-3.32-2h1.32v-9.92h-1.32v9.92Zm-3.86,2h-5.32v-13.92h5.32v13.92Zm-3.32-2h1.32v-9.92h-1.32v9.92Zm-3.86,2h-5.32v-13.92h5.32v13.92Zm-3.32-2h1.32v-9.92h-1.32v9.92Zm-3.86,2h-5.32v-13.92h5.32v13.92Zm-3.32-2h1.32v-9.92h-1.32v9.92Zm78.75-13.78h-48.42l.46-1.33c2.36-6.87,8.24-26.69,11.82-62.4l.09-.9h23.67l.09.9c3.58,35.71,9.46,55.54,11.82,62.4l.46,1.33Zm-45.62-2h42.83c-2.59-7.89-7.99-27.32-11.39-60.63h-20.06c-3.4,33.31-8.8,52.74-11.39,60.63Zm50.66-64.49h-58.49l.19-1.16c.16-.97.31-1.93.45-2.88l.12-.86h56.97l.12.86c.13.95.28,1.91.45,2.88l.19,1.16Zm-56.14-2h53.78c-.05-.3-.09-.6-.14-.9h-53.5c-.04.3-.09.6-.14.9Zm55.14-4.76h-5.76v-9.12h5.21v.99c.03,2.14.17,4.51.44,7.03l.12,1.1Zm-3.76-2h1.55c-.17-1.8-.27-3.51-.31-5.12h-1.23v5.12Zm-3.86,2h-5.32v-9.12h5.32v9.12Zm-3.32-2h1.32v-5.12h-1.32v5.12Zm-3.86,2h-5.32v-9.12h5.32v9.12Zm-3.32-2h1.32v-5.12h-1.32v5.12Zm-3.86,2h-5.32v-9.12h5.32v9.12Zm-3.32-2h1.32v-5.12h-1.32v5.12Zm-3.86,2h-5.32v-9.12h5.32v9.12Zm-3.32-2h1.32v-5.12h-1.32v5.12Zm-3.86,2h-5.32v-9.12h5.32v9.12Zm-3.32-2h1.32v-5.12h-1.32v5.12Zm-3.86,2h-5.32v-9.12h5.32v9.12Zm-3.32-2h1.32v-5.12h-1.32v5.12Zm-3.86,2h-5.76l.12-1.1c.27-2.52.41-4.89.43-7.03v-.99h5.22v9.12Zm-3.55-2h1.55v-5.12h-1.23c-.04,1.61-.15,3.33-.31,5.12Zm50.07-19.41h-15.18l-.09-.91c-.26-2.77-.52-5.62-.78-8.51l-.1-1.09h14.93l.1.89c.43,3.82.77,6.7.98,8.5l.13,1.12Zm-13.36-2h11.11c-.19-1.62-.44-3.8-.75-6.5h-10.96c.2,2.2.4,4.37.6,6.5Zm-3.69,2h-13.96l.1-1.09c2.22-23.54,4.42-52.09,5.88-71.9h1.99c1.47,19.86,3.67,48.45,5.88,71.9l.1,1.09Zm-11.77-2h9.57c-1.72-18.37-3.43-39.72-4.78-57.53-1.35,17.76-3.06,39.09-4.78,57.53Zm-4.07,2h-15.18l.13-1.12c.21-1.8.55-4.68.98-8.5l.1-.89h14.93l-.1,1.09c-.26,2.89-.52,5.74-.78,8.51l-.08.91Zm-12.93-2h11.11c.2-2.13.4-4.3.6-6.5h-10.96c-.31,2.7-.56,4.89-.75,6.5Zm43.83-15.4h-14.77l-.08-.91c-.25-2.84-.49-5.71-.73-8.58l-.09-1.08h14.51l.1.89c.33,3.07.64,5.94.93,8.57l.12,1.11Zm-12.93-2h10.7c-.23-2.06-.47-4.25-.72-6.57h-10.54c.18,2.2.37,4.39.56,6.57Zm-16.39,2h-14.77l.12-1.11c.29-2.63.6-5.5.94-8.57l.1-.89h14.51l-.09,1.08c-.24,2.87-.48,5.73-.73,8.58l-.08.91Zm-12.53-2h10.7c.19-2.18.38-4.38.56-6.57h-10.54c-.25,2.32-.49,4.51-.72,6.57Zm39.97-15.47h-14.35l-.08-.92c-.23-2.88-.46-5.75-.69-8.58l-.08-1.08h14.1l.09.9c.3,2.97.6,5.83.89,8.57l.12,1.1Zm-12.5-2h10.28c-.22-2.12-.45-4.32-.68-6.57h-10.13c.17,2.17.35,4.37.53,6.57Zm-13.47,2h-14.35l.12-1.1c.29-2.74.58-5.6.89-8.57l.09-.9h14.1l-.08,1.08c-.22,2.83-.45,5.69-.69,8.58l-.08.92Zm-12.13-2h10.28c.18-2.2.35-4.4.53-6.57h-10.13c-.23,2.26-.46,4.45-.68,6.57Zm36.31-15.47h-13.94l-.07-.92c-.27-3.54-.54-6.99-.79-10.29l-.08-1.08h13.68l.09.9c.34,3.53.68,6.97,1.01,10.29l.11,1.1Zm-12.09-2h9.88c-.27-2.7-.54-5.46-.81-8.29h-9.7c.2,2.68.41,5.46.63,8.29Zm-10.7,2h-13.94l.11-1.1c.33-3.32.67-6.76,1.01-10.29l.09-.9h13.68l-.08,1.08c-.25,3.31-.51,6.75-.79,10.29l-.07.92Zm-11.73-2h9.88c.22-2.84.43-5.61.63-8.29h-9.7c-.27,2.83-.54,5.6-.81,8.29Zm30.64-39.48h-13.12l-.24-3.38c-.05-.76-.08-1.18-.09-1.24v-23.26s11.16,0,11.16,0l.07.92c.65,8.41,1.36,17.11,2.12,25.87l.09,1.09Zm-11.26-2h9.08c-.7-8.08-1.35-16.1-1.96-23.88h-7.31v21.17h0s.03.43.09,1.19l.11,1.52Zm-4.59,2h-13.12l.09-1.09c.76-8.83,1.48-17.53,2.12-25.87l.07-.92h11.17v23.04c0,.15-.1,1.52-.27,3.91l-.06.93Zm-10.94-2h9.08c.13-1.81.2-2.83.2-2.9v-20.98h-7.32c-.6,7.72-1.26,15.74-1.96,23.88Zm23.96-33.22h-10.61v-10.13h9.88l.07.93c.19,2.72.38,5.43.58,8.13l.08,1.07Zm-8.61-2h6.46c-.15-2.04-.29-4.08-.44-6.13h-6.02v6.13Zm-4.07,2h-10.62l.08-1.07c.2-2.7.39-5.41.58-8.13l.07-.93h9.89v10.13Zm-8.46-2h6.46v-6.13h-6.02c-.14,2.05-.29,4.09-.44,6.13Zm19.92-15.47h-9.38v-10.13h8.74l.06.94c.17,2.71.34,5.42.52,8.13l.07,1.07Zm-7.38-2h5.25c-.13-2.04-.26-4.09-.39-6.13h-4.86v6.13Zm-4.07,2h-9.39l.07-1.07c.18-2.71.35-5.42.52-8.13l.06-.94h8.74v10.13Zm-7.25-2h5.25v-6.13h-4.86c-.13,2.04-.26,4.09-.39,6.13Zm17.62-15.47h-8.3v-10.13h7.74l.05.95c.14,2.71.29,5.41.45,8.13l.06,1.06Zm-6.3-2h4.18c-.12-2.05-.23-4.09-.34-6.13h-3.85v6.13Zm-4.07,2h-8.3l.06-1.06c.16-2.71.3-5.42.45-8.13l.05-.95h7.74v10.13Zm-6.18-2h4.18v-6.13h-3.85c-.11,2.04-.22,4.08-.34,6.13Zm15.63-15.47h-7.38v-10.13h6.92l.04.96c.11,2.7.23,5.41.36,8.13l.05,1.05Zm-5.38-2h3.28c-.1-2.05-.19-4.09-.27-6.13h-3.01v6.13Zm-4.07,2h-7.38l.05-1.05c.13-2.72.25-5.43.36-8.13l.04-.96h6.93v10.13Zm-5.28-2h3.28v-6.13h-3.01c-.09,2.04-.18,4.08-.27,6.13Zm14-15.47h-6.64v-10.13h6.32l.03.97c.08,2.69.16,5.4.26,8.12l.04,1.04Zm-4.64-2h2.57c-.07-2.05-.14-4.1-.2-6.13h-2.38v6.13Zm-4.07,2h-6.65l.04-1.04c.1-2.73.18-5.44.26-8.12l.03-.97h6.32v10.13Zm-4.57-2h2.57v-6.13h-2.38c-.06,2.03-.12,4.08-.19,6.13Zm12.79-15.47h-6.14v-17.22h5.94v1c.02,4.86.08,9.98.19,15.2l.02,1.02Zm-4.14-2h2.1c-.09-4.53-.14-8.96-.16-13.22h-1.94v13.22Zm-4.07,2h-6.14l.02-1.02c.1-5.22.17-10.34.18-15.2v-1h5.94v17.22Zm-4.1-2h2.1v-13.22h-1.94c-.02,4.25-.07,8.69-.16,13.22Z"/></svg>