<?xml version="1.0" encoding="UTF-8"?><svg id="Layer_1" xmlns="http://www.w3.org/2000/svg" viewBox="0 0 341.36 232.12"><defs><style>.cls-1{fill:#001489;}</style></defs><path class="cls-1" d="m202.46,109.54v5.32l-36.41.46-18.89-7.21-12.97,3.64-8.65-26.63v-28.45l-1.14-4.1-8.65-2.5-14.79-33-7.28-5.92,1.14-4.78-5.01-6.37C11.07,21.39,2.96,73.28,2.96,73.28l2.96,10.62-1.67,6.37v24.58c-9.41,13.96,0,23.52,0,23.52v15.17c-8.34,8.34-1.82,13.81-1.82,13.81v30.04c-3.79,4.1,0,5.16,0,5.16v29.58h338.93v-87.39c-33.07-45.51-138.89-35.2-138.89-35.2ZM13.58,161.27c.35-1.15.89-2.29,1.55-3.3.96-1.45,2.03-1.54,2.81,0,1.1,2.21,2.23,4.61,2.44,7.01.56,6.55.65,13.13.92,19.79-3.38.56-6.27,1.04-9.35,1.54.37-8.47-.86-16.88,1.63-25.06Zm-1.53,61.74c-.08-4.75-.31-9.46.79-14.06.53-2.19,1.32-4.37,2.36-6.38.75-1.44,1.88-1.44,2.69-.06.98,1.67,1.99,3.52,2.22,5.39.64,5.23.88,10.5,1.3,16.07-3.48-.36-6.34-.65-9.36-.96Zm8.73-85.51c-2.64,1.14-5.34,2.16-8.3,3.33-.02-7.61-.46-15.01,1.68-22.23.21-.71.48-1.45.93-2.02.54-.68,1.43-1.75,1.92-1.63.82.2,1.84,1.09,2.09,1.9.88,2.84,1.76,5.74,2.09,8.68.4,3.5.27,7.06.29,10.6,0,.47-.34,1.21-.71,1.37Zm24.36,88.39c-3.98-.3-7.76-.58-11.76-.89,0-3.36-.19-6.63.05-9.86.26-3.5.81-7,1.47-10.45.26-1.37,1.04-2.68,1.77-3.91,1.4-2.36,3.87-2.43,5.19-.03.99,1.8,1.79,3.78,2.27,5.78,1.52,6.27.96,12.68,1.02,19.37Zm-11.54-43.57c-.09-.25-.2-.4-.19-.55.15-7.71.09-15.43.58-23.11.17-2.65,1.52-5.31,2.73-7.77,1.22-2.48,3.75-2.31,5.28.1,1.86,2.94,2.58,6.26,2.75,9.63.33,6.62.4,13.25.59,20.16-4.12.54-7.93,1.04-11.73,1.55Zm11.96-55.37c0,.46-.32,1.22-.66,1.34-3.58,1.23-7.19,2.36-11.18,3.64.63-9.4-1.03-18.61,1.47-27.63.58-2.07,1.34-4.07,3.11-5.49.94-.75,1.97-.86,2.74,0,.98,1.09,1.98,2.29,2.51,3.62,1.48,3.77,2.06,7.74,2.05,11.8,0,4.24.02,8.47-.04,12.71Zm31.34,100.26c-5.5-.22-11.05-.45-17.04-.7.24-6.63.22-13.01.8-19.35.33-3.6,1.72-7.09,4.69-9.57,2.47-2.06,5.2-1.74,7.36.73,2.3,2.64,3.68,5.8,3.9,9.16.44,6.45.38,12.93.51,19.4,0,.08-.11.17-.23.33Zm-1.47-49.95c-4.75.38-9.48.98-14.22,1.49-.31.03-.62,0-1.35,0,.24-9.02.33-17.86.78-26.68.16-3.09,1.57-5.98,3.48-8.5,2.83-3.72,7.57-3.01,10,1.45,2.15,3.95,3.03,8.2,3.06,12.64.04,5.84-.03,11.69.03,17.53.01,1.35-.24,1.95-1.78,2.07Zm2-57.48c-5.49,1.33-11.09,2.68-16.77,4.06-.04-.53-.1-.9-.1-1.26,0-7.13-.09-14.27.03-21.4.07-4.68,1.03-9.21,4.09-12.92,3.09-3.75,6.41-3.19,9.18.46,2.28,3.01,3.44,6.59,3.53,10.33.16,6.85.05,13.71.05,20.74Zm36.88,108.51c-7.5-.17-14.76-.33-22.09-.5-.05-.47-.11-.78-.11-1.09,0-6-.09-12,.06-18,.11-4.32,1.46-8.29,4.33-11.63,4.49-5.24,10.98-4.24,14.74,1.55,1.81,2.8,2.73,5.9,2.98,9.21.06.75.08,1.5.09,2.25,0,5.99,0,11.98,0,18.21Zm0-55.06c0,.26-.05.51-.08.84-7.35.52-14.64,1.04-22.11,1.58v-1.61c0-7.93.04-15.86-.01-23.8-.03-4.5.9-8.71,3.46-12.47,3.7-5.43,10.05-6.16,14.36-1.25,3.03,3.44,4.28,7.53,4.36,11.95.14,8.25.04,16.51.03,24.76Zm.56-60.83c-7.38,1.31-14.73,2.62-22.22,3.95-.05-.53-.13-.98-.13-1.43,0-7.82-.1-15.65.03-23.47.08-4.62,1.2-9.01,4.31-12.65,4.31-5.04,10.49-4.7,14.37.73,2.26,3.15,3.45,6.74,3.57,10.49.23,7.43.07,14.88.07,22.39Zm41.99,116.09h-27.64c.21-8.59-.08-17.03.8-25.36.57-5.39,4.05-9.56,9.55-11.52,4.02-1.43,7.65-.51,10.89,1.92,4.2,3.14,6.26,7.57,6.37,12.74.16,7.39.04,14.79.04,22.23Zm-.04-55.96c-9.16.23-18.15.45-27.29.67-.04-.46-.11-.92-.11-1.37,0-9.06.01-18.12-.01-27.18-.01-5.36,1.69-10.01,5.74-13.6,4.68-4.15,11.22-4.22,16.05.03,4.02,3.53,5.67,8.08,5.71,13.26.06,9.11.02,18.22.02,27.33,0,.26-.07.52-.11.86Zm50.69,56.03h-32.84c-.03-.4-.09-.76-.09-1.12,0-6.7-.15-13.41.03-20.1.29-10.61,9.66-17.92,19.44-16.08,7.9,1.49,13.43,8.29,13.45,16.3.02,6.27,0,12.55,0,18.82v2.19Zm0-58.43v2.07h-32.82c-.04-.45-.11-.86-.11-1.27,0-9.7-.05-19.41.01-29.11.06-9.56,8-17,17.53-16.54,6.34.31,12.37,4.81,14.3,10.92.62,1.95,1.01,4.06,1.04,6.1.11,9.27.05,18.55.05,27.82Zm42.47,55.92v2.19h-27.4c-.04-.07-.13-.16-.13-.25,0-7.82-.27-15.66.13-23.46.3-5.87,3.18-10.77,8.69-13.31,5.84-2.69,12.04-.56,15.91,5.48,2.02,3.15,2.81,6.67,2.8,10.38,0,6.32,0,12.65,0,18.97Zm0-54.76c0,.36-.08.72-.14,1.17h-27.24c-.07-.23-.18-.42-.18-.62.01-10.62-.23-21.24.16-31.85.23-6,3.23-10.93,8.97-13.42,5.63-2.44,11.49-.4,15.08,4.73,2.12,3.03,3.27,6.43,3.3,10.07.1,9.97.04,19.95.03,29.92Zm37.84,55.99c-7.11.18-14.41.36-21.82.55-.04-.75-.09-1.27-.09-1.8,0-5.52,0-11.04,0-16.56-.01-4.57,1.1-8.8,3.86-12.49,2.93-3.92,8.39-5.58,12.84-1.54,2.99,2.72,4.89,6.19,5.1,10.05.38,7.15.11,14.33.11,21.77Zm5.13-61.01c-5.11-.72-10.04-1.42-14.97-2.12-1.11-.16-2.24-.46-3.34-.42-1.7.06-2.27-.74-2.58-2.28-.79-3.81-1.88-7.53-1.66-11.53.24-4.26.99-8.3,3.37-11.88,3.26-4.9,8.69-6.62,13.42-2.6,2.55,2.17,4.28,5.03,4.75,8.35.55,3.91.81,7.87.99,11.82.16,3.47.03,6.95.03,10.67Zm31.6,59.35c-2.4.11-4.95.2-7.51.34-5.34.3-5.05.15-7.69-4.52-2.5-4.42-1.52-8.95-1.37-13.46.11-3.27,1.29-6.34,3.04-9.19,2.75-4.49,7.65-4.53,10.42-.07,1.74,2.79,2.87,5.87,3.02,9.05.28,5.87.08,11.77.08,17.85Zm.26-47.86c0,.31-.06.62-.11,1.11-5.64-.59-11.21-1.16-16.83-1.75-.05-.54-.12-.9-.12-1.26,0-6.64-.02-13.28.04-19.92.03-3.98.98-7.78,3.18-11.1.9-1.36,2.31-2.49,3.71-3.38,1.52-.97,3.96-.27,5.43,1.57,1.22,1.52,2.43,3.22,3.01,5.05.86,2.73,1.53,5.62,1.62,8.47.22,7.07.08,14.15.07,21.22Z"/></svg>